<?xml version="1.0" encoding="UTF-8"?>
<svg width="9px" height="13px" viewBox="0 0 9 13" version="1.1" xmlns="http://www.w3.org/2000/svg" xmlns:xlink="http://www.w3.org/1999/xlink">
    <title>Fill 1</title>
    <g id="Page-1" stroke="none" stroke-width="1" fill="none" fill-rule="evenodd">
        <g id="Fashion-Focus-Africa" transform="translate(-196.000000, -759.000000)" fill="#000000">
            <g id="Group" transform="translate(130.000000, 755.500000)">
                <path d="M72.1990659,6.11315328 C71.9404331,5.92192145 71.5801946,5.97882172 71.3925704,6.24044564 C71.2037916,6.50148296 71.2603675,6.86869501 71.516691,7.05992685 L74.6826331,9.41336895 L65,9.41336895 L65,10.5865704 L74.7149622,10.5865704 L71.5195776,12.9388393 C71.2615221,13.1283113 71.2037916,13.4955234 71.3914158,13.7577339 C71.5045676,13.9155295 71.6806457,14 71.8596104,14 C71.9768033,14 72.0951509,13.9636308 72.1973339,13.8885459 L75.8759231,11.1802103 C76.2719545,10.8886698 76.4994128,10.4645574 76.5,10.0169811 C76.501722,9.56940474 76.2759957,9.14411922 75.8811189,8.85081886 L72.1990659,6.11315328 Z" id="Fill-1" transform="translate(70.750005, 10.000000) rotate(-270.000000) translate(-70.750005, -10.000000) "></path>
            </g>
        </g>
    </g>
</svg>