<?xml version="1.0" encoding="utf-8"?>
<!-- Generator: Adobe Illustrator 24.0.3, SVG Export Plug-In . SVG Version: 6.00 Build 0)  -->
<svg version="1.1" id="Layer_1" xmlns="http://www.w3.org/2000/svg" xmlns:xlink="http://www.w3.org/1999/xlink" x="0px" y="0px"
	 viewBox="0 0 100 91.2" style="enable-background:new 0 0 100 91.2;" xml:space="preserve">
<title>02</title>
<path d="M26.9,7.3c-1.7,0-3,1.3-3,3v4.5h-3.6c-6.1,0-11,4.9-11,11v48.8c0,6.1,4.9,11,11,11h59.3c6.1,0,11-4.9,11-11V25.9
	c0-6.1-4.9-11-11-11h-3.6v-4.5c0-1.7-1.3-3-3-3s-3,1.3-3,3v4.5H53v-4.5c0-1.7-1.3-3-3-3s-3,1.3-3,3v4.5H29.9v-4.5
	C29.9,8.7,28.6,7.3,26.9,7.3z M84.7,74.7c0,2.8-2.2,5-5,5H20.3c-2.8,0-5-2.2-5-5V41h69.3V74.7z M47,20.9v4.5c0,1.7,1.3,3,3,3
	s3-1.3,3-3l0,0v-4.5h17.1v4.5c0,1.7,1.3,3,3,3s3-1.3,3-3l0,0v-4.5h3.6c2.8,0,5,2.2,5,5V35H15.3v-9.1c0-2.8,2.2-5,5-5h3.6v4.5
	c0,1.7,1.3,3,3,3s3-1.3,3-3l0,0v-4.5H47z"/>
</svg>
