<?xml version="1.0" encoding="UTF-8"?>
<svg width="155px" height="148px" viewBox="0 0 155 148" version="1.1" xmlns="http://www.w3.org/2000/svg" xmlns:xlink="http://www.w3.org/1999/xlink">
    <title>Group 3</title>
    <defs>
        <filter id="filter-1">
            <feColorMatrix in="SourceGraphic" type="matrix" values="0 0 0 0 1.000000 0 0 0 0 1.000000 0 0 0 0 1.000000 0 0 0 1.000000 0"></feColorMatrix>
        </filter>
        <polygon id="path-2" points="0 0 155 0 155 148 0 148"></polygon>
    </defs>
    <g id="Page-1" stroke="none" stroke-width="1" fill="none" fill-rule="evenodd">
        <g id="Group-3" transform="translate(-310.000000, -800.000000)" filter="url(#filter-1)">
            <g transform="translate(310.000000, 800.000000)">
                <mask id="mask-3" fill="white">
                    <use xlink:href="#path-2"></use>
                </mask>
                <g id="Clip-2"></g>
                <path d="M51.6666667,113.581395 C51.6666667,115.474419 50.1166667,117.023256 48.2222222,117.023256 L24.1111111,117.023256 C22.2166667,117.023256 20.6666667,115.474419 20.6666667,113.581395 C20.6666667,111.686651 22.2166667,110.139535 24.1111111,110.139535 L48.2222222,110.139535 C50.1166667,110.139535 51.6666667,111.686651 51.6666667,113.581395 L51.6666667,113.581395 Z M134.333333,113.581395 C134.333333,115.474419 132.783333,117.023256 130.888889,117.023256 L106.777778,117.023256 C104.883333,117.023256 103.333333,115.474419 103.333333,113.581395 C103.333333,111.686651 104.883333,110.139535 106.777778,110.139535 L130.888889,110.139535 C132.783333,110.139535 134.333333,111.686651 134.333333,113.581395 L134.333333,113.581395 Z M93,113.581395 C93,115.474419 91.45,117.023256 89.5555556,117.023256 L65.4444444,117.023256 C63.55,117.023256 62,115.474419 62,113.581395 C62,111.686651 63.55,110.139535 65.4444444,110.139535 L89.5555556,110.139535 C91.45,110.139535 93,111.686651 93,113.581395 L93,113.581395 Z M51.6666667,92.9302326 C51.6666667,94.8232558 50.1166667,96.372093 48.2222222,96.372093 L24.1111111,96.372093 C22.2166667,96.372093 20.6666667,94.8232558 20.6666667,92.9302326 C20.6666667,91.0354884 22.2166667,89.4883721 24.1111111,89.4883721 L48.2222222,89.4883721 C50.1166667,89.4883721 51.6666667,91.0354884 51.6666667,92.9302326 L51.6666667,92.9302326 Z M134.333333,92.9302326 C134.333333,94.8232558 132.783333,96.372093 130.888889,96.372093 L106.777778,96.372093 C104.883333,96.372093 103.333333,94.8232558 103.333333,92.9302326 C103.333333,91.0354884 104.883333,89.4883721 106.777778,89.4883721 L130.888889,89.4883721 C132.783333,89.4883721 134.333333,91.0354884 134.333333,92.9302326 L134.333333,92.9302326 Z M93,92.9302326 C93,94.8232558 91.45,96.372093 89.5555556,96.372093 L65.4444444,96.372093 C63.55,96.372093 62,94.8232558 62,92.9302326 C62,91.0354884 63.55,89.4883721 65.4444444,89.4883721 L89.5555556,89.4883721 C91.45,89.4883721 93,91.0354884 93,92.9302326 L93,92.9302326 Z M51.6666667,72.2790698 C51.6666667,74.172093 50.1166667,75.7209302 48.2222222,75.7209302 L24.1111111,75.7209302 C22.2166667,75.7209302 20.6666667,74.172093 20.6666667,72.2790698 C20.6666667,70.3843256 22.2166667,68.8372093 24.1111111,68.8372093 L48.2222222,68.8372093 C50.1166667,68.8372093 51.6666667,70.3843256 51.6666667,72.2790698 L51.6666667,72.2790698 Z M134.333333,72.2790698 C134.333333,74.172093 132.783333,75.7209302 130.888889,75.7209302 L106.777778,75.7209302 C104.883333,75.7209302 103.333333,74.172093 103.333333,72.2790698 C103.333333,70.3843256 104.883333,68.8372093 106.777778,68.8372093 L130.888889,68.8372093 C132.783333,68.8372093 134.333333,70.3843256 134.333333,72.2790698 L134.333333,72.2790698 Z M93,72.2790698 C93,74.172093 91.45,75.7209302 89.5555556,75.7209302 L65.4444444,75.7209302 C63.55,75.7209302 62,74.172093 62,72.2790698 C62,70.3843256 63.55,68.8372093 65.4444444,68.8372093 L89.5555556,68.8372093 C91.45,68.8372093 93,70.3843256 93,72.2790698 L93,72.2790698 Z M148.111111,134.232558 C148.111111,138.016884 145.011111,141.116279 141.222222,141.116279 L13.7777778,141.116279 C9.98888889,141.116279 6.88888889,138.016884 6.88888889,134.232558 L6.88888889,32.6976744 C6.88888889,28.9116279 9.98888889,25.8139535 13.7777778,25.8139535 L41.1611111,25.8139535 C40.1277778,33.0418605 36.3388889,37.8604651 32.7222222,37.8604651 C30.8277778,37.8604651 29.2777778,39.4075814 29.2777778,41.3023256 C29.2777778,43.1953488 30.8277778,44.744186 32.7222222,44.744186 C40.6444444,44.744186 46.8444444,36.655814 48.05,25.8139535 L85.9388889,25.8139535 C84.9055556,33.0418605 81.1166667,37.8604651 77.5,37.8604651 C75.6055556,37.8604651 74.0555556,39.4075814 74.0555556,41.3023256 C74.0555556,43.1953488 75.6055556,44.744186 77.5,44.744186 C85.4222222,44.744186 91.6222222,36.655814 92.8277778,25.8139535 L130.716667,25.8139535 C129.683333,33.0418605 125.894444,37.8604651 122.277778,37.8604651 C120.383333,37.8604651 118.833333,39.4075814 118.833333,41.3023256 C118.833333,43.1953488 120.383333,44.744186 122.277778,44.744186 C130.2,44.744186 136.4,36.655814 137.605556,25.8139535 L141.222222,25.8139535 C145.011111,25.8139535 148.111111,28.9116279 148.111111,32.6976744 L148.111111,134.232558 Z M32.7222222,6.88372093 C36.3388889,6.88372093 40.1277778,11.7023256 41.1611111,18.9302326 L24.4555556,18.9302326 C25.3166667,11.7023256 29.1055556,6.88372093 32.7222222,6.88372093 L32.7222222,6.88372093 Z M77.5,6.88372093 C81.1166667,6.88372093 84.9055556,11.7023256 85.9388889,18.9302326 L69.2333333,18.9302326 C70.0944444,11.7023256 73.8833333,6.88372093 77.5,6.88372093 L77.5,6.88372093 Z M122.277778,6.88372093 C125.894444,6.88372093 129.683333,11.7023256 130.716667,18.9302326 L114.011111,18.9302326 C114.872222,11.7023256 118.661111,6.88372093 122.277778,6.88372093 L122.277778,6.88372093 Z M141.222222,18.9302326 L137.605556,18.9302326 C136.4,8.08837209 130.2,0 122.277778,0 C114.355556,0 108.155556,8.08837209 106.95,18.9302326 L92.8277778,18.9302326 C91.6222222,8.08837209 85.4222222,0 77.5,0 C69.5777778,0 63.3777778,8.08837209 62.1722222,18.9302326 L48.05,18.9302326 C46.8444444,8.08837209 40.6444444,0 32.7222222,0 C24.8,0 18.6,8.08837209 17.3944444,18.9302326 L13.7777778,18.9302326 C6.2,18.9302326 0,25.1255814 0,32.6976744 L0,134.232558 C0,141.80293 6.2,148 13.7777778,148 L141.222222,148 C148.8,148 155,141.80293 155,134.232558 L155,32.6976744 C155,25.1255814 148.8,18.9302326 141.222222,18.9302326 L141.222222,18.9302326 Z" id="Fill-1" fill="#000000" mask="url(#mask-3)"></path>
            </g>
        </g>
    </g>
</svg>