<?xml version="1.0" encoding="UTF-8"?>
<svg width="42px" height="42px" viewBox="0 0 42 42" version="1.1" xmlns="http://www.w3.org/2000/svg" xmlns:xlink="http://www.w3.org/1999/xlink">
    <title>Combined Shape</title>
    <g id="Page-1" stroke="none" stroke-width="1" fill="none" fill-rule="evenodd">
        <g id="Homepage-–-History-of-the-Eko-dynasty" transform="translate(-81.000000, -1703.000000)" fill="#FFFFFF" fill-rule="nonzero">
            <path d="M102,1703 C113.59798,1703 123,1712.40202 123,1724 C123,1735.59798 113.59798,1745 102,1745 C90.4020203,1745 81,1735.59798 81,1724 C81,1712.40202 90.4020203,1703 102,1703 Z M102,1704 C90.954305,1704 82,1712.95431 82,1724 C82,1735.04569 90.954305,1744 102,1744 C113.045695,1744 122,1735.04569 122,1724 C122,1712.95431 113.045695,1704 102,1704 Z M106.723923,1713.99557 C107.058596,1714.09482 107.320295,1714.37082 107.414403,1714.72378 C107.508282,1715.07699 107.42084,1715.4562 107.183863,1715.72469 L98.916456,1724.4439 L107.183863,1733.16311 C107.372134,1733.35933 107.478261,1733.62686 107.478261,1733.90611 C107.478261,1734.18535 107.372134,1734.45294 107.183863,1734.6491 C106.996959,1734.84598 106.743519,1734.95652 106.47937,1734.95652 C106.215278,1734.95652 105.961782,1734.84598 105.774878,1734.6491 L96.802807,1725.14466 C96.6225681,1724.94965 96.5217391,1724.68794 96.5217391,1724.41573 C96.5217391,1724.14327 96.6225681,1723.88157 96.802807,1723.68655 L96.802807,1723.68727 L105.774878,1714.23871 C106.029457,1713.98878 106.389023,1713.89656 106.723923,1713.99557 Z" id="Combined-Shape"></path>
        </g>
    </g>
</svg>