<?xml version="1.0" encoding="UTF-8"?>
<svg width="42px" height="42px" viewBox="0 0 42 42" version="1.1" xmlns="http://www.w3.org/2000/svg" xmlns:xlink="http://www.w3.org/1999/xlink">
    <title>Combined Shape Copy</title>
    <g id="Page-1" stroke="none" stroke-width="1" fill="none" fill-rule="evenodd">
        <g id="Homepage-–-History-of-the-Eko-dynasty" transform="translate(-131.000000, -1703.000000)" fill="#FFFFFF" fill-rule="nonzero">
            <path d="M152,1703 C163.59798,1703 173,1712.40202 173,1724 C173,1735.59798 163.59798,1745 152,1745 C140.40202,1745 131,1735.59798 131,1724 C131,1712.40202 140.40202,1703 152,1703 Z M152,1704 C140.954305,1704 132,1712.95431 132,1724 C132,1735.04569 140.954305,1744 152,1744 C163.045695,1744 172,1735.04569 172,1724 C172,1712.95431 163.045695,1704 152,1704 Z M156.723923,1713.99557 C157.058596,1714.09482 157.320295,1714.37082 157.414403,1714.72378 C157.508282,1715.07699 157.42084,1715.4562 157.183863,1715.72469 L148.916456,1724.4439 L157.183863,1733.16311 C157.372134,1733.35933 157.478261,1733.62686 157.478261,1733.90611 C157.478261,1734.18535 157.372134,1734.45294 157.183863,1734.6491 C156.996959,1734.84598 156.743519,1734.95652 156.47937,1734.95652 C156.215278,1734.95652 155.961782,1734.84598 155.774878,1734.6491 L146.802807,1725.14466 C146.622568,1724.94965 146.521739,1724.68794 146.521739,1724.41573 C146.521739,1724.14327 146.622568,1723.88157 146.802807,1723.68655 L146.802807,1723.68727 L155.774878,1714.23871 C156.029457,1713.98878 156.389023,1713.89656 156.723923,1713.99557 Z" id="Combined-Shape-Copy" transform="translate(152.000000, 1724.000000) scale(-1, 1) translate(-152.000000, -1724.000000) "></path>
        </g>
    </g>
</svg>