<?xml version="1.0" encoding="utf-8"?>
<!-- Generator: Adobe Illustrator 26.2.1, SVG Export Plug-In . SVG Version: 6.00 Build 0)  -->
<svg version="1.1" id="Layer_1" xmlns="http://www.w3.org/2000/svg" xmlns:xlink="http://www.w3.org/1999/xlink" x="0px" y="0px"
	 viewBox="0 0 277.8 373.1" style="enable-background:new 0 0 277.8 373.1;" xml:space="preserve">
<path d="M103.9,288.5c-3.4,0-5.6,2.2-5.6,5.6v44.8c0,3.4,2.2,5.6,5.6,5.6c3.4,0,5.6-2.2,5.6-5.6v-16.8h5.6c9.5,0,16.8-7.3,16.8-16.8
	c0-9.5-7.3-16.8-16.8-16.8L103.9,288.5z M120.7,305.3c0,3.4-2.2,5.6-5.6,5.6h-5.6v-11.2h5.6C118.4,299.7,120.7,301.9,120.7,305.3
	L120.7,305.3z M182.3,344.5h16.8c9.5,0,16.8-7.3,16.8-16.8c0-6.2-3.4-11.2-7.8-14c1.7-2.8,2.2-5.6,2.2-8.4c0-9.5-7.3-16.8-16.8-16.8
	h-11.2c-3.4,0-5.6,2.2-5.6,5.6v44.8C176.7,342.3,178.9,344.5,182.3,344.5L182.3,344.5z M187.9,299.7h5.6c3.4,0,5.6,2.2,5.6,5.6
	c0,3.4-2.2,5.6-5.6,5.6h-5.6V299.7z M187.9,322.1h11.2c3.4,0,5.6,2.2,5.6,5.6c0,3.4-2.2,5.6-5.6,5.6h-11.2V322.1z M137.5,327.7
	v-33.6c0-3.4,2.2-5.6,5.6-5.6c3.4,0,5.6,2.2,5.6,5.6v33.6c0,3.4,2.2,5.6,5.6,5.6c3.4,0,5.6-2.2,5.6-5.6v-33.6c0-3.4,2.2-5.6,5.6-5.6
	c3.4,0,5.6,2.2,5.6,5.6v33.6c0,9.5-7.3,16.8-16.8,16.8C144.8,344.5,137.5,337.2,137.5,327.7L137.5,327.7z M70.3,299.7v11.2h11.2
	c3.4,0,5.6,2.2,5.6,5.6c0,3.4-2.2,5.6-5.6,5.6H70.3v11.2h16.8c3.4,0,5.6,2.2,5.6,5.6c0,3.4-2.2,5.6-5.6,5.6H64.7
	c-3.4,0-5.6-2.2-5.6-5.6v-44.8c0-3.4,2.2-5.6,5.6-5.6h22.4c3.4,0,5.6,2.2,5.6,5.6c0,3.4-2.2,5.6-5.6,5.6L70.3,299.7z M264.6,77.4
	l-67.2-67.2c-1.1-1.1-2.2-1.7-3.9-1.7h-168C16,8.5,8.7,15.8,8.7,25.3v324.8c0,9.5,7.3,16.8,16.8,16.8h224c9.5,0,16.8-7.3,16.8-16.8
	V81.3C266.3,79.6,265.7,78.5,264.6,77.4L264.6,77.4z M199.1,27.5l48.2,48.2h-42.6c-3.4,0-5.6-2.2-5.6-5.6L199.1,27.5z M64.7,19.7
	h44.8v87.4L91,88.6c-2.2-2.2-5.6-2.2-7.8,0l-18.5,18.5L64.7,19.7z M255.1,350.1c0,3.4-2.2,5.6-5.6,5.6h-224c-3.4,0-5.6-2.2-5.6-5.6
	v-72.8h50.4c3.4,0,5.6-2.2,5.6-5.6c0-3.4-2.2-5.6-5.6-5.6H19.9V25.3c0-3.4,2.2-5.6,5.6-5.6h28v100.8c0,2.2,1.1,4.5,3.4,5
	c2.2,1.1,4.5,0.6,6.2-1.1l24.1-24.1l24.1,24.1c2.2,2.2,5.4,1.9,6.2,1.1c2.2-1.1,3.4-2.8,3.4-5l0-100.8h67.2v50.4
	c0,9.5,7.3,16.8,16.8,16.8h50.4v179.2H120.7c-3.4,0-5.6,2.2-5.6,5.6c0,3.4,2.2,5.6,5.6,5.6h134.4L255.1,350.1z M98.3,277.3h-5.6
	c-3.4,0-5.6-2.2-5.6-5.6c0-3.4,2.2-5.6,5.6-5.6h5.6c3.4,0,5.6,2.2,5.6,5.6C103.9,275.1,101.6,277.3,98.3,277.3z"/>
</svg>
