<?xml version="1.0" encoding="utf-8"?>
<!-- Generator: Adobe Illustrator 25.4.1, SVG Export Plug-In . SVG Version: 6.00 Build 0)  -->
<svg version="1.1" id="Layer_1" xmlns="http://www.w3.org/2000/svg" xmlns:xlink="http://www.w3.org/1999/xlink" x="0px" y="0px"
	 viewBox="0 0 16.1 15.9" style="enable-background:new 0 0 16.1 15.9;" xml:space="preserve">
<g>
	<path d="M14.5,6.9v8c0,0.3-0.2,0.5-0.5,0.5H1c-0.3,0-0.5-0.2-0.5-0.5v-13c0-0.3,0.2-0.5,0.5-0.5h8c0.3,0,0.5,0.2,0.5,0.5
		S9.3,2.4,9,2.4H1.5v12h12V6.9c0-0.3,0.2-0.5,0.5-0.5S14.5,6.6,14.5,6.9z M15.5,0.7L15.5,0.7L15.5,0.7c0-0.1-0.1-0.1-0.2-0.2
		c0,0,0,0,0,0c-0.1,0-0.2-0.1-0.2-0.1h-4c-0.3,0-0.5,0.2-0.5,0.5s0.2,0.5,0.5,0.5h2.8L7.7,7.5C7.5,7.7,7.5,8,7.7,8.2s0.5,0.2,0.7,0
		l6.1-6.1v2.8c0,0.3,0.2,0.5,0.5,0.5s0.5-0.2,0.5-0.5v-4C15.5,0.8,15.5,0.7,15.5,0.7z"/>
</g>
</svg>
