<?xml version="1.0" encoding="UTF-8"?>
<svg width="23px" height="23px" viewBox="0 0 23 23" version="1.1" xmlns="http://www.w3.org/2000/svg" xmlns:xlink="http://www.w3.org/1999/xlink">
    <title>facebook</title>
    <g id="Symbols" stroke="none" stroke-width="1" fill="none" fill-rule="evenodd">
        <g id="Footer" transform="translate(-57.000000, -16.000000)" fill="#000000" fill-rule="nonzero">
            <g id="facebook" transform="translate(57.000000, 16.000000)">
                <path d="M20.4444444,0 L2.55555556,0 C1.15,0 0,1.15 0,2.55555556 L0,20.4444444 C0,21.8512778 1.15,23 2.55555556,23 L11.5,23 L11.5,14.0555556 L8.94444444,14.0555556 L8.94444444,10.8930556 L11.5,10.8930556 L11.5,8.27361111 C11.5,5.5085 13.0486667,3.56627778 16.3121111,3.56627778 L18.6159444,3.56883333 L18.6159444,6.89744444 L17.0864444,6.89744444 C15.8163333,6.89744444 15.3333333,7.85066667 15.3333333,8.73488889 L15.3333333,10.8943333 L18.6146667,10.8943333 L17.8888889,14.0555556 L15.3333333,14.0555556 L15.3333333,23 L20.4444444,23 C21.85,23 23,21.8512778 23,20.4444444 L23,2.55555556 C23,1.15 21.85,0 20.4444444,0 Z" id="Path"></path>
            </g>
        </g>
    </g>
</svg>