<?xml version="1.0" encoding="UTF-8"?>
<svg width="23px" height="23px" viewBox="0 0 23 23" version="1.1" xmlns="http://www.w3.org/2000/svg" xmlns:xlink="http://www.w3.org/1999/xlink">
    <title>instagram-black</title>
    <g id="Symbols" stroke="none" stroke-width="1" fill="none" fill-rule="evenodd">
        <g id="Footer" transform="translate(0.000000, -16.000000)" fill="#000000" fill-rule="nonzero">
            <g id="instagram-black" transform="translate(0.000000, 16.000000)">
                <path d="M11.500023,0 C8.37678735,0 7.98516204,0.0132384167 6.75856485,0.0692046042 C5.53452402,0.125033271 4.69854781,0.319454187 3.967063,0.603758146 C3.21083642,0.897602792 2.56950921,1.29082565 1.93014467,1.93014467 C1.29082565,2.56950921 0.897602792,3.21083642 0.603758146,3.967063 C0.319454188,4.69854781 0.125033271,5.53452402 0.0692046042,6.75856485 C0.0132384167,7.98516204 0,8.37678735 0,11.500023 C0,14.6232126 0.0132384167,15.014838 0.0692046042,16.2414351 C0.125033271,17.465476 0.319454188,18.3014522 0.603758146,19.032937 C0.897602792,19.7891636 1.29082565,20.4304908 1.93014467,21.0698553 C2.56950921,21.7091744 3.21083642,22.1023972 3.967063,22.3962879 C4.69854781,22.6805458 5.53452402,22.8749667 6.75856485,22.9307954 C7.98516204,22.9867616 8.37678735,23 11.500023,23 C14.6232126,23 15.014838,22.9867616 16.2414351,22.9307954 C17.465476,22.8749667 18.3014522,22.6805458 19.032937,22.3962879 C19.7891636,22.1023972 20.4304908,21.7091744 21.0698553,21.0698553 C21.7091744,20.4304908 22.1023972,19.7891636 22.3962879,19.032937 C22.6805458,18.3014522 22.8749667,17.465476 22.9307954,16.2414351 C22.9867616,15.014838 23,14.6232126 23,11.500023 C23,8.37678735 22.9867616,7.98516204 22.9307954,6.75856485 C22.8749667,5.53452402 22.6805458,4.69854781 22.3962879,3.967063 C22.1023972,3.21083642 21.7091744,2.56950921 21.0698553,1.93014467 C20.4304908,1.29082565 19.7891636,0.897602792 19.032937,0.603758146 C18.3014522,0.319454187 17.465476,0.125033271 16.2414351,0.0692046042 C15.014838,0.0132384167 14.6232126,0 11.500023,0 Z M11.500023,2.07206856 C14.5706246,2.07206856 14.9343581,2.08380048 16.1469871,2.13912746 C17.2682256,2.19025454 17.877142,2.37759913 18.2823708,2.53508923 C18.8191611,2.7437069 19.2022505,2.99290663 19.604649,3.39535104 C20.0070934,3.79774946 20.2562931,4.1808389 20.4649108,4.71762919 C20.6224009,5.12285804 20.8097455,5.73177442 20.8608725,6.85301292 C20.9161995,8.06564192 20.9279314,8.42937542 20.9279314,11.500023 C20.9279314,14.5706246 20.9161995,14.9343581 20.8608725,16.1469871 C20.8097455,17.2682256 20.6224009,17.877142 20.4649108,18.2823708 C20.2562931,18.8191611 20.0070934,19.2022505 19.604649,19.604649 C19.2022505,20.0070934 18.8191611,20.2562931 18.2823708,20.4649108 C17.877142,20.6224009 17.2682256,20.8097455 16.1469871,20.8608725 C14.9345406,20.9161995 14.5708527,20.9279314 11.500023,20.9279314 C8.42914733,20.9279314 8.06550488,20.9161995 6.85301292,20.8608725 C5.73177442,20.8097455 5.12285804,20.6224009 4.71762919,20.4649108 C4.1808389,20.2562931 3.79774946,20.0070934 3.39535104,19.604649 C2.99295215,19.2022505 2.7437069,18.8191611 2.53508923,18.2823708 C2.37759913,17.877142 2.19025454,17.2682256 2.13912746,16.1469871 C2.08380048,14.9343581 2.07206856,14.5706246 2.07206856,11.500023 C2.07206856,8.42937542 2.08380048,8.06564192 2.13912746,6.85301292 C2.19025454,5.73177442 2.37759913,5.12285804 2.53508923,4.71762919 C2.7437069,4.1808389 2.99290662,3.79774946 3.39535104,3.39535104 C3.79774946,2.99290663 4.1808389,2.7437069 4.71762919,2.53508923 C5.12285804,2.37759913 5.73177442,2.19025454 6.85301292,2.13912746 C8.06564192,2.08380048 8.42937542,2.07206856 11.500023,2.07206856 Z M11.500023,5.5945981 C8.23851567,5.5945981 5.5945981,8.23851567 5.5945981,11.500023 C5.5945981,14.7614843 8.23851567,17.4054019 11.500023,17.4054019 C14.7614843,17.4054019 17.4054019,14.7614843 17.4054019,11.500023 C17.4054019,8.23851567 14.7614843,5.5945981 11.500023,5.5945981 Z M11.500023,15.3333333 C9.3828984,15.3333333 7.66666667,13.6171016 7.66666667,11.500023 C7.66666667,9.3828984 9.3828984,7.66666667 11.500023,7.66666667 C13.6171016,7.66666667 15.3333333,9.3828984 15.3333333,11.500023 C15.3333333,13.6171016 13.6171016,15.3333333 11.500023,15.3333333 Z M19.0187402,5.36128467 C19.0187402,6.12344573 18.4008764,6.74126358 17.6387153,6.74126358 C16.8765998,6.74126358 16.2587364,6.12344573 16.2587364,5.36128467 C16.2587364,4.5991236 16.8765998,3.98125975 17.6387153,3.98125975 C18.4008764,3.98125975 19.0187402,4.5991236 19.0187402,5.36128467 Z" id="Instagram"></path>
            </g>
        </g>
    </g>
</svg>