<?xml version="1.0" encoding="utf-8"?>
<!-- Generator: Adobe Illustrator 26.2.1, SVG Export Plug-In . SVG Version: 6.00 Build 0)  -->
<svg version="1.1" id="Layer_1" xmlns="http://www.w3.org/2000/svg" xmlns:xlink="http://www.w3.org/1999/xlink" x="0px" y="0px"
	 viewBox="0 0 426.9 535.3" style="enable-background:new 0 0 426.9 535.3;" xml:space="preserve">
<g>
	<path d="M162.5,344.5c-2.4,0-4.4,1.1-6,3.3l-27.5,41.1l-26.7-41.1c-0.6-1-1.6-1.8-2.9-2.4s-2.5-0.9-3.6-0.9c-2.1,0-3.9,0.7-5.5,2.2
		c-1.5,1.5-2.3,3.2-2.3,5.3v70.9c0,2.1,0.7,3.9,2,5.3c1.3,1.4,3,2.2,5,2.2c2.1,0,3.8-0.7,5.1-2.2c1.3-1.4,2-3.2,2-5.3v-50.5
		l20.2,31.9c0.7,0.9,1.7,1.7,2.8,2.3c1.1,0.7,2.2,1,3.3,0.9c1.1,0.1,2.3-0.2,3.4-0.9c1.1-0.6,2-1.4,2.8-2.3l20.2-30.8v49.3
		c0,2.1,0.7,3.9,2.2,5.3c1.4,1.4,3.3,2.2,5.6,2.2c2.3,0,4.1-0.7,5.5-2.2c1.4-1.4,2.1-3.2,2.1-5.3V352c0-2.2-0.8-4-2.3-5.4
		C166.3,345.2,164.5,344.5,162.5,344.5L162.5,344.5z"/>
	<path d="M255.7,356.4c-3.7-4-8.1-7.2-13.2-9.5c-5.1-2.3-10.7-3.4-16.7-3.4c-6,0-11.6,1.2-16.7,3.4c-5.1,2.3-9.5,5.4-13.2,9.5
		c-3.7,4-6.6,8.7-8.6,14c-2,5.3-3.1,11-3.1,17.1c0,6.1,1,11.8,3.1,17.1c2,5.3,4.9,10,8.6,14.1c3.7,4,8.1,7.2,13.2,9.5
		c5.1,2.3,10.6,3.4,16.7,3.4c6.1,0,11.6-1.2,16.7-3.4c5.1-2.3,9.5-5.5,13.2-9.5c3.7-4,6.6-8.7,8.6-14.1c2-5.3,3.1-11,3.1-17.1
		s-1-11.8-3.1-17.1C262.3,365.1,259.4,360.4,255.7,356.4z M248.2,402.4c-2.2,4.4-5.2,8-9.1,10.6c-3.8,2.6-8.3,3.9-13.4,3.9
		c-5.1,0-9.5-1.3-13.4-3.9c-3.9-2.6-6.8-6.2-9-10.6c-2.2-4.4-3.3-9.4-3.3-14.9c0-5.5,1.1-10.5,3.3-14.9c2.2-4.4,5.2-7.9,9-10.5
		c3.8-2.6,8.3-3.9,13.4-3.9c5.1,0,9.5,1.3,13.4,3.9c3.8,2.6,6.9,6.2,9.1,10.6c2.2,4.5,3.3,9.4,3.3,14.9
		C251.5,393,250.4,398,248.2,402.4L248.2,402.4z"/>
	<path d="M337,384.9c-1.5-0.9-3.1-1.2-4.7-1.8c3.5-1.6,6.1-3.7,7.9-6.5c1.9-2.9,2.8-6.3,2.8-10.1c0-7.2-1.9-12.6-5.8-16.3
		c-3.8-3.7-9.7-5.5-17.5-5.5H289c-2.1,0-3.9,0.7-5.3,2.2s-2.2,3.2-2.2,5.3V423c0,2.1,0.7,3.9,2.2,5.3c1.4,1.4,3.2,2.2,5.3,2.2h30.5
		c3,0,6.2-0.4,9.4-1.1c3.3-0.7,6.3-2,9.2-3.9c2.9-1.9,5.2-4.6,6.9-8c1.8-3.4,2.6-7.9,2.6-13.2c0-4.9-1-8.9-3-12.1
		C342.6,389.1,340.1,386.7,337,384.9L337,384.9z M324.5,361.5c1.8,1.6,2.6,4.1,2.6,7.7c0,2.9-0.9,5.2-2.8,6.7
		c-1.9,1.6-4,2.3-6.4,2.3h-20.6v-19.1h20.2C320.5,359.1,322.8,359.9,324.5,361.5L324.5,361.5z M328.4,413.3c-2.2,2-5.2,3-8.9,3
		h-22.1l0-23.7h21.2c1.7,0,3.6,0.2,5.6,0.6c2,0.4,3.8,1.4,5.3,3.1c1.5,1.6,2.2,4.3,2.2,7.9C331.7,408.3,330.6,411.3,328.4,413.3
		L328.4,413.3z"/>
	<path d="M369.6,344.7c-2.3,0-4.2,0.7-5.6,2.2c-1.5,1.4-2.2,3.2-2.2,5.3V423c0,2.1,0.7,3.9,2.1,5.3c1.4,1.4,3.2,2.2,5.5,2.2
		c2,0,3.8-0.7,5.4-2.2c1.5-1.4,2.3-3.2,2.3-5.3v-70.8c0-2.1-0.8-3.9-2.3-5.3S371.5,344.7,369.6,344.7L369.6,344.7z"/>
	<path d="M389.6,295h-8.2V130.2c0-6.9-1.5-13.5-4-19.6c-0.2-1.9-0.8-3.6-1.9-4.9c-0.7-1.4-1.6-2.7-2.5-4.1c-0.5-0.9-1-1.7-1.5-2.6
		c-1.7-2.4-3.6-4.7-5.6-6.8c-0.1-0.1-0.2-0.3-0.3-0.4l-60.9-60.9c-4.7-4.7-10.2-8.4-15.8-10.8c-0.1,0-0.1,0-0.2-0.1
		c0,0-0.1-0.1-0.1-0.1c0,0-0.1,0-0.1,0c-7-3.2-14.5-4.9-22.2-4.9H44c-16.6,0-30.1,13.5-30.1,30.1v447.3c0,16.6,13.5,30.1,30.1,30.1
		h307.3c16.6,0,30.1-13.5,30.1-30.1v-4.9h8.2c14.8,0,26.8-12,26.8-26.8V321.8C416.4,307.1,404.3,295,389.6,295L389.6,295z
		 M351.5,102.5h-48.9c-4.8,0-8.8-3.9-8.8-8.8V44.9L351.5,102.5z M363.9,492.4c0,6.9-5.7,12.6-12.6,12.6H44
		c-6.9,0-12.6-5.7-12.6-12.6V45.1c0-6.9,5.7-12.6,12.6-12.6h222.3c3.5,0,6.8,0.7,10.1,1.6v59.6c0,14.5,11.8,26.2,26.2,26.2h59.6
		c1,3.3,1.6,6.6,1.6,10.1V295H222.6c-2.5,0-4.8-1-6.6-2.7l-7-7c-5-5-11.8-7.8-19-7.8H75.6c-14.8,0-26.8,12-26.8,26.8v156.4
		c0,14.8,12,26.8,26.8,26.8l288.2,0L363.9,492.4z M398.9,460.8c0,5.1-4.2,9.3-9.3,9.3h-314c-5.1,0-9.3-4.2-9.3-9.3V304.3
		c0-5.1,4.2-9.3,9.3-9.3h114.5c2.5,0,4.8,1,6.6,2.7l7,7c5,5,11.8,7.8,19,7.8l150,0h17c5.1,0,9.3,4.2,9.3,9.3L398.9,460.8z"/>
	<path d="M75.1,85h157.5c4.8,0,8.8-3.9,8.8-8.8s-3.9-8.8-8.8-8.8H75.1c-4.8,0-8.8,3.9-8.8,8.8S70.3,85,75.1,85z"/>
	<path d="M75.1,137.5h157.5c4.8,0,8.8-3.9,8.8-8.8c0-4.8-3.9-8.8-8.8-8.8H75.1c-4.8,0-8.8,3.9-8.8,8.8
		C66.4,133.6,70.3,137.5,75.1,137.5z"/>
	<path d="M75.1,190h245c4.8,0,8.8-3.9,8.8-8.8s-3.9-8.8-8.8-8.8h-245c-4.8,0-8.8,3.9-8.8,8.8S70.3,190,75.1,190z"/>
	<path d="M75.1,242.5h245c4.8,0,8.8-3.9,8.8-8.8s-3.9-8.8-8.8-8.8h-245c-4.8,0-8.8,3.9-8.8,8.8S70.3,242.5,75.1,242.5z"/>
</g>
</svg>
