<?xml version="1.0" encoding="utf-8"?>
<!-- Generator: Adobe Illustrator 26.2.1, SVG Export Plug-In . SVG Version: 6.00 Build 0)  -->
<svg version="1.1" id="Layer_1" xmlns="http://www.w3.org/2000/svg" xmlns:xlink="http://www.w3.org/1999/xlink" x="0px" y="0px"
	 viewBox="0 0 433.7 555" style="enable-background:new 0 0 433.7 555;" xml:space="preserve">
<path d="M380.4,81.6c0.7,0.8,1.7,1.2,2.8,1.2c1.1,0,2.1-0.5,2.8-1.2l25.5-25.7c1-1.1,1.2-2.6,0.6-4c-0.6-1.3-1.9-2.2-3.4-2.2h-9.1
	l0-18.1c0-2-1.6-3.7-3.7-3.7h-25.3c-2,0-3.7,1.6-3.7,3.7v18.1h-9.1c-1.4,0-2.8,0.9-3.4,2.2c-0.6,1.3-0.4,2.9,0.6,4L380.4,81.6z"/>
<path d="M258.1,257c-10.5-11.7-20.9-24.9-30.3-36.7c-4.4-5.6-8.6-10.9-12.6-15.7l-0.3-0.4c5.8-16.5,9.1-30,9.8-40.1
	c1.9-25.8-1-42.5-8.8-50.8c-5.3-5.7-13.2-7.6-20.6-5.1c-5.3,1.8-12.6,6.6-16.7,19.2c-6.1,18.8-3.2,52.2,14.3,79.8
	c-7.8,20.4-18.7,43.9-30.7,66.3c-22.9,8-41.1,18.6-54.2,31.4C90.9,321.5,84,338,89,350.2c3.1,7.5,10.1,12.1,18.9,12.1
	c6.1,0,12.8-2.2,19.2-6.4c16.2-10.6,37.3-45.8,48.7-66.3c23.5-7.3,46.6-10.3,58.4-11.5c5.3-0.5,10.6-0.9,15.7-1.2
	c20.6,21.8,37.5,33.2,53,36.1c3.1,0.6,6.2,0.9,9.3,0.9c12.7,0,23.1-5,28-13.5c3.7-6.4,3.6-13.8-0.2-20.4
	c-8.6-14.9-34.6-23.1-73.2-23.1C263.9,256.8,261.1,256.9,258.1,257L258.1,257z M116.3,339.5c-3.1,2-6.2,3.2-8.4,3.2
	c-0.4,0-0.7,0-0.9-0.1c-0.4-2,1-10.4,14.7-23.8c6.4-6.3,14.6-12,24.2-17.1C133.8,321.2,122.8,335.2,116.3,339.5L116.3,339.5z
	 M197.2,133.4c1.4-4.4,3.2-6.4,4.3-6.7c0,0,0.1,0,0.1,0c1.1,1.2,5.6,8,3.6,36c-0.4,4.9-1.5,11-3.5,18.4
	C195.1,164.2,193.3,145.5,197.2,133.4L197.2,133.4z M232.3,258.6c-10.4,1-26.3,3.1-44,7.3c6.9-13.7,13.2-27.6,18.5-40.5
	c1.8,2.3,3.7,4.7,5.6,7.1c6.4,8.1,13.6,17.2,21.1,26L232.3,258.6z M322.9,289.7c0.3,0.5,0.3,0.7,0.2,0.8c-0.8,1.4-4.5,3.7-11,3.7
	c-1.8,0-3.7-0.2-5.7-0.6c-8.1-1.5-17.5-7.1-28.8-17.1C308.1,278.1,320.4,285.5,322.9,289.7L322.9,289.7z"/>
<path d="M299.6,28H46.1c-15.5,0-28.2,12.6-28.2,28.2v447.6c0,15.6,12.6,28.2,28.2,28.2h338.1c15.6,0,28.2-12.6,28.2-28.2V140.7
	L299.6,28z M299.6,67.8l72.9,72.9h-72.9V67.8z M384.2,503.8H46.1V56.2h225.4v84.5c0,15.6,12.6,28.2,28.2,28.2h84.5L384.2,503.8
	L384.2,503.8z"/>
<path d="M168.6,388.4c-2.3-2-5.1-3.5-8.2-4.4c-3.1-0.9-7.5-1.3-13.2-1.3h-18.8c-3.6,0-6.3,0.8-8,2.4c-1.8,1.6-2.7,4.3-2.7,7.9v55.6
	c0,3.2,0.8,5.8,2.4,7.5c1.6,1.8,3.7,2.7,6.4,2.7c2.5,0,4.6-0.9,6.2-2.7c1.6-1.8,2.4-4.3,2.4-7.6v-19h12c9.3,0,16.4-2,21.1-6
	c4.8-4,7.3-10,7.3-17.8c0-3.6-0.6-6.9-1.8-9.8C172.6,393,170.9,390.4,168.6,388.4L168.6,388.4z M156.4,411.6c-1,1.4-2.5,2.4-4.6,3
	c-2.2,0.7-4.9,1-8.2,1h-8.4v-19.3h8.4c7.6,0,10.7,1.5,11.9,2.8c1.6,1.7,2.4,4,2.4,6.8C158,408.4,157.5,410.3,156.4,411.6
	L156.4,411.6z"/>
<path d="M237.8,389.6c-3-2.7-6.5-4.5-10.2-5.5c-3.6-0.9-8.1-1.4-13.1-1.4h-19c-3.5,0-6.2,0.8-7.8,2.5c-1.7,1.7-2.5,4.3-2.5,7.8v52.9
	c0,2.5,0.2,4.5,0.7,6.1c0.5,1.8,1.6,3.2,3.3,4.2c1.6,1,3.8,1.4,6.7,1.4h19c3.4,0,6.5-0.2,9.2-0.7c2.8-0.4,5.4-1.2,7.8-2.3
	c2.4-1.1,4.7-2.6,6.7-4.4c2.6-2.4,4.7-5.1,6.3-8.1c1.6-3,2.9-6.4,3.6-10.1c0.8-3.7,1.2-7.7,1.2-12.2
	C249.6,406.5,245.6,396.2,237.8,389.6L237.8,389.6z M225.1,440.2c-0.9,0.8-2.1,1.5-3.4,1.9c-1.4,0.5-2.7,0.8-3.9,0.9
	c-1.3,0.1-3.2,0.2-5.6,0.2h-9.7V397h8.2c4.3,0,8,0.5,11,1.4c2.8,0.9,5.2,2.9,7.2,6.2c2,3.3,3,8.4,3,15.3
	C232,429.5,229.7,436.3,225.1,440.2L225.1,440.2z"/>
<path d="M304.2,382.7h-34.5c-2.3,0-4.2,0.3-5.7,1c-1.6,0.7-2.8,1.9-3.6,3.6c-0.7,1.5-1.1,3.4-1.1,5.7v55.5c0,3.3,0.8,5.9,2.4,7.6
	c1.6,1.8,3.8,2.7,6.3,2.7c2.5,0,4.6-0.9,6.3-2.6c1.6-1.7,2.4-4.3,2.4-7.7v-22.4h22.7c2.5,0,4.5-0.6,5.9-1.8c1.4-1.3,2.2-3,2.2-5
	c0-2.1-0.7-3.8-2.1-5c-1.4-1.2-3.4-1.9-5.9-1.9h-22.7v-15.7h27.4c2.7,0,4.8-0.6,6.1-1.9c1.4-1.3,2.2-3,2.2-5.1
	c0-2.1-0.7-3.8-2.2-5.1C308.9,383.3,306.8,382.7,304.2,382.7L304.2,382.7z"/>
</svg>
