<?xml version="1.0" encoding="UTF-8"?>
<svg width="40px" height="40px" viewBox="0 0 40 40" version="1.1" xmlns="http://www.w3.org/2000/svg" xmlns:xlink="http://www.w3.org/1999/xlink">
    <title>play-circle copy</title>
    <defs>
        <filter id="filter-1">
            <feColorMatrix in="SourceGraphic" type="matrix" values="0 0 0 0 1.000000 0 0 0 0 1.000000 0 0 0 0 1.000000 0 0 0 1.000000 0"></feColorMatrix>
        </filter>
    </defs>
    <g id="Page-1" stroke="none" stroke-width="1" fill="none" fill-rule="evenodd">
        <g id="play-circle-copy" transform="translate(-702.000000, -1629.000000)" filter="url(#filter-1)">
            <g transform="translate(702.000000, 1629.000000)">
                <path d="M20,0 C23.6284717,0 26.9748264,0.894096025 30.0390623,2.68229119 C33.1032983,4.47048635 35.5295138,6.89670041 37.3177074,9.96093805 C39.1059025,13.0251741 40,16.3715273 40,20 C40,23.6284727 39.1059025,26.9748274 37.3177074,30.0390635 C35.5295138,33.1032996 33.1032983,35.5295152 30.0390623,37.3177088 C26.9748264,39.105904 23.6284717,40 20,40 C16.3715283,40 13.0251736,39.105904 9.96093767,37.3177088 C6.8967017,35.5295152 4.47048617,33.1032996 2.68229108,30.0390635 C0.894097546,26.9748274 0,23.6284727 0,20 C0,16.3715273 0.894097546,13.0251741 2.68229108,9.96093805 C4.47048617,6.89670041 6.8967017,4.47048635 9.96093767,2.68229119 C13.0251736,0.894096025 16.3715283,0 20,0 Z M29.9999992,21.4322926 C30.555555,21.1197924 30.8333339,20.6423612 30.8333339,20.0000008 C30.8333339,19.3576388 30.555555,18.8802076 29.9999992,18.567709 L15.8333339,10.2343752 C15.2951383,9.90451339 14.7395825,9.89583339 14.1666667,10.2083336 C13.611111,10.5381938 13.3333339,11.024305 13.3333339,11.666667 L13.3333339,28.333333 C13.3333339,28.975695 13.611111,29.4618062 14.1666667,29.7916664 C14.4444438,29.9305557 14.7222225,30.0000004 14.9999996,30.0000004 C15.2951383,30.0000004 15.5729169,29.9218757 15.8333339,29.7656248 L29.9999992,21.4322926 Z" id="Shape" fill="#000000" fill-rule="nonzero"></path>
            </g>
        </g>
    </g>
</svg>