<?xml version="1.0" encoding="UTF-8"?>
<svg width="19px" height="18px" viewBox="0 0 19 18" version="1.1" xmlns="http://www.w3.org/2000/svg" xmlns:xlink="http://www.w3.org/1999/xlink">
    <title>Shape</title>
    <g id="Symbols" stroke="none" stroke-width="1" fill="none" fill-rule="evenodd">
        <g id="Header" transform="translate(-1362.000000, -48.000000)" fill="#CCCCCC" fill-rule="nonzero">
            <g id="Group-2" transform="translate(0.000000, 35.000000)">
                <path d="M1369.25,26.5 C1365.5285,26.5 1362.5,23.47225 1362.5,19.75 C1362.5,16.0285 1365.5285,13 1369.25,13 C1372.97225,13 1376,16.0285 1376,19.75 C1376,23.47225 1372.97225,26.5 1369.25,26.5 Z M1369.25,14.5 C1366.355,14.5 1364,16.855 1364,19.75 C1364,22.645 1366.355,25 1369.25,25 C1372.145,25 1374.5,22.645 1374.5,19.75 C1374.5,16.855 1372.145,14.5 1369.25,14.5 Z M1379.75,31 C1379.558,31 1379.366,30.9265 1379.21975,30.78025 L1373.21975,24.78025 C1372.9265,24.487 1372.9265,24.013 1373.21975,23.71975 C1373.513,23.4265 1373.987,23.4265 1374.28025,23.71975 L1380.28025,29.71975 C1380.5735,30.013 1380.5735,30.487 1380.28025,30.78025 C1380.134,30.9265 1379.942,31 1379.75,31 Z" id="Shape"></path>
            </g>
        </g>
    </g>
</svg>