<?xml version="1.0" encoding="UTF-8"?>
<svg width="23px" height="19px" viewBox="0 0 23 19" version="1.1" xmlns="http://www.w3.org/2000/svg" xmlns:xlink="http://www.w3.org/1999/xlink">
    <title>twitter-black</title>
    <g id="Symbols" stroke="none" stroke-width="1" fill="none" fill-rule="evenodd">
        <g id="Footer" transform="translate(-115.000000, -18.000000)" fill="#000000" fill-rule="nonzero">
            <g id="twitter-black" transform="translate(115.000000, 18.000000)">
                <path d="M23,2.24925943 C22.1548981,2.63076945 21.244996,2.88876855 20.2905439,3.00404488 C21.2652461,2.41119547 22.0131476,1.47114483 22.3654985,0.351318075 C21.4528969,0.900252775 20.4444446,1.29960285 19.3671423,1.51368725 C18.5085404,0.581870725 17.2813873,0 15.9232848,0 C13.3191289,0 11.2063743,2.1477068 11.2063743,4.7963163 C11.2063743,5.17233675 11.2468745,5.53737805 11.3278747,5.88869613 C7.40611596,5.68833495 3.92985858,3.7807872 1.60110331,0.875550875 C1.19475273,1.58642115 0.962551917,2.41119547 0.962551917,3.2894909 C0.962551917,4.95276278 1.7955041,6.42116305 3.06180648,7.28161795 C2.28960496,7.25828833 1.56060319,7.04008663 0.923402083,6.68327898 L0.923402083,6.74228965 C0.923402083,9.067028 2.55015567,11.0061395 4.71016042,11.445287 C4.31460929,11.5578187 3.89745829,11.6140844 3.46680773,11.6140844 C3.16305679,11.6140844 2.86605635,11.5852657 2.57850556,11.5289996 C3.17925694,13.4338027 4.92076087,14.821235 6.98626533,14.8582883 C5.3716615,16.1455398 3.33585723,16.9126762 1.12590223,16.9126762 C0.745201438,16.9126762 0.368550563,16.8907188 0,16.8468041 C2.08845463,18.2054171 4.56975979,19 7.23331552,19 C15.9138346,19 20.659095,11.6923079 20.659095,5.35348513 C20.659095,5.14488982 20.6550451,4.93629453 20.6469447,4.73181652 C21.568997,4.05525455 22.3695484,3.21126742 23,2.24925943" id="Twitter"></path>
            </g>
        </g>
    </g>
</svg>