<svg xmlns="http://www.w3.org/2000/svg" xmlns:xlink="http://www.w3.org/1999/xlink" version="1.1" x="0px" y="0px" viewBox="0 0 100 125" style="enable-background:new 0 0 100 100;" xml:space="preserve"><path d="M74.82,25.18c-3.22-3.22-6.98-5.75-11.16-7.52C59.34,15.83,54.74,14.9,50,14.9s-9.34,0.93-13.66,2.76  c-4.18,1.77-7.93,4.3-11.16,7.52c-3.22,3.22-5.75,6.98-7.52,11.16C15.83,40.66,14.9,45.26,14.9,50s0.93,9.34,2.76,13.66  c1.77,4.18,4.3,7.93,7.52,11.16c3.22,3.22,6.98,5.75,11.16,7.52c4.33,1.83,8.93,2.76,13.66,2.76s9.34-0.93,13.66-2.76  c4.18-1.77,7.93-4.3,11.16-7.52c3.22-3.22,5.75-6.98,7.52-11.16c1.83-4.33,2.76-8.93,2.76-13.66s-0.93-9.34-2.76-13.66  C80.58,32.16,78.05,28.4,74.82,25.18z M40.39,19.14c-1.76,1.67-3.35,3.8-4.76,6.35c-1.06,1.92-1.98,4.03-2.75,6.27h-9.55  C27.4,25.84,33.38,21.33,40.39,19.14z M21.62,34.55h10.4c-1.2,4.34-1.88,9.11-1.99,14.05H17.71C17.93,43.53,19.32,38.76,21.62,34.55  z M17.71,51.39h12.31c0.11,4.95,0.79,9.71,1.99,14.05h-10.4C19.32,61.24,17.93,56.47,17.71,51.39z M23.33,68.23h9.55  c0.77,2.25,1.69,4.35,2.75,6.27c1.4,2.55,3,4.67,4.76,6.35C33.38,78.67,27.4,74.16,23.33,68.23z M48.61,82.21  c-3.92-0.61-7.62-3.76-10.53-9.05c-0.84-1.52-1.59-3.17-2.24-4.93h12.77V82.21z M48.61,65.45H34.91c-1.26-4.29-1.98-9.07-2.1-14.05  h15.79V65.45z M48.61,48.61H32.82c0.11-4.98,0.83-9.76,2.1-14.05h13.69V48.61z M48.61,31.77H35.84c0.65-1.75,1.4-3.4,2.24-4.93  c2.91-5.28,6.61-8.44,10.53-9.05V31.77z M76.67,31.77h-9.55c-0.77-2.25-1.69-4.35-2.75-6.27c-1.4-2.55-3-4.67-4.76-6.35  C66.62,21.33,72.6,25.84,76.67,31.77z M51.39,17.79c3.92,0.61,7.62,3.76,10.53,9.05c0.84,1.52,1.59,3.17,2.24,4.93H51.39V17.79z   M51.39,34.55h13.69c1.26,4.29,1.98,9.07,2.1,14.05H51.39V34.55z M51.39,51.39h15.79c-0.11,4.98-0.83,9.76-2.1,14.05H51.39V51.39z   M51.39,82.21V68.23h12.77c-0.65,1.75-1.4,3.4-2.24,4.93C59.01,78.44,55.32,81.6,51.39,82.21z M59.61,80.86  c1.76-1.67,3.35-3.8,4.76-6.35c1.06-1.92,1.98-4.03,2.75-6.27h9.55C72.6,74.16,66.62,78.67,59.61,80.86z M78.38,65.45h-10.4  c1.2-4.34,1.88-9.11,1.99-14.05h12.31C82.07,56.47,80.68,61.24,78.38,65.45z M69.97,48.61c-0.11-4.95-0.79-9.71-1.99-14.05h10.4  c2.3,4.21,3.69,8.98,3.91,14.05H69.97z"/></svg>