<?xml version="1.0" encoding="UTF-8"?>
<svg width="28px" height="21px" viewBox="0 0 28 21" version="1.1" xmlns="http://www.w3.org/2000/svg" xmlns:xlink="http://www.w3.org/1999/xlink">
    <title>youtube-black</title>
    <g id="Symbols" stroke="none" stroke-width="1" fill="none" fill-rule="evenodd">
        <g id="Footer" transform="translate(-173.000000, -17.000000)" fill="#000000" fill-rule="nonzero">
            <g id="youtube-black" transform="translate(173.000000, 17.000000)">
                <path d="M11.109,14.3725952 L11.108125,5.98360535 L18.673375,10.1925625 L11.109,14.3725952 Z M27.72,4.52992421 C27.72,4.52992421 27.446125,2.47256409 26.607,1.566579 C25.542125,0.376949382 24.348625,0.371351029 23.80175,0.302306118 C19.8835,0 14.006125,0 14.006125,0 L13.993875,0 C13.993875,0 8.1165,0 4.19825,0.302306118 C3.6505,0.371351029 2.457875,0.376949382 1.392125,1.566579 C0.553,2.47256409 0.28,4.52992421 0.28,4.52992421 C0.28,4.52992421 0,6.94650538 0,9.36215391 L0,11.6275826 C0,14.0441638 0.28,16.4598124 0.28,16.4598124 C0.28,16.4598124 0.553,18.5171725 1.392125,19.4231569 C2.457875,20.6127872 3.857,20.5754652 4.48,20.6995604 C6.72,20.9290886 14,21 14,21 C14,21 19.8835,20.9906698 23.80175,20.6883637 C24.348625,20.6183855 25.542125,20.6127872 26.607,19.4231569 C27.446125,18.5171725 27.72,16.4598124 27.72,16.4598124 C27.72,16.4598124 28,14.0441638 28,11.6275826 L28,9.36215391 C28,6.94650538 27.72,4.52992421 27.72,4.52992421 L27.72,4.52992421 Z" id="Youtube"></path>
            </g>
        </g>
    </g>
</svg>