<svg version="1.0" xmlns="http://www.w3.org/2000/svg" width="345.333" height="345.333" viewBox="0 0 259 259"><path d="M123.7 27.2c-3 4-6.5 9.3-7.7 11.8-1.2 2.5-2.4 4.6-2.5 4.8-.2.2-3.2-1.9-6.7-4.6C101.1 34.7 90.2 28 88.7 28c-1.2 0-4.6 13-5.7 21.2-.5 4.4-1.1 8.3-1.3 8.5-.2.2-2.2-.3-4.4-1.1-4.5-1.6-12.3-3.2-20.2-4.1l-5.4-.6.6 7.3c.4 4 1.6 10.6 2.7 14.5 1.1 4 2 7.5 2 7.8 0 .3-1.7.5-3.9.5-4.5 0-12.5 1.4-19.9 3.6l-5.3 1.5 4.2 7.9c2.4 4.4 6.2 10.2 8.6 12.9 4.6 5.3 5 6.1 3 6.1-1.7 0-16.2 9.1-20.6 13-3.4 2.9-3.5 3-1.5 5.1 2.6 2.9 12.9 10.1 18.1 12.8L44 147l-4.9 6.1c-6 7.4-11.7 17.7-10.4 19 1.3 1.3 14.9 4.6 22.5 5.3l6.7.7-1.4 4c-1.8 4.9-4.5 19.1-4.5 23.2v3l7.3-.6c3.9-.4 10.3-1.5 14.2-2.6 3.8-1.1 7.1-1.8 7.3-1.6.2.2.8 3.9 1.3 8.2 1 7.8 2.2 13.3 4 18l.9 2.4 6.9-3.6c3.7-2 9.6-5.8 12.9-8.5l6-4.8 3.4 6.5c3.4 6.7 11.4 17.4 13.5 18 1.6.6 9.5-9.7 13.5-17.4l3.2-6.1 6.1 4.8c6.2 4.9 16.3 11 18.3 11 1.7 0 5.1-12.2 5.8-20.4.8-10.1.6-9.8 5.6-8 5.5 2 17.9 4.4 22.5 4.4h3.6l-.7-7.5c-.4-4.2-1.6-10.5-2.7-14.1-1.1-3.6-1.9-6.7-1.7-6.9.2-.2 3.9-.8 8.3-1.4 8.6-1.2 19.3-3.9 20-5.1.6-1-8.2-15.6-12.9-21.3l-3.7-4.5 6.8-3.6c7.4-3.9 18.3-12 18.3-13.6 0-1.4-14.7-12.1-19.7-14.4l-4.2-1.8 5.5-7.2c3-3.9 6.6-9.5 8.2-12.4 2.3-4.5 2.5-5.4 1.2-6.2-2.6-1.7-18.6-5-23.9-5-2.8 0-5.1-.2-5.1-.3 0-.2.9-2.9 1.9-5.9 1.9-5.6 4.1-17.5 4.1-22.4v-2.6l-6.7.7c-3.8.4-10.1 1.6-14.2 2.6S179.4 57 179 57c-.4 0-1-3.5-1.3-7.8-.6-7.5-3.1-17.9-4.7-19.5-1.1-1.2-11.7 4.4-19.3 10.2l-6.5 5-3.2-5.7c-3.6-6.3-13-19.2-14.1-19.2-.4 0-3.2 3.3-6.2 7.2zm10.3 9c8.4 12.9 12.5 28.6 11.7 44.7-.3 5.8-.9 11.7-1.3 13.1-.5 1.9 0 1.5 2.1-1.5 4.6-6.9 15.7-17.4 23-22C176.6 66 192.7 60 197.4 60c3.3 0 3.4 2.2.5 11.6-5.1 16.6-14.7 30.1-29.4 41.2l-3 2.3 4.5-.7c8.5-1.4 23.2-.6 31.4 1.5 8.7 2.3 20.4 7.7 25.1 11.6l3 2.5-2.5 2c-4.7 3.8-20.5 10.8-28.1 12.5-8.6 1.9-18.4 2.3-27.4 1.2l-6-.8 3 2.2c7.8 5.7 19.1 18.6 23.2 26.4 4.5 8.7 8.3 20 8.3 24.6 0 2.7-.2 2.8-3.2 2.3-17.9-3.3-35.4-13.9-46.9-28.4-2.8-3.6-5.3-6.6-5.4-6.8-.2-.2.1 1.4.6 3.5s.9 8.6.9 14.4c0 15.6-4.1 29.7-12.3 41.9l-3.5 5.2-3.2-4.6c-8.3-12.2-13-27.6-13-42.5.1-5.3.5-11.5.9-13.9.5-2.4.6-4 .2-3.5-.4.4-2.7 3.4-5.1 6.6-9.3 12.4-25.3 22.7-41.8 26.8-4.6 1.1-8.5 1.9-8.7 1.7-.8-.8 2.4-13.6 4.9-19.8 1.4-3.5 4.4-9.2 6.6-12.5 3.8-5.9 15.5-18 21-21.8l2.5-1.7-4 .7c-7.3 1.3-23.7.7-31-1.1-7.7-2-21.1-8-26.4-12l-3.3-2.5 6.2-4c7.3-4.7 19-9.4 27.7-11.1 6.5-1.3 26.1-.9 29.8.5 1.1.5-.2-.9-3-3-16.6-12.6-27-29.2-31-49.3-.6-2.9-.4-3.2 1.7-3.2 4.8 0 14.5 3.1 23.7 7.6 7.5 3.7 10.9 6.2 17.5 12.7 4.6 4.5 9.3 9.5 10.5 11.2l2.2 3-.7-4.5c-2.3-14.5.5-32.8 6.7-45.3 3.6-6.9 7.9-13.7 8.8-13.7.3 0 2.2 2.4 4.1 5.2zm-34.6 6.2c3.3 2.4 7.1 5.5 8.4 6.8 2.2 2.4 2.2 2.6.7 8.9-.8 3.5-1.5 8.3-1.5 10.6 0 4.5-.9 5.3-3 2.8-.7-.8-4.4-3.6-8.2-6.1l-7-4.7.7-6.1C90.3 46.7 92 38 92.7 38c.3 0 3.3 2 6.7 4.4zm70-1.9c1 2.7 2.6 18.2 2.1 19.7-.3.8-2 2.2-3.8 3-1.8.9-5.7 3.4-8.7 5.7l-5.5 4.1-.7-5.2c-.4-2.9-1.1-7.3-1.7-9.8-1-4.4-.9-4.6 2.7-8.4C157.3 46 166.7 39 168.1 39c.4 0 .9.7 1.3 1.5zM65.2 95.3c2.6 3.9 5.5 8.2 6.4 9.4 1.6 2.3 1.6 2.3-2.2 2.3-2.2 0-6.8.7-10.4 1.6l-6.5 1.5-3.7-4.1c-4-4.5-9.8-12.8-9.8-14.2 0-.9 3-1.7 10.3-2.8 11-1.6 10.7-1.7 15.9 6.3zm150.5-4.2c3.5.6 6.3 1.5 6.3 1.9 0 1.2-8.3 12.1-11.2 14.8-2.6 2.3-2.6 2.3-10.1.8-4.2-.9-9-1.6-10.7-1.6h-3.2l3.2-4.3c1.8-2.3 4.4-6.1 5.9-8.5 2.5-4.1 2.7-4.2 8-4.2 3 0 8.3.5 11.8 1.1zM58.5 151.5c3.9.8 8.7 1.5 10.8 1.5 4 0 4.7 1 2 3.1-.9.8-3.6 4.5-6.1 8.3l-4.4 6.8-6.2-.6c-8.7-.9-16.6-2.6-16.6-3.5 0-1.4 12.4-17.1 13.4-17.1.1 0 3.3.7 7.1 1.5zm159.2 11.3c2.2 3.1 3.3 5.6 2.7 6.1-1.1 1.1-12.7 3.1-17.7 3.1-3.2 0-3.9-.4-5.6-3.8-1.1-2.1-3.8-6.2-6-9-4-5-4-5.2-1.9-5.6 1.3-.2 5.7-1 9.8-1.8l7.5-1.4 3.8 3.6c2.1 1.9 5.4 5.9 7.4 8.8zm-108.9 40.5c1 3.6 1 3.7-4.8 9-3.1 2.9-7.3 6.3-9.3 7.5-4.2 2.4-4 2.7-5.7-7.8-1.7-11.2-1.5-12.3 2.9-14.8 2.2-1.3 6.4-4.1 9.3-6.3l5.3-4 .6 6.4c.4 3.5 1.2 8 1.7 10zm52.5-10.3c10 6.9 9.5 6.3 9 11.7-.6 7-2.4 17.3-3.1 17.3-1.4 0-10.1-6.3-13.6-9.8l-3.8-4 1.6-7c.9-3.9 1.6-8.5 1.6-10.1 0-1.7.2-3.1.5-3.1s3.8 2.2 7.8 5z"/><path d="M119.1 108.6c-17.8 8.9-16.9 35.3 1.4 43 5.8 2.4 15 2.2 20.1-.4 8.6-4.4 14.2-14.2 13.1-23.1-2-17.3-19.4-27-34.6-19.5zm17.5 6.3c13 5.9 13.8 23.6 1.4 29.8-6.2 3.2-11.5 3-17.1-.6-9.7-6.1-10.7-18.2-2.2-26.3 5.3-5.1 11.1-6 17.9-2.9z"/></svg>