<?xml version="1.0" encoding="utf-8"?>
<!-- Generator: Adobe Illustrator 26.2.1, SVG Export Plug-In . SVG Version: 6.00 Build 0)  -->
<svg version="1.1" id="Layer_1" xmlns="http://www.w3.org/2000/svg" xmlns:xlink="http://www.w3.org/1999/xlink" x="0px" y="0px"
	 viewBox="0 0 1280 259.5" style="enable-background:new 0 0 1280 259.5;" xml:space="preserve">
<style type="text/css">
	.st0{fill:#DA501A;}
	.st1{fill:#0E0E0E;}
</style>
<g>
	<g>
		<path class="st0" d="M872.9,131.3l2.2-1.9l-2.2-1.9c-3.1-2.7-6.4-5.1-9.9-7.2c-2.1-1.2-4.3-2.3-6.5-3.2c1.7-1.7,3.3-3.5,4.8-5.4
			c2.5-3.2,4.7-6.7,6.5-10.4l1.3-2.6l-2.8-1c-3.9-1.3-7.9-2.3-11.9-2.9c-2.7-0.4-5.4-0.5-8.1-0.6c1-2.5,1.9-5.1,2.6-7.7
			c1.1-3.9,1.7-8,2-12.1l0.2-2.9l-3,0.2c-4.1,0.3-8.1,0.9-12.1,2c-2.3,0.6-4.6,1.4-6.9,2.3c0-2.4-0.2-4.8-0.5-7.2
			c-0.5-4-1.4-8-2.7-11.9l-0.9-2.8l-2.6,1.3c-3.7,1.8-7.2,3.9-10.5,6.4c-2.2,1.6-4.2,3.4-6.1,5.3c-1-2.5-2.2-5-3.6-7.3
			c-2-3.5-4.5-6.8-7.2-9.9l-1.9-2.2l-1.9,2.2c-2.7,3.1-5.1,6.4-7.2,9.9c-1.2,2.1-2.3,4.3-3.3,6.5c-1.7-1.7-3.5-3.3-5.4-4.8
			c-3.2-2.5-6.7-4.7-10.3-6.5l-2.6-1.3l-1,2.8c-1.4,3.9-2.3,7.9-2.9,11.9c-0.4,2.7-0.6,5.4-0.6,8.1c-2.5-1-5.1-1.9-7.7-2.6
			c-3.9-1.1-8-1.7-12.1-2l-2.9-0.2l0.2,2.9c0.3,4.1,0.9,8.1,2,12.1c0.6,2.3,1.4,4.6,2.3,6.9c-2.4,0-4.8,0.2-7.2,0.5
			c-4,0.5-8.1,1.4-12,2.7l-2.8,0.9l1.3,2.6c1.8,3.7,3.9,7.2,6.4,10.5c1.6,2.2,3.4,4.2,5.3,6.1c-2.5,1-5,2.2-7.3,3.6
			c-3.5,2-6.9,4.5-9.9,7.2l-2.2,1.9l2.2,1.9c3.1,2.7,6.4,5.1,9.9,7.2c2.1,1.2,4.3,2.3,6.5,3.2c-1.7,1.7-3.3,3.5-4.8,5.4
			c-2.5,3.2-4.7,6.7-6.5,10.3l-1.3,2.6l2.8,1c3.9,1.4,7.9,2.3,11.9,2.9c2.7,0.4,5.4,0.6,8.1,0.6c-1,2.5-1.9,5.1-2.6,7.7
			c-1,3.9-1.7,8-2,12.1l-0.2,2.9l2.9-0.2c4.1-0.3,8.2-0.9,12.1-2c2.3-0.6,4.6-1.4,6.9-2.3c0,2.4,0.2,4.8,0.5,7.2
			c0.5,4,1.4,8.1,2.7,12l0.9,2.8l2.6-1.3c3.7-1.8,7.2-3.9,10.5-6.4c2.2-1.6,4.2-3.4,6.1-5.3c1,2.5,2.2,4.9,3.6,7.3
			c2,3.5,4.4,6.9,7.2,9.9l1.9,2.2l1.9-2.2c2.7-3.1,5.1-6.4,7.2-9.9c1.2-2.1,2.3-4.3,3.2-6.5c1.7,1.7,3.5,3.3,5.4,4.8
			c3.2,2.5,6.7,4.7,10.4,6.5l2.6,1.3l1-2.8c1.3-3.9,2.3-7.9,2.9-11.9c0.4-2.7,0.6-5.4,0.6-8.1c2.5,1,5.1,1.9,7.7,2.6
			c3.9,1,8,1.7,12.1,2l3,0.2l-0.2-2.9c-0.3-4.1-0.9-8.2-2-12.1c-0.6-2.3-1.4-4.6-2.3-6.9c2.4,0,4.8-0.2,7.2-0.5
			c4-0.5,8-1.4,11.9-2.7l2.8-0.9l-1.3-2.6c-1.8-3.7-3.9-7.2-6.4-10.5c-1.6-2.2-3.4-4.3-5.3-6.2c2.5-1,5-2.2,7.3-3.6
			C866.5,136.4,869.8,134.1,872.9,131.3z M856.8,151.4c1.6,2.2,3.1,4.5,4.4,6.9c-2.6,0.7-5.3,1.2-8,1.6c-3,0.4-6,0.5-8.9,0.4
			c-2.5-4.9-5.7-9.5-9.4-13.5c5.2-0.2,10.4-1.1,15.3-2.6C852.6,146.3,854.8,148.7,856.8,151.4z M848.5,139.1L848.5,139.1
			c-1.1,0.3-2.1,0.6-3.2,0.9c-4.3,1-8.7,1.6-13.1,1.6c-0.9,0-1.8,0-2.6-0.1c-1.6-0.1-3.1-0.2-4.7-0.4c0,0,0,0,0,0
			c-2.2-0.3-4.4-0.7-6.5-1.2c1.9,1.1,3.7,2.4,5.5,3.7l0,0c1.2,1,2.4,2,3.6,3c0.6,0.6,1.3,1.2,1.9,1.8c3.4,3.4,6.3,7.2,8.7,11.3
			c0.6,0.9,1.1,1.8,1.6,2.8c0.5,0.9,0.9,1.8,1.3,2.7c1.2,2.7,2.2,5.5,3,8.5c0.7,2.6,1.2,5.3,1.5,8.1c-2.7-0.3-5.4-0.8-8-1.5
			c-3.2-0.9-6.3-2-9.3-3.4c-0.9-0.4-1.8-0.9-2.7-1.3c-0.9-0.5-1.9-1.1-2.8-1.7c-3.8-2.3-7.3-5.1-10.4-8.2c-0.6-0.6-1.3-1.3-1.8-2
			c-1.1-1.1-2-2.3-3-3.5c-1.4-1.8-2.6-3.7-3.8-5.6c0.5,2.2,1,4.4,1.2,6.6v0c0.2,1.6,0.4,3.1,0.4,4.7c0.1,0.9,0.1,1.8,0.1,2.7
			c0,4.8-0.6,9.5-1.8,14.1c-0.3,1.1-0.6,2.1-0.9,3.1c-0.3,1-0.6,1.9-1,2.9c-1.1,2.8-2.3,5.5-3.8,8.1c-1.4,2.4-2.9,4.6-4.6,6.8
			c-1.7-2.2-3.2-4.4-4.6-6.8c-1.7-2.9-3.1-5.9-4.2-9c-0.3-1-0.7-1.9-1-2.9v0c-0.3-1-0.6-2.1-0.9-3.2c-1-4.3-1.6-8.7-1.6-13.1
			c0-0.9,0-1.8,0.1-2.7c0.1-1.6,0.2-3.1,0.4-4.6v0c0.3-2.2,0.7-4.4,1.2-6.5c-1.1,1.9-2.4,3.8-3.7,5.5c-1,1.2-1.9,2.4-3,3.5
			c-0.6,0.7-1.2,1.3-1.9,2c-3.4,3.4-7.2,6.3-11.3,8.7c-0.9,0.6-1.8,1.1-2.8,1.6c-0.9,0.5-1.8,0.9-2.7,1.3c-2.7,1.2-5.5,2.2-8.5,3
			c-2.6,0.7-5.3,1.2-8.1,1.5c0.3-2.7,0.8-5.4,1.5-8.1c0.9-3.2,2-6.3,3.4-9.3c0.4-0.9,0.9-1.8,1.3-2.7c0.3-0.5,0.6-1,0.9-1.6
			c0.3-0.4,0.5-0.9,0.8-1.3c2.3-3.8,5-7.3,8.2-10.4c0.6-0.6,1.3-1.2,1.9-1.8c1.2-1,2.3-2,3.6-3l0,0c1.7-1.3,3.6-2.6,5.5-3.7
			c-2.1,0.6-4.3,1-6.5,1.2h0c-1.5,0.2-3.1,0.4-4.7,0.4c-0.9,0.1-1.8,0.1-2.7,0.1c-4.8,0-9.5-0.6-14.1-1.8c-1-0.3-2.1-0.6-3.1-0.9h0
			c-1-0.3-1.9-0.6-2.9-1c-2.8-1.1-5.5-2.4-8.1-3.9c-2.4-1.4-4.6-2.9-6.8-4.6c2.2-1.7,4.4-3.2,6.8-4.6c2.9-1.7,5.9-3,8.9-4.2
			c1-0.3,1.9-0.6,2.9-1c0,0,0,0,0,0c1-0.3,2.1-0.6,3.2-0.9c4.3-1,8.7-1.6,13.1-1.6c0.9,0,1.8,0,2.7,0.1c1.6,0.1,3.1,0.2,4.7,0.4
			c0,0,0,0,0,0c2.2,0.3,4.4,0.7,6.5,1.2c-1.9-1.1-3.7-2.4-5.5-3.7c-1.3-1-2.5-2-3.6-3c-0.6-0.6-1.3-1.2-1.9-1.8
			c-3.4-3.4-6.3-7.2-8.7-11.3c-0.6-0.9-1.1-1.9-1.6-2.9c-0.5-0.9-0.9-1.8-1.3-2.7c-1.2-2.7-2.3-5.6-3-8.5c-0.7-2.6-1.2-5.3-1.5-8
			c2.7,0.3,5.4,0.8,8.1,1.5c3.2,0.9,6.3,2,9.3,3.4c0.9,0.4,1.8,0.9,2.7,1.3c1,0.5,1.9,1.1,2.9,1.7c3.8,2.3,7.3,5,10.4,8.2
			c0.6,0.6,1.3,1.3,1.9,2c1,1.1,2,2.3,3,3.5c1.3,1.8,2.6,3.6,3.7,5.5c-0.6-2.2-1-4.3-1.2-6.5v0c-0.2-1.5-0.4-3.1-0.4-4.6
			c-0.1-0.9-0.1-1.8-0.1-2.7c0-4.8,0.6-9.5,1.8-14.1c0.3-1,0.6-2.1,0.9-3.1c0.3-1,0.6-1.9,1-2.9c1.1-2.8,2.4-5.5,3.9-8.1
			c1.4-2.3,2.9-4.6,4.6-6.8c1.7,2.2,3.2,4.4,4.6,6.8c1.7,2.9,3.1,5.9,4.1,9c0.4,0.9,0.7,1.9,1,2.9c0.3,1,0.6,2.1,0.9,3.2
			c1,4.3,1.6,8.7,1.6,13.1c0,0.9,0,1.8-0.1,2.7c-0.1,1.6-0.2,3.1-0.4,4.6v0c-0.3,2.2-0.7,4.4-1.2,6.6c1.1-1.9,2.4-3.8,3.8-5.6
			c0.9-1.2,1.9-2.4,3-3.5c0.6-0.7,1.2-1.3,1.8-2c3.4-3.4,7.2-6.3,11.3-8.7c0.9-0.6,1.9-1.1,2.8-1.6c0.9-0.5,1.8-0.9,2.7-1.3
			c2.7-1.2,5.6-2.2,8.5-3c2.6-0.7,5.3-1.2,8-1.5c-0.3,2.7-0.8,5.4-1.5,8c-0.9,3.2-2,6.3-3.4,9.3c-0.4,0.9-0.9,1.8-1.3,2.7
			c-0.5,1-1.1,1.9-1.7,2.8c-2.3,3.8-5.1,7.3-8.2,10.4c-0.6,0.6-1.3,1.2-1.9,1.8c-1.2,1.1-2.4,2.1-3.6,3c-1.7,1.3-3.6,2.6-5.5,3.7
			c2.2-0.6,4.3-1,6.5-1.2h0c1.6-0.2,3.1-0.4,4.7-0.4c0.9-0.1,1.8-0.1,2.6-0.1c4.8,0,9.6,0.6,14.2,1.8c1,0.3,2.1,0.5,3.1,0.9
			c1,0.3,1.9,0.6,2.9,1c2.8,1.1,5.5,2.4,8.1,3.9c2.4,1.4,4.6,2.9,6.8,4.6c-2.2,1.7-4.4,3.2-6.8,4.6c-2.9,1.7-5.9,3.1-9,4.2
			C850.4,138.6,849.5,138.9,848.5,139.1z M822.7,190c-0.4,2.7-1,5.4-1.7,8c-2.4-1.3-4.7-2.9-6.8-4.5c-2.4-1.9-4.6-3.9-6.6-6.1
			c1.7-5.2,2.7-10.7,2.9-16.2c3.9,3.6,8.1,6.6,12.7,9C823.3,183.4,823.1,186.7,822.7,190z M764.3,197.5c-0.8-2.6-1.3-5.3-1.6-8
			c-0.4-3-0.5-6-0.4-9c4.9-2.5,9.4-5.7,13.5-9.4c0.2,5.2,1.1,10.4,2.6,15.3c-2.2,2.4-4.7,4.6-7.3,6.6
			C769,194.7,766.7,196.2,764.3,197.5z M732.6,158.9c-2.7-0.4-5.4-1-8-1.7c1.4-2.4,2.9-4.7,4.6-6.8c1.8-2.4,3.9-4.6,6.1-6.6
			c5.2,1.7,10.7,2.7,16.2,2.9c-3.5,3.8-6.6,8.1-9,12.7C739.2,159.5,735.8,159.4,732.6,158.9z M729.5,107.4c-1.6-2.2-3.1-4.5-4.4-6.9
			c2.6-0.7,5.3-1.3,8-1.6c3-0.4,6-0.5,9-0.4c2.5,4.9,5.7,9.4,9.4,13.5c-5.2,0.2-10.4,1.1-15.4,2.6
			C733.7,112.5,731.4,110.1,729.5,107.4z M763.6,68.8c0.4-2.7,1-5.4,1.7-8c2.4,1.3,4.7,2.9,6.8,4.5c2.4,1.9,4.6,3.9,6.6,6.1
			c-1.7,5.2-2.7,10.7-2.9,16.2c-3.8-3.5-8.1-6.5-12.7-9C763,75.4,763.2,72.1,763.6,68.8z M822,61.3c0.7,2.6,1.3,5.3,1.6,8
			c0.3,2.3,0.4,4.6,0.4,6.9c0,0.7,0,1.4-0.1,2.1c-4.9,2.5-9.5,5.7-13.5,9.4c-0.2-5.2-1.1-10.4-2.6-15.3c2.2-2.4,4.6-4.7,7.3-6.7
			C817.3,64.1,819.6,62.6,822,61.3z M853.7,99.9c2.7,0.4,5.4,1,8,1.7c-1.3,2.4-2.9,4.7-4.5,6.8c-1.9,2.4-3.9,4.6-6.1,6.6
			c-5.2-1.7-10.7-2.7-16.2-2.9c3.6-3.8,6.6-8.1,9-12.7C847.1,99.3,850.4,99.4,853.7,99.9z"/>
		<path class="st0" d="M810.9,129c0-0.3,0-0.5-0.1-0.7c0-0.6-0.1-1.3-0.2-1.9c0-0.3-0.1-0.5-0.1-0.7c-0.1-0.6-0.3-1.3-0.5-1.9
			c-0.1-0.2-0.2-0.4-0.3-0.6c-0.1-0.4-0.3-0.7-0.4-1.1c-0.1-0.1-0.1-0.3-0.2-0.4c-0.3-0.6-0.6-1.3-1-1.9c-0.1-0.2-0.2-0.3-0.3-0.4
			c-0.4-0.6-0.9-1.2-1.3-1.7c-0.1-0.1-0.2-0.2-0.3-0.3c-0.2-0.3-0.5-0.5-0.8-0.8c-0.2-0.2-0.4-0.3-0.5-0.5c-0.5-0.5-1-0.9-1.5-1.2
			c-0.2-0.2-0.4-0.3-0.6-0.4c-0.5-0.4-1.1-0.7-1.7-1c-0.2-0.1-0.4-0.2-0.6-0.3c-0.4-0.2-0.7-0.3-1.1-0.5c-0.1-0.1-0.2-0.1-0.4-0.1
			c-0.7-0.3-1.4-0.4-2.1-0.6c-0.1-0.1-0.3-0.1-0.4-0.1c-0.7-0.2-1.5-0.3-2.2-0.3c-0.1,0-0.3,0-0.4,0c-0.2-0.1-0.5-0.1-0.7-0.1
			c-0.1,0-0.3,0-0.4,0c-0.2,0-0.5,0-0.7,0c-0.6,0-1.3,0.1-1.9,0.2c-0.3,0-0.5,0.1-0.7,0.1c-0.6,0.1-1.3,0.3-1.9,0.5
			c-0.2,0.1-0.4,0.1-0.6,0.2c-0.4,0.1-0.8,0.3-1.1,0.5c-0.2,0.1-0.3,0.1-0.4,0.2c-0.6,0.3-1.3,0.6-1.9,1c-0.2,0.1-0.3,0.2-0.4,0.3
			c-0.6,0.4-1.2,0.9-1.7,1.3c-0.1,0.1-0.2,0.2-0.3,0.3c-0.3,0.2-0.6,0.5-0.8,0.8c-0.2,0.2-0.3,0.3-0.5,0.5c-0.4,0.5-0.8,1-1.2,1.5
			c-0.2,0.2-0.3,0.4-0.4,0.6c-0.4,0.5-0.7,1.1-0.9,1.6c-0.1,0.2-0.2,0.4-0.3,0.6c-0.2,0.4-0.3,0.7-0.4,1.1c-0.1,0.1-0.1,0.2-0.2,0.4
			c-0.3,0.7-0.4,1.4-0.6,2.1c-0.1,0.2-0.1,0.3-0.1,0.4h0c-0.1,0.7-0.2,1.4-0.2,2.2c-0.1,0.1-0.1,0.3,0,0.4c-0.1,0.2-0.1,0.5-0.1,0.7
			c0,0.1,0,0.3,0,0.4c0,0.3,0,0.5,0.1,0.7c0,0.6,0.1,1.3,0.2,1.9c0,0.3,0.1,0.5,0.1,0.8c0.1,0.6,0.3,1.2,0.5,1.8
			c0.1,0.2,0.1,0.4,0.2,0.6c0.1,0.4,0.3,0.7,0.4,1.1c0,0.1,0.1,0.3,0.2,0.4c0.3,0.6,0.6,1.3,1.1,1.9c0.1,0.2,0.2,0.3,0.3,0.4
			c0.4,0.6,0.9,1.2,1.3,1.7c0.1,0.1,0.2,0.2,0.3,0.3c0.2,0.3,0.5,0.5,0.8,0.8c0.2,0.2,0.3,0.3,0.5,0.5c0.5,0.4,1,0.8,1.5,1.2
			c0.2,0.2,0.4,0.3,0.6,0.4c0.5,0.3,1.1,0.6,1.7,0.9c0.2,0.1,0.4,0.2,0.6,0.3c0.3,0.2,0.7,0.3,1.1,0.4c0.1,0.1,0.2,0.1,0.4,0.2
			c0.7,0.3,1.4,0.4,2.1,0.6c0.1,0.1,0.3,0.1,0.4,0.1c0.7,0.2,1.5,0.3,2.2,0.3c0.1,0,0.3,0,0.4,0c0.2,0.1,0.5,0.1,0.7,0.1
			c0.1,0,0.3,0,0.4,0c0.2,0,0.5,0,0.7,0c0.6,0,1.3-0.1,1.9-0.2c0.3,0,0.5-0.1,0.8-0.1c0.6-0.1,1.2-0.3,1.8-0.5
			c0.2-0.1,0.4-0.2,0.6-0.3c0.4-0.1,0.7-0.3,1.1-0.4c0.1,0,0.3-0.1,0.4-0.2c0.7-0.3,1.3-0.6,1.9-1.1c0.1-0.1,0.3-0.2,0.4-0.3
			c0.6-0.4,1.1-0.8,1.7-1.3c0.1-0.1,0.2-0.2,0.3-0.3c0.3-0.2,0.5-0.5,0.8-0.8c0.2-0.2,0.3-0.3,0.5-0.5c0.4-0.5,0.8-1,1.2-1.5
			c0.2-0.2,0.3-0.4,0.4-0.6c0.4-0.5,0.7-1.1,0.9-1.7c0.1-0.2,0.2-0.4,0.3-0.6c0.2-0.4,0.3-0.7,0.4-1.1c0.1-0.1,0.1-0.2,0.2-0.4
			c0.3-0.7,0.5-1.4,0.6-2.1c0.1-0.2,0.1-0.3,0.1-0.4c0.1-0.7,0.2-1.4,0.2-2.2c0.1-0.1,0.1-0.3,0-0.4c0.1-0.2,0.1-0.5,0.1-0.7
			C810.9,129.3,810.9,129.1,810.9,129z M799.8,140.1c-0.5,0.3-0.9,0.6-1.5,0.8c-0.1,0-0.1,0.1-0.2,0.1c-0.1,0.1-0.3,0.1-0.4,0.2
			c-0.1,0.1-0.3,0.1-0.4,0.2c-0.5,0.2-1,0.3-1.5,0.4c-0.2,0.1-0.4,0.1-0.6,0.1c-0.5,0.1-1.1,0.2-1.6,0.2c-0.1,0-0.3,0-0.4,0h-0.1
			c-0.1,0-0.2,0-0.3,0c-0.1,0-0.1,0-0.2,0c-0.5,0-1.1-0.1-1.6-0.2c-0.3,0-0.5-0.1-0.8-0.1c-0.5-0.1-1.1-0.3-1.6-0.5
			c-0.1,0-0.1,0-0.2-0.1c-0.2,0-0.3-0.1-0.4-0.2c-0.1-0.1-0.3-0.1-0.4-0.2c-0.5-0.2-1-0.5-1.4-0.8c-0.2-0.1-0.3-0.2-0.4-0.3
			c-0.4-0.3-0.9-0.6-1.3-1c-0.1-0.1-0.2-0.2-0.3-0.3c-0.1-0.1-0.2-0.2-0.3-0.3c-0.1-0.1-0.1-0.1-0.2-0.2c-0.4-0.4-0.7-0.8-1-1.2
			c-0.2-0.2-0.3-0.4-0.4-0.6c-0.3-0.4-0.5-0.9-0.8-1.4c0-0.1-0.1-0.1-0.1-0.2c-0.1-0.1-0.1-0.3-0.2-0.4c-0.1-0.1-0.1-0.2-0.1-0.4
			c-0.2-0.5-0.3-1-0.4-1.6c-0.1-0.2-0.1-0.4-0.1-0.6c-0.1-0.5-0.2-1.1-0.2-1.6c0-0.1,0-0.3,0-0.4v-0.1c0-0.1,0-0.2,0-0.3
			c0-0.1,0-0.1,0-0.2c0-0.5,0.1-1.1,0.2-1.6c0-0.3,0.1-0.5,0.1-0.8c0.1-0.5,0.3-1.1,0.5-1.6c0-0.1,0-0.1,0.1-0.2
			c0.1-0.2,0.1-0.3,0.2-0.4c0.1-0.1,0.1-0.2,0.2-0.3c0.2-0.5,0.5-1,0.8-1.4c0.1-0.2,0.2-0.3,0.3-0.4c0.3-0.4,0.6-0.9,1-1.3
			c0.1-0.1,0.2-0.2,0.3-0.3c0.1-0.1,0.2-0.2,0.3-0.3c0.1-0.1,0.1-0.1,0.2-0.2c0.4-0.4,0.8-0.7,1.3-1c0.2-0.2,0.4-0.3,0.6-0.4
			c0.4-0.3,0.9-0.5,1.4-0.8c0.1-0.1,0.1-0.1,0.2-0.1c0.1-0.1,0.3-0.1,0.4-0.2c0.1-0.1,0.2-0.1,0.4-0.1c0.5-0.2,1-0.3,1.6-0.5
			c0.2,0,0.4-0.1,0.6-0.1c0.5-0.1,1.1-0.2,1.6-0.2c0.1,0,0.3,0,0.4,0h0.4c0.1,0,0.1,0,0.2,0c0.5,0,1.1,0.1,1.6,0.2
			c0.3,0.1,0.5,0.1,0.8,0.2c0.5,0.1,1,0.3,1.5,0.5c0.1,0,0.1,0.1,0.2,0.1c0.1,0.1,0.3,0.1,0.4,0.2c0.1,0.1,0.2,0.1,0.4,0.2
			c0.5,0.2,0.9,0.5,1.4,0.8c0.2,0.1,0.3,0.2,0.5,0.3c0.4,0.3,0.9,0.6,1.2,1c0.1,0.1,0.2,0.2,0.3,0.3c0.1,0.1,0.2,0.2,0.3,0.3
			c0.1,0.1,0.1,0.1,0.2,0.2c0.4,0.4,0.7,0.8,1,1.2c0.2,0.2,0.3,0.4,0.4,0.6c0.3,0.5,0.6,0.9,0.8,1.5c0.1,0.1,0.1,0.1,0.1,0.2
			c0.1,0.1,0.1,0.3,0.2,0.4c0.1,0.1,0.1,0.2,0.2,0.3c0.2,0.5,0.3,1,0.5,1.6c0,0.2,0.1,0.4,0.1,0.6c0.1,0.5,0.2,1,0.2,1.6
			c0,0.1,0,0.3,0,0.4v0.1c0,0.1,0,0.2,0,0.3c0,0.1,0,0.1,0,0.2c0,0.5-0.1,1.1-0.2,1.6c0,0.3-0.1,0.5-0.1,0.8c-0.1,0.5-0.3,1-0.5,1.5
			c0,0.1,0,0.2-0.1,0.2c0,0.2-0.1,0.3-0.2,0.4c-0.1,0.1-0.1,0.3-0.2,0.4c-0.2,0.5-0.5,1-0.8,1.4c-0.1,0.2-0.2,0.3-0.3,0.5
			c-0.3,0.4-0.6,0.8-1,1.2c-0.1,0.1-0.2,0.2-0.3,0.3c-0.1,0.1-0.2,0.2-0.3,0.3c-0.1,0.1-0.1,0.1-0.2,0.2c-0.4,0.4-0.8,0.7-1.2,1
			C800.2,139.8,800,140,799.8,140.1z"/>
	</g>
	<g>
		<path class="st1" d="M140.4,76.6v121.9H129v-28.7c-4.8,9.5-11.6,16.8-20.3,22c-8.7,5.1-18.6,7.7-29.7,7.7
			c-11.4,0-21.6-2.6-30.8-7.9c-9.2-5.3-16.4-12.6-21.6-22c-5.2-9.3-7.8-20-7.8-32c0-12,2.6-22.7,7.8-32.1c5.2-9.4,12.4-16.7,21.6-22
			c9.2-5.2,19.5-7.8,30.8-7.8c10.9,0,20.7,2.6,29.3,7.7c8.6,5.1,15.5,12.3,20.4,21.5V76.6H140.4z M104.8,182.5
			c7.4-4.4,13.2-10.4,17.5-18.2c4.3-7.8,6.4-16.7,6.4-26.6c0-10-2.1-18.8-6.4-26.6c-4.3-7.8-10.1-13.9-17.5-18.2
			c-7.4-4.4-15.8-6.5-25.1-6.5S62,88.4,54.6,92.7C47.2,97.1,41.3,103.2,37,111c-4.3,7.8-6.4,16.7-6.4,26.6c0,10,2.1,18.8,6.4,26.6
			c4.3,7.8,10.1,13.9,17.5,18.2c7.4,4.4,15.8,6.5,25.1,6.5S97.4,186.8,104.8,182.5z"/>
		<path class="st1" d="M198.4,190.7c-5.5-5.8-8.2-13.9-8.2-24.2V25.2h11.7v139.9c0,7.9,1.8,14,5.4,18.1c3.6,4.1,9,6.2,16.1,6.2
			c4,0,7.9-0.8,11.7-2.3l0.9,9.8c-4.4,1.7-9,2.6-14,2.6C211.7,199.5,203.8,196.6,198.4,190.7z"/>
		<path class="st1" d="M272,190.7c-5.5-5.8-8.2-13.9-8.2-24.2V25.2h11.7v139.9c0,7.9,1.8,14,5.4,18.1c3.6,4.1,9,6.2,16.1,6.2
			c4,0,7.9-0.8,11.7-2.3l0.9,9.8c-4.4,1.7-9,2.6-14,2.6C285.3,199.5,277.4,196.6,272,190.7z"/>
		<path class="st1" d="M408,184.7c6.8-2.9,12.4-7.1,16.9-12.7l6.8,7.7c-5.3,6.5-11.9,11.5-19.9,14.8c-7.9,3.4-16.7,5-26.2,5
			c-12.1,0-23-2.6-32.6-7.9c-9.6-5.3-17.1-12.6-22.4-22c-5.4-9.3-8.1-20-8.1-32c0-12,2.5-22.7,7.6-32c5.1-9.3,12.1-16.7,21.1-22
			c9-5.3,19.2-7.9,30.6-7.9c10.6,0,20.1,2.5,28.6,7.4c8.5,4.9,15.3,11.7,20.3,20.3c5.1,8.6,7.8,18.3,8.3,29.1l-103,20.1
			c3,11.2,8.9,20.1,17.8,26.6c8.9,6.5,19.5,9.8,32,9.8C393.9,189,401.3,187.6,408,184.7z M357.2,92.4c-7.3,4.3-13,10.3-17.1,18
			c-4.1,7.7-6.1,16.5-6.1,26.3c0,1.7,0.2,4.1,0.5,7.2l93-18.2c-1.1-7.3-3.7-14-7.7-20.1c-4.1-6.1-9.3-10.9-15.9-14.4
			c-6.5-3.5-13.9-5.3-22-5.3C372.8,86,364.6,88.1,357.2,92.4z"/>
		<path class="st1" d="M573.3,89c8.9,8.9,13.3,21.7,13.3,38.3v71.3H575v-70.3c0-13.7-3.5-24.1-10.4-31.3
			c-6.9-7.2-16.6-10.7-29.1-10.7c-14.3,0-25.6,4.3-33.9,12.8c-8.3,8.6-12.4,20.1-12.4,34.6v64.9h-11.7V76.6h11.2V103
			c4.2-8.6,10.5-15.3,18.8-20.1c8.3-4.8,18.2-7.2,29.6-7.2C552.4,75.7,564.5,80.1,573.3,89z"/>
		<path class="st1" d="M692.6,190.9c-3,2.8-6.7,4.9-11.1,6.4c-4.4,1.5-9.1,2.2-13.9,2.2c-10.6,0-18.8-2.9-24.5-8.8
			c-5.8-5.8-8.6-14-8.6-24.4V50h11.7v26.6h38.8v10h-38.8v78.5c0,7.9,1.9,14,5.7,18.1c3.8,4.1,9.5,6.2,16.9,6.2
			c7.6,0,13.9-2.3,18.9-6.8L692.6,190.9z"/>
	</g>
	<g>
		<path class="st1" d="M1094.4,76.6v67.3c0,18.4-4.3,32.2-12.8,41.6c-8.6,9.3-21.2,14-37.8,14c-11.5,0-21-2.4-28.5-7.1
			c-7.5-4.7-13-12.2-16.6-22.3c-3.4,10.1-8.9,17.6-16.4,22.3c-7.5,4.8-17.1,7.1-28.7,7.1c-16.7,0-29.3-4.7-37.8-14
			c-8.6-9.3-12.8-23.2-12.8-41.6V76.6h11.7v66.6c0,15.6,3.2,27.1,9.6,34.6c6.4,7.5,16.2,11.2,29.4,11.2c13.2,0,23.1-3.8,29.6-11.4
			c6.5-7.6,9.7-19.4,9.7-35.3V76.6h11.7v65.6c0,16,3.2,27.8,9.6,35.4c6.4,7.6,16.3,11.3,29.7,11.3c13.2,0,23-3.7,29.4-11.2
			c6.4-7.5,9.6-19,9.6-34.6V76.6H1094.4z"/>
		<path class="st1" d="M1238.9,89c8.9,8.9,13.3,21.7,13.3,38.3v71.3h-11.7v-70.3c0-13.7-3.5-24.1-10.4-31.3
			c-6.9-7.2-16.6-10.7-29.1-10.7c-14.3,0-25.6,4.3-33.9,12.8c-8.3,8.6-12.4,20.1-12.4,34.6v64.9h-11.7V76.6h11.2V103
			c4.2-8.6,10.5-15.3,18.8-20.1c8.3-4.8,18.2-7.2,29.6-7.2C1218,75.7,1230,80.1,1238.9,89z"/>
	</g>
</g>
</svg>
