<?xml version="1.0" encoding="UTF-8"?>
<svg width="252px" height="53px" viewBox="0 0 252 53" version="1.1" xmlns="http://www.w3.org/2000/svg" xmlns:xlink="http://www.w3.org/1999/xlink">
    <title>Group 27</title>
    <defs>
        <polygon id="path-1" points="0 0 67 0 67 16 0 16"></polygon>
        <polygon id="path-3" points="0 0 21 0 21 25 0 25"></polygon>
        <polygon id="path-5" points="0 53 252 53 252 0 0 0"></polygon>
    </defs>
    <g id="Page-1" stroke="none" stroke-width="1" fill="none" fill-rule="evenodd">
        <g id="Homepage-–-History-of-the-Eko-dynasty" transform="translate(-802.000000, -2266.000000)">
            <g id="Group-27" transform="translate(802.000000, 2266.000000)">
                <g id="Group-3" transform="translate(20.000000, 37.000000)">
                    <mask id="mask-2" fill="white">
                        <use xlink:href="#path-1"></use>
                    </mask>
                    <g id="Clip-2"></g>
                    <path d="M66.4076485,6.3645919 C58.3637661,12.6553823 46.7034343,16.0000768 36.6614455,16.0000768 C22.5884563,16.0000768 9.91566355,10.487283 0.325187377,1.3110696 C-0.427816835,0.590673873 0.244016567,-0.39391816 1.14921605,0.164426932 C11.4955954,6.54430682 24.2915938,10.3866734 37.5064916,10.3866734 C46.4215107,10.3866734 56.2207118,8.42670548 65.2386439,4.37313547 C66.5982549,3.76179751 67.73827,5.32316694 66.4076485,6.3645919" id="Fill-1" fill="#F7981D" mask="url(#mask-2)"></path>
                </g>
                <path d="M90.2253831,39.4805015 C89.1792905,38.2184781 83.3130685,38.8824816 80.6772099,39.1797552 C79.8786435,39.2700485 79.7548804,38.6122961 80.4746215,38.1358249 C85.1547808,35.0373733 92.8229341,35.9319722 93.7143228,36.9696514 C94.6123417,38.0163599 93.4785837,45.2648335 89.0930984,48.7244586 C88.418295,49.2558004 87.7766424,48.9724181 88.0757365,48.269519 C89.0628943,45.9462012 91.2722123,40.7432196 90.2253831,39.4805015" id="Fill-4" fill="#F7981D"></path>
                <path d="M79.8542791,14.1106213 L79.8542791,10.8318034 C79.8573631,10.3327214 80.2397841,10 80.7023901,10.0015124 L95.6846569,10 C96.1634541,10 96.5481881,10.3425518 96.5481881,10.8272663 L96.5481881,13.6395181 C96.5443331,14.1113775 96.1387818,14.7261558 95.4202005,15.7031467 L87.6592136,26.5717928 C90.539707,26.5052485 93.5882806,26.928712 96.2050887,28.3715129 C96.7956823,28.6966724 96.9537394,29.1783622 97,29.6509778 L97,33.1498455 C97,33.6307791 96.461835,34.1895998 95.8966847,33.8984686 C91.2852737,31.5293412 85.1657672,31.2707259 80.0655359,33.9279598 C79.5451041,34.1994302 79,33.6504399 79,33.1672377 L79,29.8422926 C79,29.3099384 79.0100231,28.3994917 79.5574402,27.5888615 L88.5489591,14.9371314 L80.7201234,14.9363752 C80.2413261,14.9363752 79.8573631,14.6013853 79.8542791,14.1106213" id="Fill-6" fill="#221E1F"></path>
                <path d="M29.0757606,34 L24.770467,34 C24.3604737,33.9731511 24.0334986,33.6669287 24,33.2743545 L24.0036411,11.256818 C24.0036411,10.8163512 24.3750383,10.4644131 24.8345512,10.4644131 L28.8441835,10.4629618 C29.2636438,10.4847312 29.6000859,10.800387 29.6263022,11.2031203 L29.6263022,14.0774022 L29.7071357,14.0774022 C30.7521452,11.2974542 32.7212781,10 35.3734905,10 C38.0657554,10 39.7537917,11.2974542 40.9590118,14.0774022 C42.0047495,11.2974542 44.3758652,10 46.9071915,10 C48.7161139,10 50.6852468,10.7408841 51.8904669,12.4091431 C53.2566257,14.2631674 52.9762573,16.9495072 52.9762573,19.3129346 L52.9718879,33.2075951 C52.9718879,33.6473363 52.601219,34 52.1417061,34 L47.8422383,34 C47.4096699,33.9724255 47.0695867,33.6313721 47.0695867,33.2090464 L47.0681302,21.5363125 C47.0681302,20.6111145 47.1482355,18.2934027 46.9472441,17.4139203 C46.6260948,15.9307009 45.6611906,15.512729 44.4166461,15.512729 C43.3709083,15.512729 42.2858462,16.2086231 41.8430826,17.320312 C41.4017754,18.4327266 41.4410998,20.2852996 41.4410998,21.5363125 L41.4410998,33.2075951 C41.4410998,33.6473363 41.0704309,34 40.6116463,34 L36.3114502,34 C35.8788818,33.9724255 35.5380704,33.6313721 35.5380704,33.2090464 L35.533701,21.5363125 C35.533701,19.0814537 35.9356838,15.467739 32.8822169,15.467739 C29.7872409,15.467739 29.908127,18.9885711 29.908127,21.5363125 L29.9066706,33.2075951 C29.9066706,33.6473363 29.5345452,34 29.0757606,34" id="Fill-8" fill="#221E1F"></path>
                <path d="M108.958615,14.5930474 C105.708176,14.5930474 105.502347,18.9947796 105.502347,21.7421546 C105.502347,24.4880465 105.462101,30.358753 108.918348,30.358753 C112.334328,30.358753 112.498378,25.6240731 112.498378,22.7365486 C112.498378,20.8434182 112.416353,18.5698819 111.839193,16.7701845 C111.34555,15.2077772 110.357518,14.5930474 108.958615,14.5930474 M108.918348,10 C115.461728,10 119,15.5874414 119,22.6890906 C119,29.5534496 115.091868,35 108.918348,35 C102.498751,35 99,29.4110755 99,22.452542 C99,15.4443258 102.539764,10 108.918348,10" id="Fill-10" fill="#221E1F"></path>
                <path d="M129.160331,34 L124.793213,34 C124.355092,33.9724255 124.007413,33.6313721 124.007413,33.2090464 L124,11.1835278 C124.037066,10.7800689 124.400313,10.4644131 124.84214,10.4644131 L128.9068,10.4629618 C129.290062,10.4832799 129.605865,10.7379815 129.685927,11.0797605 L129.685927,14.4482071 L129.768214,14.4482071 C130.996582,11.4353268 132.71348,10 135.741032,10 C137.704048,10 139.627775,10.6944428 140.85466,12.5949084 C142,14.3553244 142,17.320312 142,19.4515329 L142,33.3070085 C141.951814,33.6966802 141.593015,34 141.160084,34 L136.767761,34 C136.361517,33.9746024 136.033854,33.6828929 135.98715,33.3070085 L135.98715,21.3519985 C135.98715,18.9428554 136.274041,15.4205721 133.246489,15.4205721 C132.181953,15.4205721 131.200445,16.1164661 130.709691,17.1809881 C130.095877,18.5256092 130.01285,19.8680535 130.01285,21.3519985 L130.01285,33.2075951 C130.006178,33.6473363 129.627363,34 129.160331,34" id="Fill-12" fill="#221E1F"></path>
                <path d="M74.3737495,34.6329949 C74.0832087,34.8934501 73.6641165,34.9104685 73.336422,34.7351052 C71.8777731,33.5275402 71.616212,32.9696333 70.8181535,31.8197828 C68.4068872,34.2659899 66.6993094,35 63.5754377,35 C59.877172,35 57,32.7269364 57,28.1815491 C57,24.6306272 58.9319853,22.216237 61.6850644,21.0323497 C64.068094,19.9905289 67.3970533,19.8011069 69.9457878,19.5162341 L69.9457878,18.9487081 C69.9457878,17.9068873 70.0275256,16.6763844 69.4107765,15.7766301 C68.8765082,14.9715867 67.8495837,14.6393583 66.945266,14.6393583 C65.2696402,14.6393583 63.7805254,15.4947169 63.4141913,17.2661083 C63.3376549,17.6612307 63.0493433,18.0511735 62.6518001,18.0711516 L58.3932586,17.6116554 C58.0336121,17.531003 57.6345829,17.2439104 57.7371267,16.6971024 C58.7172377,11.5538521 63.3814961,10 67.5612721,10 C69.6990881,10 72.4930361,10.566786 74.1775787,12.1776127 C76.3153948,14.1665433 76.109564,16.8184509 76.109564,19.7071359 L76.109564,26.5211472 C76.109564,28.5722319 76.9648391,29.4705064 77.7673561,30.5752212 C78.048237,30.9740433 78.110655,31.4461183 77.7532377,31.7376506 C76.8563507,32.4871992 75.2617197,33.865688 74.3848956,34.643354 L74.3737495,34.6329949 Z M69.9457878,23.9676503 C69.9457878,25.6731879 69.9866567,27.0923728 69.1232079,28.6077485 C68.4247209,29.8382514 67.3145724,30.5966792 66.0825602,30.5966792 C64.3972746,30.5966792 63.411219,29.317341 63.411219,27.4238612 C63.411219,23.6983159 66.7676719,23.0212804 69.9457878,23.0212804 L69.9457878,23.9676503 Z" id="Fill-14" fill="#221E1F"></path>
                <g id="Group-18" transform="translate(0.000000, 10.000000)">
                    <mask id="mask-4" fill="white">
                        <use xlink:href="#path-3"></use>
                    </mask>
                    <g id="Clip-17"></g>
                    <path d="M17.3742349,24.6329949 C17.0836834,24.8934501 16.6638328,24.9104685 16.3368695,24.7351052 C14.8766812,23.5275402 14.6151105,22.9696333 13.8185091,21.8197828 C11.4064117,24.2659899 9.69877158,25 6.57552904,25 C2.87638525,25 -0.000148619678,22.7269364 -0.000148619678,18.1815491 C-0.000148619678,14.6306272 1.9311641,12.216237 4.68508674,11.0323497 C7.06820327,9.9905289 10.3972841,9.80110693 12.9446254,9.51623405 L12.9446254,8.94870808 C12.9446254,7.90688726 13.0271093,6.67638441 12.4110807,5.77663006 C11.876793,4.9715867 10.8490879,4.63935833 9.94548024,4.63935833 C8.26979337,4.63935833 6.779138,5.4947169 6.41427669,7.26610827 C6.33773756,7.66123065 6.04941538,8.05117353 5.65111464,8.07115163 L1.39316086,7.61165537 C1.03350124,7.53100305 0.633714308,7.24391038 0.737004984,6.69710244 C1.71566557,1.55385207 6.38009416,0 10.5615088,0 C12.6986598,0 15.4934528,0.566786042 17.1780569,2.17761269 C19.3144648,4.16654335 19.1101127,6.81845088 19.1101127,9.70713588 L19.1101127,16.5211472 C19.1101127,18.5722319 19.9646758,19.4705064 20.7672221,20.5752212 C21.0473702,20.9740433 21.1112767,21.4461183 20.7538463,21.7376506 C19.8561835,22.4871992 18.2607512,23.865688 17.3846382,24.643354 L17.3742349,24.6329949 Z M12.9446254,13.9676503 C12.9446254,15.6731879 12.9862389,17.0923728 12.1235016,18.6077485 C11.4249891,19.8382514 10.3148001,20.5966792 9.08199991,20.5966792 C7.39739586,20.5966792 6.4105612,19.317341 6.4105612,17.4238612 C6.4105612,13.6983159 9.76787973,13.0212804 12.9446254,13.0212804 L12.9446254,13.9676503 Z" id="Fill-16" fill="#221E1F" mask="url(#mask-4)"></path>
                </g>
                <polygon id="Fill-19" fill="#F7981D" points="160.224081 35 149.800454 22.8388781 149.748994 22.8388781 149.748994 35 146 35 146 0 149.748994 0 149.748994 19.8728752 149.800454 19.8728752 158.734775 11.6171483 163.613614 11.6171483 152.931931 21.1574392 165 35"></polygon>
                <mask id="mask-6" fill="white">
                    <use xlink:href="#path-5"></use>
                </mask>
                <g id="Clip-22"></g>
                <path d="M166.882531,34 L171.17642,34 L171.17642,10.8412195 L166.882531,10.8412195 L166.882531,34 Z M168.999567,5.99381488 C167.353273,5.99381488 166,4.86797071 166,3.49762867 C166,2.12584417 167.353273,1 168.999567,1 C170.647594,1 172,2.12584417 172,3.49762867 C172,4.86797071 170.647594,5.99381488 168.999567,5.99381488 L168.999567,5.99381488 Z" id="Fill-21" fill="#F7981D" mask="url(#mask-6)"></path>
                <path d="M192.301552,34 L192.301552,19.6 C192.301552,16.6799089 191.794537,13.4143052 188.146866,13.4143052 C185.207821,13.4143052 182.522657,15.4429157 180.699194,16.9773121 L180.699194,34 L177,34 L177,10.5940774 L180.039851,10.5940774 L180.546866,13.4143052 C183.181254,11.435262 185.765612,10 189.11012,10 C192.554687,10 196,12.4244191 196,18.2638724 L196,34 L192.301552,34 Z" id="Fill-23" fill="#F7981D" mask="url(#mask-6)"></path>
                <path d="M215.294606,14.5753149 C214.330291,14.2335152 213.467719,13.9908087 211.589212,13.9908087 C206.867884,13.9908087 202.756265,17.5495466 202.756265,23.0578351 C202.756265,28.2731525 205.750954,31.9776579 211.995437,31.9776579 C213.213361,31.9776579 214.533029,31.7342333 215.294606,31.3931517 L215.294606,14.5753149 Z M211.335603,35 C204.634772,35 199,31.2473842 199,23.3005416 C199,16.1356735 204.380414,10.8708096 211.385726,10.8708096 C213.111618,10.8708096 214.330291,11.0165771 215.294606,11.2607197 L215.294606,0 L219,0 L219,33.3427024 C217.527718,34.1713512 214.736515,35 211.335603,35 L211.335603,35 Z" id="Fill-24" fill="#F7981D" mask="url(#mask-6)"></path>
                <path d="M227.979408,35 C225.199051,35 224,33.1962168 224,30.7590989 L224,0 L227.500353,0 L227.500353,29.1506298 C227.500353,31.3436051 228.027455,31.7830618 229.36994,31.7830618 C229.610175,31.7830618 229.993843,31.7830618 230.568285,31.6365763 L231,34.2201797 C229.945089,34.7558574 229.130413,35 227.979408,35" id="Fill-25" fill="#F7981D" mask="url(#mask-6)"></path>
                <path d="M242.62457,13.1313237 C239.134414,13.1313237 236.93993,16.2626473 236.93993,20.0508868 L248.06007,20.0508868 C248.06007,16.7172063 246.21541,13.1313237 242.62457,13.1313237 L242.62457,13.1313237 Z M236.889955,23.1822105 C236.889955,27.7270563 239.483503,31.8173432 244.56918,31.8173432 C246.713689,31.8173432 248.908173,30.9595584 250.304529,30.0504404 L251.451746,32.6758719 C249.706301,33.8885252 246.713689,35 244.120876,35 C236.590841,35 233,28.8891203 233,22.0707356 C233,15.1511725 236.889955,10 242.57533,10 C248.659034,10 252,14.8989704 252,22.3229377 L252,23.1822105 L236.889955,23.1822105 Z" id="Fill-26" fill="#F7981D" mask="url(#mask-6)"></path>
            </g>
        </g>
    </g>
</svg>