<?xml version="1.0" encoding="UTF-8"?>
<svg width="140px" height="73px" viewBox="0 0 140 73" version="1.1" xmlns="http://www.w3.org/2000/svg" xmlns:xlink="http://www.w3.org/1999/xlink">
    <title>Group</title>
    <defs>
        <polygon id="path-1" points="0 0 9.28091226 0 9.28091226 15.8094205 0 15.8094205"></polygon>
        <polygon id="path-3" points="0 0 16.2383201 0 16.2383201 20.7688707 0 20.7688707"></polygon>
    </defs>
    <g id="Symbols" stroke="none" stroke-width="1" fill="none" fill-rule="evenodd">
        <g id="Header" transform="translate(-91.000000, -53.000000)">
            <g id="Group" transform="translate(91.000000, 53.000000)">
                <polygon id="Fill-1" fill="#231F20" points="9.39558335 0.250936091 9.39558335 6.66507106 1.97919326 6.66507106 1.97919326 0.250936091 0 0.250936091 0 15.5811208 1.97919326 15.5811208 1.97919326 8.39258361 9.39558335 8.39258361 9.39558335 15.5811208 11.3971151 15.5811208 11.3971151 0.250936091"></polygon>
                <polygon id="Fill-2" fill="#231F20" points="17.1038635 15.5818654 19.0830568 15.5818654 19.0830568 0.251680708 17.1038635 0.251680708"></polygon>
                <g id="Group-5" transform="translate(24.040720, 0.000000)">
                    <mask id="mask-2" fill="white">
                        <use xlink:href="#path-1"></use>
                    </mask>
                    <g id="Clip-4"></g>
                    <path d="M0.500382946,13.1704961 C1.38796698,13.7170454 2.6836014,14.171262 4.04922985,14.171262 C6.07310016,14.171262 7.25704195,13.1019913 7.25704195,11.5561654 C7.25704195,10.1235214 6.43647349,9.30295294 4.36792613,8.50770147 C1.8660114,7.62011744 0.318696281,6.32448302 0.318696281,4.1636031 C0.318696281,1.77487022 2.29788954,-0.000297846992 5.27784869,-0.000297846992 C6.84601311,-0.000297846992 7.98378861,0.364564718 8.66585822,0.751765807 L8.12079823,2.3660965 C7.62041528,2.0935665 6.59582163,1.63786061 5.20934389,1.63786061 C3.11547953,1.63786061 2.32022807,2.88881797 2.32022807,3.93575015 C2.32022807,5.36839418 3.25248915,6.07280231 5.36869203,6.89337078 C7.96145009,7.89413667 9.28091226,9.1436048 9.28091226,11.3968173 C9.28091226,13.7617224 7.52957195,15.8094205 3.91222024,15.8094205 C2.43340992,15.8094205 0.819079227,15.3760531 0,14.8309931 L0.500382946,13.1704961 Z" id="Fill-3" fill="#231F20" mask="url(#mask-2)"></path>
                </g>
                <polygon id="Fill-6" fill="#231F20" points="41.2120458 1.93362267 36.5492511 1.93362267 36.5492511 0.250787167 47.9002 0.250787167 47.9002 1.93362267 43.2135776 1.93362267 43.2135776 15.5824611 41.2120458 15.5824611"></polygon>
                <path d="M52.4700664,8.00702068 C52.4700664,11.2833376 54.2437452,14.2171305 57.360714,14.2171305 C60.5000213,14.2171305 62.2737001,11.3280146 62.2737001,7.84767254 C62.2737001,4.80069781 60.6817079,1.61522424 57.3830525,1.61522424 C54.1082248,1.61522424 52.4700664,4.64134967 52.4700664,8.00702068 M64.3660752,7.75682921 C64.3660752,13.0346779 61.1597524,15.8314612 57.2475321,15.8314612 C53.1983023,15.8314612 50.3553527,12.6921539 50.3553527,8.05318696 C50.3553527,3.18487788 53.3799889,0.000893540975 57.4738958,0.000893540975 C61.6601353,0.000893540975 64.3660752,3.20721641 64.3660752,7.75682921" id="Fill-8" fill="#231F20"></path>
                <path d="M71.1887073,7.43828185 L73.2125777,7.43828185 C75.3287805,7.43828185 76.6705812,6.27816782 76.6705812,4.5268275 C76.6705812,2.54763424 75.2379372,1.68387797 73.1440728,1.66153944 C72.1894732,1.66153944 71.5074036,1.75238278 71.1887073,1.84322611 L71.1887073,7.43828185 Z M69.2095141,0.455259127 C70.21028,0.249744703 71.642924,0.136562846 73.0085525,0.136562846 C75.1247553,0.136562846 76.4888946,0.523763935 77.4434942,1.38900945 C78.2178963,2.07107906 78.6497745,3.116522 78.6497745,4.30046379 C78.6497745,6.3243341 77.3749894,7.6661348 75.7606587,8.21268403 L75.7606587,8.2796996 C76.9431112,8.68923921 77.6490086,9.78084844 78.0123819,11.3743298 C78.5127649,13.511382 78.8776274,14.9901923 79.1948345,15.5814186 L77.1486256,15.5814186 C76.8969449,15.1495405 76.5559101,13.8300783 76.124032,11.9193898 C75.6698153,9.8046762 74.8507361,9.00793549 73.0532295,8.93943069 L71.1887073,8.93943069 L71.1887073,15.5814186 L69.2095141,15.5814186 L69.2095141,0.455259127 Z" id="Fill-10" fill="#231F20"></path>
                <path d="M86.8831589,15.5818654 L86.8831589,9.07688707 L82.0386776,0.250191473 L84.2889116,0.250191473 L86.4497915,4.48110799 C87.042507,5.64122202 87.4967237,6.57497234 87.9747681,7.64275381 L88.0209344,7.64275381 C88.4528125,6.64198792 88.975534,5.64122202 89.5667603,4.48110799 L91.7738065,0.250191473 L94.0255297,0.250191473 L88.8846907,9.05305931 L88.8846907,15.5818654 L86.8831589,15.5818654 Z" id="Fill-12" fill="#231F20"></path>
                <polygon id="Fill-14" fill="#231F20" points="55.4583652 33.7770403 47.3852225 33.7770403 47.3852225 41.2664029 56.3831802 41.2664029 56.3831802 43.5151476 44.7045996 43.5151476 44.7045996 22.7462769 55.9200281 22.7462769 55.9200281 24.9965109 47.3852225 24.9965109 47.3852225 31.5595694 55.4583652 31.5595694"></polygon>
                <path d="M62.9441537,22.7465748 L65.6247766,22.7465748 L65.6247766,32.7616799 L65.7171092,32.7616799 C66.2711046,31.9604714 66.8265892,31.2203217 67.3493107,30.5427198 L73.6979193,22.7465748 L77.0263595,22.7465748 L69.5072122,31.5598672 L77.6116288,43.5154455 L74.4365799,43.5154455 L67.5965237,33.3156753 L65.6247766,35.595694 L65.6247766,43.5154455 L62.9441537,43.5154455 L62.9441537,22.7465748 Z" id="Fill-16" fill="#231F20"></path>
                <path d="M83.8327589,33.2543188 C83.8327589,37.6907497 86.2363841,41.6655178 90.4583652,41.6655178 C94.7101311,41.6655178 97.1137563,37.7532976 97.1137563,33.0383797 C97.1137563,28.9087312 94.9573441,24.5959067 90.4881499,24.5959067 C86.051719,24.5959067 83.8327589,28.6942813 83.8327589,33.2543188 M99.9477704,32.9147732 C99.9477704,40.0645902 95.603672,43.8546932 90.3034848,43.8546932 C84.8186325,43.8546932 80.9674709,39.6014382 80.9674709,33.3153774 C80.9674709,26.7225343 85.0658455,22.4082206 90.6117564,22.4082206 C96.2812739,22.4082206 99.9477704,26.752319 99.9477704,32.9147732" id="Fill-18" fill="#231F20"></path>
                <path d="M5.0516339,31.0435495 C4.84611948,31.0435495 4.61975577,31.1075866 4.374032,31.2386393 C4.12830823,31.3682027 3.854289,31.6332865 3.55346354,32.029423 C3.25263807,32.4270488 2.97712961,32.8678623 2.73140584,33.3533529 C2.48568207,33.8388435 2.27272147,34.3183772 2.09550251,34.7904646 C1.91679432,35.2625521 1.77680623,35.7078334 1.67404902,36.1263084 C1.5712918,36.5432942 1.51321164,36.8887967 1.49980853,37.1628159 C1.47151306,37.5187431 1.53108246,37.8270147 1.67404902,38.0861416 C1.81850481,38.3467577 2.04040082,38.4763212 2.34122628,38.4763212 C2.57354693,38.4763212 2.82075994,38.4078164 3.08137605,38.272296 C3.34050294,38.1352864 3.63537146,37.847864 3.96449238,37.4085397 C4.18340992,37.1077142 4.40530593,36.7279593 4.63166965,36.269275 C4.85654412,35.8105906 5.05908008,35.3414816 5.23778827,34.8619479 C5.41500723,34.3839035 5.56244149,33.9222407 5.67860182,33.4769594 C5.79476215,33.0316782 5.85879925,32.6727725 5.8736916,32.3987533 C5.8736916,32.2349375 5.86624543,32.0741001 5.85284231,31.9162412 C5.8394392,31.7583823 5.80071909,31.6154157 5.73966045,31.484363 C5.67860182,31.3547996 5.59222619,31.2490639 5.48351204,31.167156 C5.37330865,31.0837588 5.2303421,31.0435495 5.0516339,31.0435495 M5.19608969,30.4270062 C5.93475023,30.4270062 6.47832099,30.6712407 6.82829121,31.1567313 C7.17677219,31.6422219 7.33165263,32.2617437 7.28995405,33.0152966 C7.27655093,33.3027189 7.22442771,33.6303506 7.13656285,33.9996809 C7.04720875,34.3705004 6.91615607,34.7636584 6.74638329,35.1806442 C6.57363203,35.5991192 6.35620373,36.0235512 6.08814143,36.4539401 C5.82156838,36.8858182 5.49691516,37.2923794 5.11418177,37.676602 C4.79846396,38.0042337 4.49317079,38.2648498 4.19979151,38.4569611 C3.90492299,38.6475832 3.63090375,38.7890605 3.37773381,38.8769254 C3.12456387,38.9662795 2.89522168,39.0243596 2.69119649,39.0511659 C2.48568207,39.0794613 2.31442005,39.0928644 2.17741043,39.0928644 C1.51916858,39.0928644 0.996447111,38.8605438 0.606267552,38.3944132 C0.216087993,37.9297719 0.055250617,37.25217 0.123755425,36.3616075 C0.13715854,36.0473789 0.198217173,35.6914518 0.30842056,35.2938261 C0.418623947,34.8962003 0.564568973,34.4926176 0.749234108,34.083078 C0.935388478,33.6720492 1.16026296,33.2639988 1.42683601,32.8604161 C1.69489831,32.4568335 2.00614841,32.0904817 2.36207557,31.7613607 C2.89522168,31.2416177 3.39560463,30.888669 3.86173517,30.7040039 C4.32637648,30.5193388 4.77165773,30.4270062 5.19608969,30.4270062" id="Fill-20" fill="#231F20"></path>
                <path d="M11.8076972,31.4748319 C11.7391924,31.6535401 11.6677091,31.8888392 11.5917581,32.1837078 C11.5172964,32.4770871 11.4309208,32.7823802 11.3356097,33.0966088 C11.0064888,34.2462982 10.6892818,35.3855629 10.3810101,36.5158923 C10.0727385,37.6462216 9.74659603,38.7780402 9.40556123,39.9143264 C9.11813888,40.8450983 8.8292273,41.591205 8.54329419,42.1526466 C8.25587184,42.7140882 8.00121266,43.0893754 7.78229512,43.2814867 C7.71379032,43.3499915 7.6110331,43.4423241 7.47551272,43.5584844 C7.33850311,43.6746447 7.17021956,43.7878266 6.97215131,43.89803 C6.77408306,44.0082333 6.54474087,44.1065228 6.28412476,44.1958769 C6.02350864,44.285231 5.74353247,44.3284189 5.442707,44.3284189 C5.20889712,44.3284189 5.0078504,44.291188 4.83658838,44.2167262 C4.66532636,44.1407753 4.52533827,44.0484427 4.41513488,43.9397285 C4.30642073,43.8295251 4.22749128,43.7133648 4.17834652,43.5897583 C4.13218024,43.4661518 4.10686325,43.3633946 4.10686325,43.2814867 C4.10686325,43.049166 4.156008,42.8808825 4.25131904,42.7781253 C4.34663007,42.6753681 4.428538,42.5964386 4.4970428,42.5428261 C4.64745554,42.4192196 4.7651051,42.3849672 4.84701302,42.4400689 C4.92892094,42.4936814 5.01082887,42.5904817 5.09273679,42.7274913 C5.24314952,42.9598119 5.43526083,43.1444771 5.66758148,43.2814867 C5.90139137,43.4184963 6.12030891,43.4870011 6.3243341,43.4870011 C6.51644541,43.4870011 6.7249383,43.3767977 6.95130202,43.1593694 C7.17766573,42.9389626 7.39956174,42.4817675 7.61847928,41.7833163 C8.13822228,40.0587822 8.59690665,38.3297804 8.99453238,36.5978002 C9.39066888,34.8658199 9.83595013,33.1576674 10.3288869,31.4748319 L8.62520211,31.4748319 C8.51499872,31.3795209 8.47776785,31.2529359 8.51202025,31.095077 C8.54627266,30.9372181 8.63115905,30.8106331 8.76816867,30.7153221 L10.5344013,30.7153221 C10.7935282,29.7979534 11.0883967,28.9356863 11.4175177,28.1270317 C11.7451493,27.3198664 12.2112799,26.5529104 12.8129308,25.827653 C13.334163,25.2111097 13.88518,24.7732746 14.4674709,24.5141477 C15.0482725,24.2535316 15.6469449,24.1239682 16.2634882,24.1239682 C16.7013233,24.1239682 17.0915029,24.2460854 17.4340269,24.4932984 C17.7750617,24.7405114 17.947813,25.0681431 17.947813,25.479172 C17.947813,25.6429878 17.916539,25.8008467 17.8554804,25.9512595 C17.7929325,26.1016722 17.7184708,26.2357033 17.6291167,26.3518637 C17.5397626,26.468024 17.4444515,26.5648243 17.3416943,26.639286 C17.2389371,26.7137478 17.1466045,26.7524679 17.0646966,26.7524679 C16.9678963,26.7524679 16.8993915,26.7137478 16.8591822,26.639286 C16.8174836,26.5648243 16.7906774,26.4918518 16.775785,26.4233469 C16.7638712,26.1225215 16.7147264,25.8693515 16.6328185,25.6638371 C16.5509106,25.4583227 16.4481533,25.2945069 16.3245468,25.1709003 C16.2024296,25.0472938 16.0713769,24.959429 15.9343673,24.9043273 C15.7973577,24.8492256 15.6603481,24.8224194 15.5248277,24.8224194 C15.222513,24.8224194 14.9425368,24.9177304 14.6819207,25.1098417 C14.4213046,25.3004638 14.1681346,25.574483 13.9224109,25.9304102 C13.4428772,26.6288614 13.0705685,27.380925 12.8025062,28.1895796 C12.5359331,28.996745 12.2663816,29.8396519 11.9923624,30.7153221 L14.5598034,30.7153221 C14.6283082,30.8240363 14.6476683,30.9506212 14.6208621,31.095077 C14.5940558,31.2380436 14.5047017,31.3646285 14.3527998,31.4748319 L11.8076972,31.4748319 Z" id="Fill-22" fill="#231F20"></path>
                <path d="M21.4375372,31.7008978 L19.5893966,37.1008638 C19.5208918,37.2929751 19.5074887,37.4270062 19.5476981,37.501468 C19.5893966,37.5774189 19.6519445,37.6146498 19.7338524,37.6146498 C19.8157604,37.6146498 19.9483023,37.5565697 20.1344566,37.4404093 C20.3191218,37.3227598 20.5276147,37.172347 20.7599353,36.9876819 C20.992256,36.8030168 21.2290443,36.60197 21.4688112,36.3830525 C21.708578,36.164135 21.9096247,35.9586205 22.0749298,35.7665092 C22.3072504,35.7665092 22.4025615,35.8901157 22.3623521,36.1358395 C22.0749298,36.5602715 21.7487873,36.9534295 21.3869032,37.3168028 C21.0235299,37.6801762 20.6571781,37.9914263 20.2878478,38.2505531 C19.9185176,38.5111693 19.5700366,38.7166837 19.2409157,38.8670964 C18.9117947,39.0175091 18.6377755,39.0919709 18.418858,39.0919709 C18.2684452,39.0919709 18.1388818,39.0309123 18.0286784,38.9073058 C17.9199643,38.7851885 17.8648626,38.661582 17.8648626,38.5379755 C17.8648626,38.4024551 17.8857119,38.2505531 17.9274104,38.0867373 C17.9676198,37.9229215 18.0420815,37.6831546 18.1522849,37.3674368 L20.0823334,31.7008978 L18.4814058,31.7008978 C18.4531104,31.5906944 18.4575781,31.4790018 18.4903412,31.3613522 C18.5245937,31.2451919 18.5975662,31.1662624 18.7077696,31.1260531 L20.3503957,30.8386308 L21.5000851,28.805825 C21.6087993,28.7373202 21.7458089,28.7134925 21.9096247,28.7328525 C22.0749298,28.7537018 22.1970471,28.8192282 22.278955,28.9279423 L21.6847502,30.941388 L23.9215811,30.941388 C23.990086,31.0501021 24.0005106,31.1871117 23.9528551,31.3509276 C23.9051996,31.5147434 23.812867,31.632393 23.6758574,31.7008978 L21.4375372,31.7008978 Z" id="Fill-24" fill="#231F20"></path>
                <path d="M29.0960769,24.2466811 C28.9858735,24.5341035 28.8712025,24.8602459 28.7475959,25.22213 C28.6239894,25.5840141 28.494426,25.9548336 28.3574164,26.3301208 C28.2204068,26.7068973 28.0863756,27.0806953 27.9568122,27.4500255 C27.8257595,27.8193558 27.7140669,28.1484767 27.6172666,28.4358991 L25.502553,34.5760148 L25.5442516,34.6162242 C25.9001787,34.1098843 26.2352566,33.6720492 26.5509744,33.3027189 C26.865203,32.9333886 27.1556038,32.6176708 27.4221768,32.3570547 C27.6902391,32.0979278 27.9359629,31.8790103 28.1623266,31.7003021 C28.3872011,31.5230831 28.5971832,31.3652242 28.7878053,31.2282146 C29.5279551,30.6950685 30.1772615,30.4270062 30.7387031,30.4270062 C31.1914305,30.4270062 31.5086376,30.5684835 31.6933027,30.8484597 C31.8794571,31.1299251 31.9717896,31.4471322 31.9717896,31.8030593 C31.9717896,32.1589865 31.9196664,32.5461876 31.8169092,32.9631733 C31.714152,33.3816484 31.587567,33.8045911 31.4371543,34.2364692 C31.2867416,34.6683474 31.1154795,35.0883116 30.9248575,35.4993405 C30.7327461,35.9103693 30.548081,36.2796996 30.3693728,36.6073313 C30.1638584,36.9647477 29.958344,37.2655731 29.7528295,37.5112969 C29.5488044,37.7585099 29.3090375,38.019126 29.0350183,38.291656 C28.6924943,38.6341801 28.3916688,38.8530976 28.1310527,38.9498979 C27.8704366,39.0452089 27.6723683,39.0928644 27.5353587,39.0928644 C27.3715428,39.0928644 27.2375117,39.0690367 27.1362437,39.0213812 C27.0319973,38.9722364 26.9545571,38.9186239 26.8994554,38.8575653 C26.8443537,38.7950174 26.8101013,38.7309803 26.7966982,38.6609863 C26.783295,38.5924815 26.7758489,38.538869 26.7758489,38.4971705 C26.7758489,38.3199515 26.833929,38.1650711 26.9500894,38.0355076 C27.0662497,37.9044549 27.1928347,37.8404178 27.3298443,37.8404178 C27.4132414,37.8404178 27.5085525,37.8806272 27.6172666,37.9625351 C27.7006638,38.0325291 27.7929963,38.0935878 27.8942643,38.1472002 C27.9985108,38.2037912 28.0833972,38.2305974 28.151902,38.2305974 C28.3023147,38.2305974 28.4393243,38.1472002 28.5629308,37.9833844 C28.6865373,37.8195685 28.8220577,37.5589524 28.9724704,37.2030253 C29.10948,36.8753936 29.2643605,36.4643647 29.4356225,35.971428 C29.6053953,35.4784912 29.7662327,34.9795975 29.9181346,34.4732576 C30.0685474,33.9654285 30.1951323,33.4844056 30.2978895,33.0257212 C30.3991575,32.5655476 30.4512807,32.1932389 30.4512807,31.9058165 C30.4512807,31.4947877 30.306825,31.2892733 30.0208918,31.2892733 C29.8704791,31.2892733 29.6947494,31.3443749 29.4966811,31.4545783 C29.2986129,31.5647817 29.1035231,31.6928559 28.9114118,31.8447579 C28.6924943,32.0085737 28.4840014,32.1768573 28.2859331,32.3466301 C28.0863756,32.5193813 27.8853289,32.7144711 27.6798145,32.9333886 C27.4743001,33.150817 27.258361,33.3950515 27.0319973,33.6616245 C26.8071228,33.9281976 26.5628883,34.2334908 26.3037614,34.5760148 C26.0714407,34.8902434 25.8346524,35.2387244 25.5948855,35.622947 C25.3551187,36.0056804 25.1257765,36.3928815 24.906859,36.783061 C24.6879415,37.1732406 24.4868947,37.550017 24.3022296,37.9119011 C24.1175645,38.2752744 23.9552379,38.5865246 23.8197175,38.8456514 C23.7363203,39.0109565 23.614203,39.0928644 23.448898,39.0928644 C23.3937963,39.0928644 23.322313,39.0854183 23.2329589,39.0720151 C23.145094,39.058612 23.0661646,39.0347843 22.9976598,39.0005319 C22.929155,38.9662795 22.878521,38.9141562 22.8442686,38.8456514 C22.8100162,38.7771466 22.8129946,38.6818356 22.8546932,38.5582291 L26.7549996,27.0181474 C26.865203,26.6771126 26.9545571,26.4001149 27.0215726,26.1871543 C27.0900774,25.9756829 27.1362437,25.7999532 27.1556038,25.6629436 C27.1764531,25.525934 27.1719854,25.4201983 27.1451791,25.3457365 C27.1183729,25.2697856 27.0632712,25.2057484 26.9813633,25.1506468 L26.5509744,24.8632244 C26.5092758,24.753021 26.5301251,24.6636669 26.612033,24.5951621 C26.6939409,24.5549528 26.8309506,24.5102757 27.0215726,24.4626202 C27.2136839,24.4149647 27.429623,24.3673092 27.6693898,24.3181644 C27.9091567,24.2705089 28.1489235,24.2302995 28.3872011,24.1945579 C28.6269679,24.1617947 28.8354608,24.137967 29.014169,24.1230746 L29.0960769,24.2466811 Z" id="Fill-26" fill="#231F20"></path>
                <path d="M37.5363161,31.063952 C37.3844141,31.063952 37.1803889,31.1294783 36.9197728,31.2590418 C36.6606459,31.3900945 36.3449281,31.653689 35.9755978,32.0498255 C35.5779721,32.4876606 35.2562973,32.9225172 35.0105736,33.3543954 C34.7648498,33.7847843 34.5801847,34.1511361 34.4565782,34.4519615 C34.797613,34.3566505 35.09546,34.2538933 35.3486299,34.1436899 C35.6032891,34.0349757 35.8341205,33.9217939 36.0470811,33.8056336 C36.2600417,33.6894732 36.4581099,33.5584206 36.6427751,33.415454 C36.8274402,33.2709982 37.0150838,33.1116501 37.2071951,32.9329419 C37.5229129,32.6321164 37.7343843,32.3476725 37.8445877,32.0810995 C37.9533018,31.8130372 38.0084035,31.6328398 38.0084035,31.5360395 C38.0084035,31.4273253 37.9771296,31.3201004 37.916071,31.2188324 C37.8550123,31.1160752 37.7269381,31.063952 37.5363161,31.063952 M37.9473449,30.4280487 C38.1528593,30.4280487 38.3330568,30.4652796 38.4909157,30.5397413 C38.6487746,30.6156923 38.7857842,30.715471 38.9019445,30.8390775 C39.0181048,30.9611948 39.1029912,31.0952259 39.1580929,31.2381925 C39.2131946,31.3826483 39.2414901,31.5226364 39.2414901,31.659646 C39.2414901,32.0572717 39.1208621,32.4161773 38.8810952,32.7378521 C38.6413284,33.0595268 38.2988044,33.3603523 37.8550123,33.6403285 C37.4097311,33.9217939 36.8825419,34.1779423 36.2734448,34.4117522 C35.6643477,34.6440728 34.9897243,34.8629904 34.2510637,35.0685048 C34.1825589,35.247213 34.1170326,35.4929368 34.055974,35.8071653 C33.9949153,36.1213939 33.9636414,36.4847673 33.9636414,36.8957961 C33.9636414,37.2517233 34.0589524,37.5361671 34.2510637,37.7476385 C34.4416858,37.9605991 34.6754957,38.0663348 34.9495149,38.0663348 C35.3188452,38.0663348 35.6569015,37.966556 35.9651732,37.7684878 C36.2734448,37.5704195 36.6531997,37.2725725 37.1044379,36.8749468 C37.199749,36.8749468 37.2756999,36.9091992 37.3308016,36.977704 C37.3844141,37.0462088 37.3993064,37.1281168 37.3725002,37.224917 C37.0567824,37.6076504 36.7485108,37.921879 36.4476853,38.169092 C36.1468598,38.4148158 35.8594375,38.6069271 35.5854183,38.7439367 C35.311399,38.8809463 35.0478044,38.9732789 34.7946345,39.0209344 C34.5414646,39.0685899 34.3061654,39.0924177 34.0872479,39.0924177 C33.7715301,39.0924177 33.510914,39.0283806 33.3068888,38.8973279 C33.0998851,38.7677644 32.9301123,38.6009701 32.7931027,38.3939665 C32.6560931,38.1899413 32.5592928,37.9561314 32.5056804,37.6970045 C32.4505787,37.4363884 32.4222832,37.1832184 32.4222832,36.9360054 C32.4222832,36.6083738 32.4773849,36.2181942 32.5875883,35.766956 C32.6963024,35.3142286 32.8720322,34.8391626 33.1103098,34.3387797 C33.3500766,33.839886 33.6657944,33.3365246 34.055974,32.8301847 C34.4461535,32.3238448 34.9212195,31.8517573 35.4826611,31.412433 C36.0158072,31.0014041 36.4849162,30.7348311 36.8884989,30.6127138 C37.2920815,30.4891073 37.6450302,30.4280487 37.9473449,30.4280487" id="Fill-28" fill="#231F20"></path>
                <path d="M3.29403881,69.9854055 C3.97164071,70.109012 4.95751425,70.1402859 6.00593567,70.1402859 C11.7365118,70.1402859 14.8490128,66.9354523 14.8490128,61.3269934 C14.8802868,56.4274104 12.1058421,53.3149094 6.43632457,53.3149094 C5.05133606,53.3149094 4.00291465,53.4385159 3.29403881,53.5933963 L3.29403881,69.9854055 Z M0.613415879,51.62016 C2.24561739,51.3744362 4.18757978,51.1882818 6.3142073,51.1882818 C10.1653689,51.1882818 12.9085397,52.0833121 14.7254063,53.7780614 C16.5750362,55.4728108 17.6532423,57.876436 17.6532423,61.2346609 C17.6532423,64.6241596 16.6048209,67.3971151 14.6643477,69.3078036 C12.7238746,71.249766 9.51904093,72.2966982 5.48172496,72.2966982 C3.57252574,72.2966982 1.96861969,72.2043656 0.613415879,72.0494852 L0.613415879,51.62016 Z" id="Fill-30" fill="#231F20"></path>
                <path d="M27.9733427,72.1117352 L27.9733427,63.2999319 L21.4102842,51.3428644 L24.4602374,51.3428644 L27.3880734,57.0749298 C28.1892818,58.6460727 28.805825,59.9104332 29.452153,61.3579695 L29.5147009,61.3579695 C30.0999702,60.0027657 30.8073568,58.6460727 31.6085652,57.0749298 L34.5974598,51.3428644 L37.6489022,51.3428644 L30.6852396,63.268658 L30.6852396,72.1117352 L27.9733427,72.1117352 Z" id="Fill-32" fill="#231F20"></path>
                <path d="M42.8853502,72.1117352 L42.8853502,51.3428644 L45.8116969,51.3428644 L52.4685771,61.8509063 C54.0084461,64.2858055 55.2102587,66.4720024 56.1961322,68.5986299 L56.2571909,68.5688452 C56.0114671,65.7944005 55.9489192,63.268658 55.9489192,60.0325504 L55.9489192,51.3428644 L58.476151,51.3428644 L58.476151,72.1117352 L55.7642541,72.1117352 L49.1714109,61.5739086 C47.7223853,59.2626159 46.3359076,56.8902647 45.2889754,54.6400306 L45.1966428,54.6713046 C45.350034,57.2908689 45.4110927,59.7868267 45.4110927,63.2373841 L45.4110927,72.1117352 L42.8853502,72.1117352 Z" id="Fill-34" fill="#231F20"></path>
                <path d="M76.4069866,63.4838524 L74.3726917,57.5060633 C73.9110288,56.1508595 73.6027572,54.917773 73.2944856,53.7159603 L73.2334269,53.7159603 C72.9251553,54.9490469 72.587099,56.2119181 72.1864948,57.4747894 L70.1521998,63.4838524 L76.4069866,63.4838524 Z M69.5967152,65.579206 L67.440303,72.1109906 L64.6673475,72.1109906 L71.7233427,51.3436091 L74.9594503,51.3436091 L82.0467194,72.1109906 L79.1799421,72.1109906 L76.9624713,65.579206 L69.5967152,65.579206 Z" id="Fill-36" fill="#231F20"></path>
                <path d="M87.8058889,68.8452472 C89.0077015,69.585397 90.7635095,70.2019403 92.6131393,70.2019403 C95.3548209,70.2019403 96.9572377,68.7529146 96.9572377,66.6575611 C96.9572377,64.7170879 95.8477576,63.6061186 93.0450174,62.5279125 C89.6555187,61.3275891 87.5586759,59.5702919 87.5586759,56.6439452 C87.5586759,53.4078376 90.240788,51.0042124 94.2766148,51.0042124 C96.4032423,51.0042124 97.9431112,51.4971492 98.8679261,52.0213599 L98.1292656,54.209046 C97.4501745,53.8397158 96.0636967,53.2231725 94.1842822,53.2231725 C91.3487788,53.2231725 90.2705727,54.9179219 90.2705727,56.3356736 C90.2705727,58.2761467 91.533444,59.2307463 94.4002213,60.3417156 C97.9133265,61.6969194 99.7004085,63.3916688 99.7004085,66.441622 C99.7004085,69.6464556 97.3280572,72.4194111 92.4284742,72.4194111 C90.4254532,72.4194111 88.237767,71.8341418 87.128287,71.0954812 L87.8058889,68.8452472 Z" id="Fill-38" fill="#231F20"></path>
                <polygon id="Fill-40" fill="#231F20" points="110.391031 53.6234789 104.073696 53.6234789 104.073696 51.3434601 119.450047 51.3434601 119.450047 53.6234789 113.101438 53.6234789 113.101438 72.1123309 110.391031 72.1123309"></polygon>
                <g id="Group-44" transform="translate(123.761680, 51.342864)">
                    <mask id="mask-4" fill="white">
                        <use xlink:href="#path-3"></use>
                    </mask>
                    <g id="Clip-43"></g>
                    <path d="M6.56305846,20.7688707 L6.56305846,11.9570675 L0,0 L3.0499532,0 L5.97778912,5.73206536 C6.77899753,7.30320824 7.39554081,8.56756872 8.04186878,10.0151051 L8.10441665,10.0151051 C8.68968598,8.65990128 9.39707259,7.30320824 10.198281,5.73206536 L13.1871756,0 L16.238618,0 L9.27495532,11.9257935 L9.27495532,20.7688707 L6.56305846,20.7688707 Z" id="Fill-42" fill="#231F20" mask="url(#mask-4)"></path>
                </g>
            </g>
        </g>
    </g>
</svg>