<?xml version="1.0" encoding="UTF-8"?>
<svg width="40px" height="10px" viewBox="0 0 40 10" version="1.1" xmlns="http://www.w3.org/2000/svg" xmlns:xlink="http://www.w3.org/1999/xlink">
    <title>pattern1</title>
    <g id="Page-1" stroke="none" stroke-width="1" fill="none" fill-rule="evenodd">
        <g id="A2" transform="translate(-576.000000, -838.000000)" fill="#020303">
            <g id="pattern1" transform="translate(576.000000, 838.000000)">
                <path d="M3.07440878,9.79495996 C4.90606514,7.92881773 6.95071759,5.41440162 8.77576942,3.56876036 C9.68114043,2.65231165 10.4681803,2.27055037 11.5766406,3.16206547 C13.5029619,4.7112738 15.3280137,7.08384537 17.0176727,8.89236326 C17.2455289,9.13615856 17.4568739,9.34837129 17.6418008,9.54174529 C18.1729151,9.54285345 18.7045797,9.54451569 19.2362444,9.54839426 C19.6550817,9.55116466 20.073919,9.55448914 20.4927563,9.55781362 C20.1872967,8.90067446 19.6297643,8.20585785 18.8273139,7.40354967 C16.8492571,5.42769955 14.1458028,2.45616725 11.9261303,0.637121837 C10.2771993,-0.714279856 9.70976006,0.275861524 8.07899149,1.82063722 C5.67384177,4.09679882 2.51907787,6.55691507 0.458464467,9.15333505 C0.25867743,9.40488747 0.10842437,9.64369606 0,9.87363935 C1.02480293,9.85535471 2.04960585,9.82709661 3.07440878,9.79495996" id="Fill-3"></path>
                <path d="M36.8127992,0.0786783906 C34.9811428,1.94479684 32.9364903,4.4591809 31.1114385,6.30479864 C30.2060675,7.22123566 29.4190277,7.60299208 28.3105674,6.71148834 C26.3842461,5.16229975 24.5591942,2.78975843 22.8695353,0.981263589 C22.641679,0.737471393 22.430334,0.525261368 22.2454072,0.331889831 C21.7142929,0.330781684 21.1826282,0.328565392 20.6509635,0.325240953 C20.2321262,0.322470587 19.813289,0.319146148 19.3944517,0.315821709 C19.6999112,0.972952492 20.2574436,1.66776025 21.059894,2.47005821 C23.0379508,4.44588314 25.7414051,7.41737757 27.9610776,9.23639979 C29.6100087,10.5877843 30.1774479,9.5976555 31.8082164,8.0528995 C34.2133662,5.7767669 37.3681301,3.31668201 39.4287435,0.720295125 C39.6285305,0.468745904 39.7787836,0.229940367 39.8872079,0 C38.862405,0.0182844147 37.8376021,0.0465421465 36.8127992,0.0786783906" id="Fill-9"></path>
            </g>
        </g>
    </g>
</svg>