<svg version="1.1" id="Layer_1" xmlns="http://www.w3.org/2000/svg" x="0" y="0" viewBox="0 0 1280 259.5" xml:space="preserve"><style>.st0{fill:#da501a}</style><path class="st0" d="M872.9 131.3l2.2-1.9-2.2-1.9c-3.1-2.7-6.4-5.1-9.9-7.2-2.1-1.2-4.3-2.3-6.5-3.2 1.7-1.7 3.3-3.5 4.8-5.4 2.5-3.2 4.7-6.7 6.5-10.4l1.3-2.6-2.8-1c-3.9-1.3-7.9-2.3-11.9-2.9-2.7-.4-5.4-.5-8.1-.6 1-2.5 1.9-5.1 2.6-7.7 1.1-3.9 1.7-8 2-12.1l.2-2.9-3 .2c-4.1.3-8.1.9-12.1 2-2.3.6-4.6 1.4-6.9 2.3 0-2.4-.2-4.8-.5-7.2-.5-4-1.4-8-2.7-11.9l-.9-2.8-2.6 1.3c-3.7 1.8-7.2 3.9-10.5 6.4-2.2 1.6-4.2 3.4-6.1 5.3-1-2.5-2.2-5-3.6-7.3-2-3.5-4.5-6.8-7.2-9.9l-1.9-2.2-1.9 2.2c-2.7 3.1-5.1 6.4-7.2 9.9-1.2 2.1-2.3 4.3-3.3 6.5-1.7-1.7-3.5-3.3-5.4-4.8-3.2-2.5-6.7-4.7-10.3-6.5l-2.6-1.3-1 2.8c-1.4 3.9-2.3 7.9-2.9 11.9-.4 2.7-.6 5.4-.6 8.1-2.5-1-5.1-1.9-7.7-2.6-3.9-1.1-8-1.7-12.1-2l-2.9-.2.2 2.9c.3 4.1.9 8.1 2 12.1.6 2.3 1.4 4.6 2.3 6.9-2.4 0-4.8.2-7.2.5-4 .5-8.1 1.4-12 2.7l-2.8.9 1.3 2.6c1.8 3.7 3.9 7.2 6.4 10.5 1.6 2.2 3.4 4.2 5.3 6.1-2.5 1-5 2.2-7.3 3.6-3.5 2-6.9 4.5-9.9 7.2l-2.2 1.9 2.2 1.9c3.1 2.7 6.4 5.1 9.9 7.2 2.1 1.2 4.3 2.3 6.5 3.2-1.7 1.7-3.3 3.5-4.8 5.4-2.5 3.2-4.7 6.7-6.5 10.3l-1.3 2.6 2.8 1c3.9 1.4 7.9 2.3 11.9 2.9 2.7.4 5.4.6 8.1.6-1 2.5-1.9 5.1-2.6 7.7-1 3.9-1.7 8-2 12.1l-.2 2.9 2.9-.2c4.1-.3 8.2-.9 12.1-2 2.3-.6 4.6-1.4 6.9-2.3 0 2.4.2 4.8.5 7.2.5 4 1.4 8.1 2.7 12l.9 2.8 2.6-1.3c3.7-1.8 7.2-3.9 10.5-6.4 2.2-1.6 4.2-3.4 6.1-5.3 1 2.5 2.2 4.9 3.6 7.3 2 3.5 4.4 6.9 7.2 9.9l1.9 2.2 1.9-2.2c2.7-3.1 5.1-6.4 7.2-9.9 1.2-2.1 2.3-4.3 3.2-6.5 1.7 1.7 3.5 3.3 5.4 4.8 3.2 2.5 6.7 4.7 10.4 6.5l2.6 1.3 1-2.8c1.3-3.9 2.3-7.9 2.9-11.9.4-2.7.6-5.4.6-8.1 2.5 1 5.1 1.9 7.7 2.6 3.9 1 8 1.7 12.1 2l3 .2-.2-2.9c-.3-4.1-.9-8.2-2-12.1-.6-2.3-1.4-4.6-2.3-6.9 2.4 0 4.8-.2 7.2-.5 4-.5 8-1.4 11.9-2.7l2.8-.9-1.3-2.6c-1.8-3.7-3.9-7.2-6.4-10.5-1.6-2.2-3.4-4.3-5.3-6.2 2.5-1 5-2.2 7.3-3.6 3.6-2 6.9-4.3 10-7.1zm-16.1 20.1c1.6 2.2 3.1 4.5 4.4 6.9-2.6.7-5.3 1.2-8 1.6-3 .4-6 .5-8.9.4-2.5-4.9-5.7-9.5-9.4-13.5 5.2-.2 10.4-1.1 15.3-2.6 2.4 2.1 4.6 4.5 6.6 7.2zm-8.3-12.3c-1.1.3-2.1.6-3.2.9-4.3 1-8.7 1.6-13.1 1.6-.9 0-1.8 0-2.6-.1-1.6-.1-3.1-.2-4.7-.4-2.2-.3-4.4-.7-6.5-1.2 1.9 1.1 3.7 2.4 5.5 3.7l3.6 3c.6.6 1.3 1.2 1.9 1.8 3.4 3.4 6.3 7.2 8.7 11.3.6.9 1.1 1.8 1.6 2.8.5.9.9 1.8 1.3 2.7 1.2 2.7 2.2 5.5 3 8.5.7 2.6 1.2 5.3 1.5 8.1-2.7-.3-5.4-.8-8-1.5-3.2-.9-6.3-2-9.3-3.4-.9-.4-1.8-.9-2.7-1.3-.9-.5-1.9-1.1-2.8-1.7-3.8-2.3-7.3-5.1-10.4-8.2-.6-.6-1.3-1.3-1.8-2-1.1-1.1-2-2.3-3-3.5-1.4-1.8-2.6-3.7-3.8-5.6.5 2.2 1 4.4 1.2 6.6.2 1.6.4 3.1.4 4.7.1.9.1 1.8.1 2.7 0 4.8-.6 9.5-1.8 14.1-.3 1.1-.6 2.1-.9 3.1-.3 1-.6 1.9-1 2.9-1.1 2.8-2.3 5.5-3.8 8.1-1.4 2.4-2.9 4.6-4.6 6.8-1.7-2.2-3.2-4.4-4.6-6.8-1.7-2.9-3.1-5.9-4.2-9-.3-1-.7-1.9-1-2.9-.3-1-.6-2.1-.9-3.2-1-4.3-1.6-8.7-1.6-13.1 0-.9 0-1.8.1-2.7.1-1.6.2-3.1.4-4.6.3-2.2.7-4.4 1.2-6.5-1.1 1.9-2.4 3.8-3.7 5.5-1 1.2-1.9 2.4-3 3.5-.6.7-1.2 1.3-1.9 2-3.4 3.4-7.2 6.3-11.3 8.7-.9.6-1.8 1.1-2.8 1.6-.9.5-1.8.9-2.7 1.3-2.7 1.2-5.5 2.2-8.5 3-2.6.7-5.3 1.2-8.1 1.5.3-2.7.8-5.4 1.5-8.1.9-3.2 2-6.3 3.4-9.3.4-.9.9-1.8 1.3-2.7.3-.5.6-1 .9-1.6.3-.4.5-.9.8-1.3 2.3-3.8 5-7.3 8.2-10.4.6-.6 1.3-1.2 1.9-1.8 1.2-1 2.3-2 3.6-3 1.7-1.3 3.6-2.6 5.5-3.7-2.1.6-4.3 1-6.5 1.2-1.5.2-3.1.4-4.7.4-.9.1-1.8.1-2.7.1-4.8 0-9.5-.6-14.1-1.8-1-.3-2.1-.6-3.1-.9-1-.3-1.9-.6-2.9-1-2.8-1.1-5.5-2.4-8.1-3.9-2.4-1.4-4.6-2.9-6.8-4.6 2.2-1.7 4.4-3.2 6.8-4.6 2.9-1.7 5.9-3 8.9-4.2 1-.3 1.9-.6 2.9-1 1-.3 2.1-.6 3.2-.9 4.3-1 8.7-1.6 13.1-1.6.9 0 1.8 0 2.7.1 1.6.1 3.1.2 4.7.4 2.2.3 4.4.7 6.5 1.2-1.9-1.1-3.7-2.4-5.5-3.7-1.3-1-2.5-2-3.6-3-.6-.6-1.3-1.2-1.9-1.8-3.4-3.4-6.3-7.2-8.7-11.3-.6-.9-1.1-1.9-1.6-2.9-.5-.9-.9-1.8-1.3-2.7-1.2-2.7-2.3-5.6-3-8.5-.7-2.6-1.2-5.3-1.5-8 2.7.3 5.4.8 8.1 1.5 3.2.9 6.3 2 9.3 3.4.9.4 1.8.9 2.7 1.3 1 .5 1.9 1.1 2.9 1.7 3.8 2.3 7.3 5 10.4 8.2.6.6 1.3 1.3 1.9 2 1 1.1 2 2.3 3 3.5 1.3 1.8 2.6 3.6 3.7 5.5-.6-2.2-1-4.3-1.2-6.5-.2-1.5-.4-3.1-.4-4.6-.1-.9-.1-1.8-.1-2.7 0-4.8.6-9.5 1.8-14.1.3-1 .6-2.1.9-3.1.3-1 .6-1.9 1-2.9 1.1-2.8 2.4-5.5 3.9-8.1 1.4-2.3 2.9-4.6 4.6-6.8 1.7 2.2 3.2 4.4 4.6 6.8 1.7 2.9 3.1 5.9 4.1 9 .4.9.7 1.9 1 2.9.3 1 .6 2.1.9 3.2 1 4.3 1.6 8.7 1.6 13.1 0 .9 0 1.8-.1 2.7-.1 1.6-.2 3.1-.4 4.6-.3 2.2-.7 4.4-1.2 6.6 1.1-1.9 2.4-3.8 3.8-5.6.9-1.2 1.9-2.4 3-3.5.6-.7 1.2-1.3 1.8-2 3.4-3.4 7.2-6.3 11.3-8.7.9-.6 1.9-1.1 2.8-1.6.9-.5 1.8-.9 2.7-1.3 2.7-1.2 5.6-2.2 8.5-3 2.6-.7 5.3-1.2 8-1.5-.3 2.7-.8 5.4-1.5 8-.9 3.2-2 6.3-3.4 9.3-.4.9-.9 1.8-1.3 2.7-.5 1-1.1 1.9-1.7 2.8-2.3 3.8-5.1 7.3-8.2 10.4-.6.6-1.3 1.2-1.9 1.8-1.2 1.1-2.4 2.1-3.6 3-1.7 1.3-3.6 2.6-5.5 3.7 2.2-.6 4.3-1 6.5-1.2 1.6-.2 3.1-.4 4.7-.4.9-.1 1.8-.1 2.6-.1 4.8 0 9.6.6 14.2 1.8 1 .3 2.1.5 3.1.9 1 .3 1.9.6 2.9 1 2.8 1.1 5.5 2.4 8.1 3.9 2.4 1.4 4.6 2.9 6.8 4.6-2.2 1.7-4.4 3.2-6.8 4.6-2.9 1.7-5.9 3.1-9 4.2-1.1.6-2 .9-3 1.1zM822.7 190c-.4 2.7-1 5.4-1.7 8-2.4-1.3-4.7-2.9-6.8-4.5-2.4-1.9-4.6-3.9-6.6-6.1 1.7-5.2 2.7-10.7 2.9-16.2 3.9 3.6 8.1 6.6 12.7 9 .1 3.2-.1 6.5-.5 9.8zm-58.4 7.5c-.8-2.6-1.3-5.3-1.6-8-.4-3-.5-6-.4-9 4.9-2.5 9.4-5.7 13.5-9.4.2 5.2 1.1 10.4 2.6 15.3-2.2 2.4-4.7 4.6-7.3 6.6-2.1 1.7-4.4 3.2-6.8 4.5zm-31.7-38.6c-2.7-.4-5.4-1-8-1.7 1.4-2.4 2.9-4.7 4.6-6.8 1.8-2.4 3.9-4.6 6.1-6.6 5.2 1.7 10.7 2.7 16.2 2.9-3.5 3.8-6.6 8.1-9 12.7-3.3.1-6.7 0-9.9-.5zm-3.1-51.5c-1.6-2.2-3.1-4.5-4.4-6.9 2.6-.7 5.3-1.3 8-1.6 3-.4 6-.5 9-.4 2.5 4.9 5.7 9.4 9.4 13.5-5.2.2-10.4 1.1-15.4 2.6-2.4-2.1-4.7-4.5-6.6-7.2zm34.1-38.6c.4-2.7 1-5.4 1.7-8 2.4 1.3 4.7 2.9 6.8 4.5 2.4 1.9 4.6 3.9 6.6 6.1-1.7 5.2-2.7 10.7-2.9 16.2-3.8-3.5-8.1-6.5-12.7-9-.1-3.2.1-6.5.5-9.8zm58.4-7.5c.7 2.6 1.3 5.3 1.6 8 .3 2.3.4 4.6.4 6.9 0 .7 0 1.4-.1 2.1-4.9 2.5-9.5 5.7-13.5 9.4-.2-5.2-1.1-10.4-2.6-15.3 2.2-2.4 4.6-4.7 7.3-6.7 2.2-1.6 4.5-3.1 6.9-4.4zm31.7 38.6c2.7.4 5.4 1 8 1.7-1.3 2.4-2.9 4.7-4.5 6.8-1.9 2.4-3.9 4.6-6.1 6.6-5.2-1.7-10.7-2.7-16.2-2.9 3.6-3.8 6.6-8.1 9-12.7 3.2-.1 6.5 0 9.8.5z"/><path class="st0" d="M810.9 129c0-.3 0-.5-.1-.7 0-.6-.1-1.3-.2-1.9 0-.3-.1-.5-.1-.7-.1-.6-.3-1.3-.5-1.9l-.3-.6c-.1-.4-.3-.7-.4-1.1-.1-.1-.1-.3-.2-.4-.3-.6-.6-1.3-1-1.9-.1-.2-.2-.3-.3-.4-.4-.6-.9-1.2-1.3-1.7l-.3-.3c-.2-.3-.5-.5-.8-.8-.2-.2-.4-.3-.5-.5-.5-.5-1-.9-1.5-1.2-.2-.2-.4-.3-.6-.4-.5-.4-1.1-.7-1.7-1l-.6-.3c-.4-.2-.7-.3-1.1-.5-.1-.1-.2-.1-.4-.1-.7-.3-1.4-.4-2.1-.6-.1-.1-.3-.1-.4-.1-.7-.2-1.5-.3-2.2-.3h-.4c-.2-.1-.5-.1-.7-.1h-1.1c-.6 0-1.3.1-1.9.2-.3 0-.5.1-.7.1-.6.1-1.3.3-1.9.5-.2.1-.4.1-.6.2-.4.1-.8.3-1.1.5-.2.1-.3.1-.4.2-.6.3-1.3.6-1.9 1-.2.1-.3.2-.4.3-.6.4-1.2.9-1.7 1.3l-.3.3c-.3.2-.6.5-.8.8l-.5.5-1.2 1.5c-.2.2-.3.4-.4.6-.4.5-.7 1.1-.9 1.6l-.3.6c-.2.4-.3.7-.4 1.1-.1.1-.1.2-.2.4-.3.7-.4 1.4-.6 2.1-.1.2-.1.3-.1.4-.1.7-.2 1.4-.2 2.2-.1.1-.1.3 0 .4-.1.2-.1.5-.1.7v.4c0 .3 0 .5.1.7 0 .6.1 1.3.2 1.9 0 .3.1.5.1.8.1.6.3 1.2.5 1.8.1.2.1.4.2.6.1.4.3.7.4 1.1 0 .1.1.3.2.4.3.6.6 1.3 1.1 1.9.1.2.2.3.3.4.4.6.9 1.2 1.3 1.7l.3.3c.2.3.5.5.8.8l.5.5 1.5 1.2c.2.2.4.3.6.4.5.3 1.1.6 1.7.9l.6.3c.3.2.7.3 1.1.4.1.1.2.1.4.2.7.3 1.4.4 2.1.6.1.1.3.1.4.1.7.2 1.5.3 2.2.3h.4c.2.1.5.1.7.1h1.1c.6 0 1.3-.1 1.9-.2.3 0 .5-.1.8-.1.6-.1 1.2-.3 1.8-.5l.6-.3c.4-.1.7-.3 1.1-.4.1 0 .3-.1.4-.2.7-.3 1.3-.6 1.9-1.1.1-.1.3-.2.4-.3.6-.4 1.1-.8 1.7-1.3l.3-.3c.3-.2.5-.5.8-.8l.5-.5 1.2-1.5c.2-.2.3-.4.4-.6.4-.5.7-1.1.9-1.7l.3-.6c.2-.4.3-.7.4-1.1.1-.1.1-.2.2-.4.3-.7.5-1.4.6-2.1.1-.2.1-.3.1-.4.1-.7.2-1.4.2-2.2.1-.1.1-.3 0-.4.1-.2.1-.5.1-.7v-.1zm-11.1 11.1c-.5.3-.9.6-1.5.8-.1 0-.1.1-.2.1-.1.1-.3.1-.4.2-.1.1-.3.1-.4.2-.5.2-1 .3-1.5.4-.2.1-.4.1-.6.1-.5.1-1.1.2-1.6.2h-1c-.5 0-1.1-.1-1.6-.2-.3 0-.5-.1-.8-.1-.5-.1-1.1-.3-1.6-.5-.1 0-.1 0-.2-.1-.2 0-.3-.1-.4-.2-.1-.1-.3-.1-.4-.2-.5-.2-1-.5-1.4-.8-.2-.1-.3-.2-.4-.3-.4-.3-.9-.6-1.3-1l-.3-.3-.3-.3-.2-.2c-.4-.4-.7-.8-1-1.2-.2-.2-.3-.4-.4-.6-.3-.4-.5-.9-.8-1.4 0-.1-.1-.1-.1-.2-.1-.1-.1-.3-.2-.4-.1-.1-.1-.2-.1-.4-.2-.5-.3-1-.4-1.6-.1-.2-.1-.4-.1-.6-.1-.5-.2-1.1-.2-1.6v-1c0-.5.1-1.1.2-1.6 0-.3.1-.5.1-.8.1-.5.3-1.1.5-1.6 0-.1 0-.1.1-.2.1-.2.1-.3.2-.4.1-.1.1-.2.2-.3.2-.5.5-1 .8-1.4.1-.2.2-.3.3-.4.3-.4.6-.9 1-1.3l.3-.3.3-.3.2-.2c.4-.4.8-.7 1.3-1 .2-.2.4-.3.6-.4.4-.3.9-.5 1.4-.8.1-.1.1-.1.2-.1.1-.1.3-.1.4-.2.1-.1.2-.1.4-.1.5-.2 1-.3 1.6-.5.2 0 .4-.1.6-.1.5-.1 1.1-.2 1.6-.2h1c.5 0 1.1.1 1.6.2.3.1.5.1.8.2.5.1 1 .3 1.5.5.1 0 .1.1.2.1.1.1.3.1.4.2.1.1.2.1.4.2.5.2.9.5 1.4.8.2.1.3.2.5.3.4.3.9.6 1.2 1l.3.3.3.3.2.2c.4.4.7.8 1 1.2.2.2.3.4.4.6.3.5.6.9.8 1.5.1.1.1.1.1.2.1.1.1.3.2.4.1.1.1.2.2.3.2.5.3 1 .5 1.6 0 .2.1.4.1.6.1.5.2 1 .2 1.6v1c0 .5-.1 1.1-.2 1.6 0 .3-.1.5-.1.8-.1.5-.3 1-.5 1.5 0 .1 0 .2-.1.2 0 .2-.1.3-.2.4-.1.1-.1.3-.2.4-.2.5-.5 1-.8 1.4-.1.2-.2.3-.3.5-.3.4-.6.8-1 1.2l-.3.3-.3.3-.2.2c-.4.4-.8.7-1.2 1-.4 0-.6.2-.8.3z"/><path d="M140.4 76.6v121.9H129v-28.7c-4.8 9.5-11.6 16.8-20.3 22-8.7 5.1-18.6 7.7-29.7 7.7-11.4 0-21.6-2.6-30.8-7.9-9.2-5.3-16.4-12.6-21.6-22-5.2-9.3-7.8-20-7.8-32s2.6-22.7 7.8-32.1c5.2-9.4 12.4-16.7 21.6-22 9.2-5.2 19.5-7.8 30.8-7.8 10.9 0 20.7 2.6 29.3 7.7 8.6 5.1 15.5 12.3 20.4 21.5V76.6h11.7zm-35.6 105.9c7.4-4.4 13.2-10.4 17.5-18.2 4.3-7.8 6.4-16.7 6.4-26.6 0-10-2.1-18.8-6.4-26.6-4.3-7.8-10.1-13.9-17.5-18.2-7.4-4.4-15.8-6.5-25.1-6.5s-17.7 2-25.1 6.3C47.2 97.1 41.3 103.2 37 111c-4.3 7.8-6.4 16.7-6.4 26.6 0 10 2.1 18.8 6.4 26.6 4.3 7.8 10.1 13.9 17.5 18.2 7.4 4.4 15.8 6.5 25.1 6.5s17.8-2.1 25.2-6.4zm93.6 8.2c-5.5-5.8-8.2-13.9-8.2-24.2V25.2h11.7v139.9c0 7.9 1.8 14 5.4 18.1 3.6 4.1 9 6.2 16.1 6.2 4 0 7.9-.8 11.7-2.3l.9 9.8c-4.4 1.7-9 2.6-14 2.6-10.3 0-18.2-2.9-23.6-8.8zm73.6 0c-5.5-5.8-8.2-13.9-8.2-24.2V25.2h11.7v139.9c0 7.9 1.8 14 5.4 18.1 3.6 4.1 9 6.2 16.1 6.2 4 0 7.9-.8 11.7-2.3l.9 9.8c-4.4 1.7-9 2.6-14 2.6-10.3 0-18.2-2.9-23.6-8.8zm136-6c6.8-2.9 12.4-7.1 16.9-12.7l6.8 7.7c-5.3 6.5-11.9 11.5-19.9 14.8-7.9 3.4-16.7 5-26.2 5-12.1 0-23-2.6-32.6-7.9-9.6-5.3-17.1-12.6-22.4-22-5.4-9.3-8.1-20-8.1-32s2.5-22.7 7.6-32 12.1-16.7 21.1-22c9-5.3 19.2-7.9 30.6-7.9 10.6 0 20.1 2.5 28.6 7.4s15.3 11.7 20.3 20.3c5.1 8.6 7.8 18.3 8.3 29.1l-103 20.1c3 11.2 8.9 20.1 17.8 26.6s19.5 9.8 32 9.8c8.1 0 15.5-1.4 22.2-4.3zm-50.8-92.3c-7.3 4.3-13 10.3-17.1 18-4.1 7.7-6.1 16.5-6.1 26.3 0 1.7.2 4.1.5 7.2l93-18.2c-1.1-7.3-3.7-14-7.7-20.1-4.1-6.1-9.3-10.9-15.9-14.4-6.5-3.5-13.9-5.3-22-5.3-9.1.1-17.3 2.2-24.7 6.5zM573.3 89c8.9 8.9 13.3 21.7 13.3 38.3v71.3H575v-70.3c0-13.7-3.5-24.1-10.4-31.3-6.9-7.2-16.6-10.7-29.1-10.7-14.3 0-25.6 4.3-33.9 12.8-8.3 8.6-12.4 20.1-12.4 34.6v64.9h-11.7v-122h11.2V103c4.2-8.6 10.5-15.3 18.8-20.1 8.3-4.8 18.2-7.2 29.6-7.2 15.3 0 27.4 4.4 36.2 13.3zm119.3 101.9c-3 2.8-6.7 4.9-11.1 6.4-4.4 1.5-9.1 2.2-13.9 2.2-10.6 0-18.8-2.9-24.5-8.8-5.8-5.8-8.6-14-8.6-24.4V50h11.7v26.6H685v10h-38.8v78.5c0 7.9 1.9 14 5.7 18.1 3.8 4.1 9.5 6.2 16.9 6.2 7.6 0 13.9-2.3 18.9-6.8l4.9 8.3zm401.8-114.3v67.3c0 18.4-4.3 32.2-12.8 41.6-8.6 9.3-21.2 14-37.8 14-11.5 0-21-2.4-28.5-7.1-7.5-4.7-13-12.2-16.6-22.3-3.4 10.1-8.9 17.6-16.4 22.3-7.5 4.8-17.1 7.1-28.7 7.1-16.7 0-29.3-4.7-37.8-14-8.6-9.3-12.8-23.2-12.8-41.6V76.6h11.7v66.6c0 15.6 3.2 27.1 9.6 34.6 6.4 7.5 16.2 11.2 29.4 11.2s23.1-3.8 29.6-11.4c6.5-7.6 9.7-19.4 9.7-35.3V76.6h11.7v65.6c0 16 3.2 27.8 9.6 35.4 6.4 7.6 16.3 11.3 29.7 11.3 13.2 0 23-3.7 29.4-11.2 6.4-7.5 9.6-19 9.6-34.6V76.6h11.4zM1238.9 89c8.9 8.9 13.3 21.7 13.3 38.3v71.3h-11.7v-70.3c0-13.7-3.5-24.1-10.4-31.3-6.9-7.2-16.6-10.7-29.1-10.7-14.3 0-25.6 4.3-33.9 12.8-8.3 8.6-12.4 20.1-12.4 34.6v64.9H1143v-122h11.2V103c4.2-8.6 10.5-15.3 18.8-20.1 8.3-4.8 18.2-7.2 29.6-7.2 15.4 0 27.4 4.4 36.3 13.3z" fill="#0e0e0e"/></svg>