<svg width="252" height="53" xmlns="http://www.w3.org/2000/svg" xmlns:xlink="http://www.w3.org/1999/xlink"><defs><path id="path-1" d="M0 0h67v16H0z"/><path id="path-3" d="M0 0h21v25H0z"/><path id="path-5" d="M0 53h252V0H0z"/></defs><g id="Page-1" stroke="none" stroke-width="1" fill="none" fill-rule="evenodd"><g id="Homepage-–-History-of-the-Eko-dynasty" transform="translate(-802 -2266)"><g id="Group-27" transform="translate(802 2266)"><g id="Group-3" transform="translate(20 37)"><mask id="mask-2" fill="#fff"><use xlink:href="#path-1"/></mask><path d="M66.408 6.365C58.364 12.655 46.703 16 36.66 16 22.588 16 9.916 10.487.325 1.311-.428.591.244-.394 1.15.164c10.347 6.38 23.143 10.223 36.357 10.223 8.916 0 18.715-1.96 27.733-6.014 1.36-.611 2.5.95 1.169 1.992" id="Fill-1" fill="#F7981D" mask="url(#mask-2)"/></g><path d="M90.225 39.48c-1.046-1.262-6.912-.598-9.548-.3-.798.09-.922-.568-.202-1.044 4.68-3.099 12.348-2.204 13.24-1.166.897 1.046-.236 8.295-4.622 11.754-.675.532-1.316.248-1.017-.454.987-2.324 3.196-7.527 2.15-8.79" id="Fill-4" fill="#F7981D"/><path d="M79.854 14.11v-3.278c.003-.5.386-.832.848-.83L95.685 10c.478 0 .863.343.863.827v2.813c-.004.471-.41 1.086-1.128 2.063l-7.76 10.869c2.88-.067 5.928.357 8.545 1.8.59.325.749.806.795 1.279v3.499c0 .48-.538 1.04-1.103.748-4.612-2.369-10.731-2.627-15.831.03-.52.271-1.066-.278-1.066-.76v-3.326c0-.532.01-1.443.557-2.253l8.992-12.652H80.72c-.479 0-.863-.336-.866-.826" id="Fill-6" fill="#221E1F"/><path d="M29.076 34H24.77a.81.81 0 01-.77-.726l.004-22.017c0-.44.371-.793.83-.793l4.01-.001c.42.022.756.337.782.74v2.874h.081C30.752 11.297 32.721 10 35.373 10c2.693 0 4.38 1.297 5.586 4.077C42.005 11.297 44.376 10 46.907 10c1.81 0 3.778.74 4.983 2.41 1.367 1.853 1.086 4.54 1.086 6.903l-.004 13.895c0 .44-.37.792-.83.792h-4.3c-.432-.028-.772-.369-.772-.791l-.002-11.673c0-.925.08-3.243-.12-4.122-.322-1.483-1.287-1.901-2.531-1.901-1.046 0-2.131.696-2.574 1.807-.441 1.113-.402 2.965-.402 4.216v11.672c0 .44-.37.792-.83.792h-4.3c-.432-.028-.773-.369-.773-.791l-.004-11.673c0-2.455.402-6.068-2.652-6.068-3.095 0-2.974 3.52-2.974 6.068l-.001 11.672c0 .44-.372.792-.831.792" id="Fill-8" fill="#221E1F"/><path d="M108.959 14.593c-3.25 0-3.457 4.402-3.457 7.15 0 2.745-.04 8.616 3.416 8.616 3.416 0 3.58-4.735 3.58-7.622 0-1.894-.082-4.167-.659-5.967-.493-1.562-1.481-2.177-2.88-2.177m-.04-4.593C115.461 10 119 15.587 119 22.69c0 6.863-3.908 12.31-10.082 12.31C102.498 35 99 29.411 99 22.453 99 15.444 102.54 10 108.918 10" id="Fill-10" fill="#221E1F"/><path d="M129.16 34h-4.367c-.438-.028-.786-.369-.786-.791L124 11.184c.037-.404.4-.72.842-.72l4.065-.001c.383.02.699.275.779.617v3.368h.082c1.229-3.013 2.945-4.448 5.973-4.448 1.963 0 3.887.694 5.114 2.595C142 14.355 142 17.32 142 19.452v13.855c-.048.39-.407.693-.84.693h-4.392c-.406-.025-.734-.317-.78-.693V21.352c0-2.41.286-5.931-2.742-5.931-1.064 0-2.046.695-2.536 1.76-.614 1.345-.697 2.687-.697 4.171v11.856c-.007.44-.386.792-.853.792" id="Fill-12" fill="#221E1F"/><path d="M74.374 34.633c-.29.26-.71.277-1.038.102-1.458-1.207-1.72-1.765-2.518-2.915C68.407 34.266 66.7 35 63.575 35 59.877 35 57 32.727 57 28.182c0-3.551 1.932-5.966 4.685-7.15 2.383-1.041 5.712-1.23 8.26-1.516v-.567c0-1.042.083-2.273-.534-3.172-.534-.805-1.561-1.138-2.466-1.138-1.675 0-3.164.856-3.53 2.627-.077.395-.366.785-.763.805l-4.259-.46c-.36-.08-.758-.367-.656-.914.98-5.143 5.644-6.697 9.824-6.697 2.138 0 4.932.567 6.617 2.178 2.137 1.989 1.932 4.64 1.932 7.53v6.813c0 2.051.855 2.95 1.657 4.054.281.399.344.871-.014 1.163-.897.75-2.491 2.128-3.368 2.905l-.011-.01zm-4.428-10.665c0 1.705.04 3.124-.823 4.64-.698 1.23-1.808 1.989-3.04 1.989-1.686 0-2.672-1.28-2.672-3.173 0-3.726 3.357-4.403 6.535-4.403v.947z" id="Fill-14" fill="#221E1F"/><g id="Group-18" transform="translate(0 10)"><mask id="mask-4" fill="#fff"><use xlink:href="#path-3"/></mask><path d="M17.374 24.633c-.29.26-.71.277-1.037.102-1.46-1.207-1.722-1.765-2.518-2.915C11.406 24.266 9.699 25 6.576 25 2.876 25 0 22.727 0 18.182c0-3.551 1.931-5.966 4.685-7.15 2.383-1.041 5.712-1.23 8.26-1.516V8.95c0-1.042.082-2.273-.534-3.172-.534-.805-1.562-1.138-2.466-1.138-1.675 0-3.166.856-3.53 2.627-.077.395-.366.785-.764.805l-4.258-.46c-.36-.08-.76-.367-.656-.914C1.716 1.554 6.38 0 10.562 0c2.137 0 4.931.567 6.616 2.178 2.136 1.989 1.932 4.64 1.932 7.53v6.813c0 2.051.855 2.95 1.657 4.054.28.399.344.871-.013 1.163-.898.75-2.493 2.128-3.37 2.905l-.01-.01zm-4.43-10.665c0 1.705.042 3.124-.82 4.64-.699 1.23-1.81 1.989-3.042 1.989-1.685 0-2.671-1.28-2.671-3.173 0-3.726 3.357-4.403 6.534-4.403v.947z" id="Fill-16" fill="#221E1F" mask="url(#mask-4)"/></g><path id="Fill-19" fill="#F7981D" d="M160.224 35L149.8 22.839h-.051V35H146V0h3.749v19.873h.051l8.935-8.256h4.879l-10.682 9.54L165 35z"/><mask id="mask-6" fill="#fff"><use xlink:href="#path-5"/></mask><path d="M166.883 34h4.293V10.841h-4.293V34zM169 5.994c-1.647 0-3-1.126-3-2.496C166 2.126 167.353 1 169 1c1.648 0 3 1.126 3 2.498 0 1.37-1.352 2.496-3 2.496z" id="Fill-21" fill="#F7981D" mask="url(#mask-6)"/><path d="M192.302 34V19.6c0-2.92-.507-6.186-4.155-6.186-2.94 0-5.624 2.029-7.448 3.563V34H177V10.594h3.04l.507 2.82C183.18 11.435 185.766 10 189.11 10c3.445 0 6.89 2.424 6.89 8.264V34h-3.698z" id="Fill-23" fill="#F7981D" mask="url(#mask-6)"/><path d="M215.295 14.575c-.965-.341-1.827-.584-3.706-.584-4.721 0-8.833 3.559-8.833 9.067 0 5.215 2.995 8.92 9.24 8.92 1.217 0 2.537-.244 3.299-.585V14.575zM211.335 35C204.636 35 199 31.247 199 23.3c0-7.164 5.38-12.43 12.386-12.43 1.726 0 2.944.147 3.909.39V0H219v33.343c-1.472.828-4.263 1.657-7.664 1.657z" id="Fill-24" fill="#F7981D" mask="url(#mask-6)"/><path d="M227.98 35c-2.78 0-3.98-1.804-3.98-4.24V0h3.5v29.15c0 2.194.527 2.633 1.87 2.633.24 0 .624 0 1.198-.146L231 34.22c-1.055.536-1.87.78-3.02.78" id="Fill-25" fill="#F7981D" mask="url(#mask-6)"/><path d="M242.625 13.131c-3.49 0-5.685 3.132-5.685 6.92h11.12c0-3.334-1.845-6.92-5.435-6.92zm-5.735 10.051c0 4.545 2.594 8.635 7.68 8.635 2.144 0 4.338-.857 5.735-1.767l1.147 2.626C249.706 33.889 246.714 35 244.12 35 236.59 35 233 28.89 233 22.07c0-6.919 3.89-12.07 9.575-12.07C248.66 10 252 14.899 252 22.323v.86h-15.11z" id="Fill-26" fill="#F7981D" mask="url(#mask-6)"/></g></g></g></svg>