<svg width="42" height="42" xmlns="http://www.w3.org/2000/svg" xmlns:xlink="http://www.w3.org/1999/xlink"><defs><path id="path-1" d="M0 0h10.957v21H0z"/></defs><g id="Page-1" stroke="none" stroke-width="1" fill="none" fill-rule="evenodd"><g id="Homepage-–-History-of-the-Eko-dynasty" transform="translate(-132 -1703)"><g id="Group-11" transform="translate(81 1703)"><g id="Group-9-Copy" transform="matrix(-1 0 0 1 93 0)"><circle id="Oval" stroke="#FFF" cx="21" cy="21" r="20.5"/><g id="Group-3" transform="translate(15.522 10.957)"><mask id="mask-2" fill="#fff"><use xlink:href="#path-1"/></mask><path d="M.281 9.73L9.253.283a.96.96 0 01.95-.243c.334.1.596.375.69.728.094.353.006.733-.23 1.001l-8.268 8.72 8.267 8.719c.188.196.295.463.295.743 0 .279-.107.546-.295.743a.971.971 0 01-.704.307.972.972 0 01-.705-.307L.281 11.188A1.075 1.075 0 010 10.46c0-.272.1-.534.281-.729z" id="Fill-1" fill="#FFF" mask="url(#mask-2)"/></g></g></g></g></g></svg>