<svg width="140" height="73" xmlns="http://www.w3.org/2000/svg" xmlns:xlink="http://www.w3.org/1999/xlink"><defs><path id="path-1" d="M0 0h9.28v15.81H0z"/><path id="path-3" d="M0 0h16.238v20.769H0z"/></defs><g id="Symbols" stroke="none" stroke-width="1" fill="none" fill-rule="evenodd"><g id="Header" transform="translate(-91 -53)"><g id="Group" transform="translate(91 53)"><path id="Fill-1" fill="#231F20" d="M9.396.25v6.415H1.979V.251H0v15.33h1.98V8.393h7.416v7.188h2.001V.251z"/><path id="Fill-2" fill="#231F20" d="M17.104 15.582h1.98V.252h-1.98z"/><g id="Group-5" transform="translate(24.04)"><mask id="mask-2" fill="#fff"><use xlink:href="#path-1"/></mask><path d="M.5 13.17a7.007 7.007 0 003.55 1.001c2.023 0 3.207-1.069 3.207-2.615 0-1.432-.82-2.253-2.89-3.048C1.867 7.62.32 6.324.32 4.164.319 1.774 2.298 0 5.278 0c1.568 0 2.706.365 3.388.752L8.12 2.366a6.114 6.114 0 00-2.912-.728c-2.094 0-2.889 1.25-2.889 2.298 0 1.432.932 2.137 3.049 2.957C7.96 7.894 9.28 9.143 9.28 11.397c0 2.365-1.751 4.412-5.369 4.412-1.479 0-3.093-.433-3.912-.978l.5-1.66z" id="Fill-3" fill="#231F20" mask="url(#mask-2)"/></g><path id="Fill-6" fill="#231F20" d="M41.212 1.934h-4.663V.25H47.9v1.683h-4.686v13.648h-2.002z"/><path d="M52.47 8.007c0 3.276 1.774 6.21 4.89 6.21 3.14 0 4.914-2.889 4.914-6.37 0-3.046-1.592-6.232-4.89-6.232-3.276 0-4.914 3.026-4.914 6.392m11.896-.25c0 5.278-3.206 8.074-7.118 8.074-4.05 0-6.893-3.139-6.893-7.778 0-4.868 3.025-8.052 7.119-8.052 4.186 0 6.892 3.206 6.892 7.756" id="Fill-8" fill="#231F20"/><path d="M71.189 7.438h2.024c2.116 0 3.458-1.16 3.458-2.911 0-1.98-1.433-2.843-3.527-2.865-.955 0-1.637.09-1.955.181v5.595zM69.209.455C70.21.25 71.644.137 73.01.137c2.116 0 3.48.387 4.434 1.252.775.682 1.207 1.728 1.207 2.911 0 2.024-1.275 3.366-2.89 3.913v.067c1.183.41 1.889 1.5 2.252 3.094.5 2.137.866 3.616 1.183 4.207H77.15c-.252-.431-.593-1.75-1.025-3.662-.454-2.114-1.273-2.911-3.07-2.98H71.19v6.642h-1.98V.455z" id="Fill-10" fill="#231F20"/><path d="M86.883 15.582V9.077L82.04.25h2.25l2.16 4.231a64.976 64.976 0 011.526 3.162h.046c.432-1.001.955-2.002 1.546-3.162l2.207-4.23h2.252l-5.141 8.802v6.529h-2.002z" id="Fill-12" fill="#231F20"/><path id="Fill-14" fill="#231F20" d="M55.458 33.777h-8.073v7.49h8.998v2.248H44.705V22.746H55.92v2.25h-8.535v6.564h8.073z"/><path d="M62.944 22.747h2.68v10.015h.093a52.595 52.595 0 011.632-2.22l6.349-7.795h3.328l-7.519 8.813 8.105 11.955h-3.175l-6.84-10.2-1.972 2.28v7.92h-2.68V22.747z" id="Fill-16" fill="#231F20"/><path d="M83.833 33.254c0 4.437 2.403 8.412 6.625 8.412 4.252 0 6.656-3.913 6.656-8.628 0-4.13-2.157-8.442-6.626-8.442-4.436 0-6.655 4.098-6.655 8.658m16.115-.34c0 7.15-4.344 10.94-9.645 10.94-5.484 0-9.336-4.253-9.336-10.539 0-6.592 4.099-10.907 9.645-10.907 5.67 0 9.336 4.344 9.336 10.507" id="Fill-18" fill="#231F20"/><path d="M5.052 31.044c-.206 0-.432.064-.678.195-.246.13-.52.394-.82.79a8.758 8.758 0 00-.823 1.324c-.245.486-.458.965-.635 1.437a11.61 11.61 0 00-.422 1.336 5.69 5.69 0 00-.174 1.037c-.028.356.031.664.174.923.145.26.366.39.667.39.233 0 .48-.068.74-.204.26-.137.554-.424.883-.863.22-.301.441-.681.668-1.14.225-.458.427-.928.606-1.407.177-.478.324-.94.44-1.385.117-.445.18-.804.196-1.078a5.7 5.7 0 00-.021-.483 1.265 1.265 0 00-.113-.432.84.84 0 00-.256-.317.695.695 0 00-.432-.123m.144-.617c.739 0 1.282.244 1.632.73.349.485.504 1.105.462 1.858a5.412 5.412 0 01-.153.985 8.51 8.51 0 01-1.049 2.454 6.777 6.777 0 01-.974 1.223 5.431 5.431 0 01-.914.78 3.98 3.98 0 01-.822.42 3.44 3.44 0 01-.687.174 3.872 3.872 0 01-.514.042c-.658 0-1.18-.232-1.57-.699-.39-.464-.552-1.142-.483-2.032.013-.315.074-.67.184-1.068s.257-.801.441-1.21a8.82 8.82 0 01.678-1.224c.268-.403.58-.77.935-1.099.533-.52 1.034-.872 1.5-1.057.464-.185.91-.277 1.334-.277" id="Fill-20" fill="#231F20"/><path d="M11.808 31.475c-.069.179-.14.414-.216.709-.075.293-.161.598-.256.913a265.71 265.71 0 00-.955 3.419c-.308 1.13-.634 2.262-.975 3.398-.288.931-.577 1.677-.863 2.239-.287.561-.542.936-.76 1.128a5.84 5.84 0 01-.307.277 3.14 3.14 0 01-.504.34c-.198.11-.427.209-.688.298-.26.09-.54.132-.841.132a1.4 1.4 0 01-1.028-.389 1.056 1.056 0 01-.237-.35.932.932 0 01-.071-.308c0-.232.049-.4.144-.503.096-.103.178-.182.246-.235.15-.124.268-.158.35-.103.082.054.164.15.246.287a1.7 1.7 0 00.575.554c.233.137.452.206.656.206.192 0 .4-.11.627-.328.227-.22.449-.677.667-1.376a79.99 79.99 0 001.377-5.185c.396-1.732.841-3.44 1.334-5.123H8.625c-.11-.095-.147-.222-.113-.38a.605.605 0 01.256-.38h1.766c.26-.917.554-1.78.884-2.588a8.762 8.762 0 011.395-2.3c.521-.616 1.072-1.054 1.654-1.313.581-.26 1.18-.39 1.796-.39.438 0 .829.122 1.171.37.341.247.514.574.514.985 0 .164-.031.322-.093.472-.062.15-.137.285-.226.4-.09.117-.185.214-.287.288a.494.494 0 01-.277.113c-.097 0-.166-.038-.206-.113a.784.784 0 01-.083-.216 2.306 2.306 0 00-.143-.76 1.44 1.44 0 00-.308-.492 1.156 1.156 0 00-.39-.267 1.092 1.092 0 00-.41-.082 1.39 1.39 0 00-.843.288c-.26.19-.514.464-.76.82a8.934 8.934 0 00-1.12 2.26c-.266.807-.536 1.65-.81 2.525h2.568a.512.512 0 01.06.38c-.026.143-.115.27-.267.38h-2.545z" id="Fill-22" fill="#231F20"/><path d="M21.438 31.7l-1.849 5.4c-.068.193-.082.327-.041.401a.2.2 0 00.186.114c.082 0 .214-.058.4-.175.185-.117.394-.268.626-.452.232-.185.469-.386.709-.605.24-.219.44-.424.606-.616.232 0 .328.123.287.369a8.14 8.14 0 01-.975 1.18 8.33 8.33 0 01-1.1.935c-.368.26-.717.466-1.046.616-.33.15-.603.225-.822.225a.506.506 0 01-.39-.185.56.56 0 01-.164-.369c0-.136.02-.287.062-.451.04-.164.115-.404.225-.72l1.93-5.666h-1.6a.643.643 0 01.008-.34.339.339 0 01.218-.235l1.642-.287 1.15-2.033a.615.615 0 01.41-.073c.165.02.287.086.369.195l-.594 2.013h2.237c.068.11.079.246.03.41a.538.538 0 01-.276.35h-2.238z" id="Fill-24" fill="#231F20"/><path d="M29.096 24.247c-.11.287-.225.613-.348.975-.124.362-.254.733-.39 1.108a104.715 104.715 0 00-.74 2.106l-2.115 6.14.041.04c.356-.506.691-.944 1.007-1.313.314-.37.605-.685.871-.946a9.95 9.95 0 01.74-.657c.225-.177.435-.335.626-.472.74-.533 1.39-.801 1.95-.801.453 0 .77.141.955.421.186.282.279.6.279.955 0 .356-.052.743-.155 1.16a14.071 14.071 0 01-.892 2.536c-.192.411-.377.78-.556 1.108a6.328 6.328 0 01-.616.904c-.204.248-.444.508-.718.78-.343.343-.643.562-.904.659-.26.095-.459.143-.596.143a.948.948 0 01-.399-.072.733.733 0 01-.237-.163.413.413 0 01-.102-.197.67.67 0 01.153-.625c.116-.132.243-.196.38-.196.083 0 .179.04.287.123.084.07.176.13.277.184a.57.57 0 00.258.084c.15 0 .287-.084.41-.248.125-.163.26-.424.41-.78.137-.328.292-.739.464-1.232.17-.493.33-.991.482-1.498.15-.508.277-.989.38-1.447.101-.46.153-.833.153-1.12 0-.411-.144-.617-.43-.617-.15 0-.326.055-.524.166-.198.11-.393.238-.586.39-.219.164-.427.332-.625.502-.2.172-.4.367-.606.586a20.487 20.487 0 00-1.376 1.643c-.233.314-.47.663-.71 1.047a31.015 31.015 0 00-1.292 2.289c-.184.363-.347.675-.482.934-.084.165-.206.247-.371.247a1.54 1.54 0 01-.216-.021.792.792 0 01-.235-.071.336.336 0 01-.154-.155c-.034-.069-.031-.164.01-.288l3.901-11.54c.11-.34.2-.618.267-.83.068-.212.114-.388.134-.525a.671.671 0 00-.01-.317.398.398 0 00-.165-.195l-.43-.288c-.042-.11-.02-.2.061-.268a2.24 2.24 0 01.41-.132c.192-.048.408-.096.647-.145a12.18 12.18 0 011.345-.195l.082.124z" id="Fill-26" fill="#231F20"/><path d="M37.536 31.064c-.152 0-.356.065-.616.195-.26.131-.575.395-.944.79a7.41 7.41 0 00-.965 1.305c-.246.43-.43.797-.554 1.098.34-.095.638-.198.892-.308a8.29 8.29 0 00.698-.338c.213-.117.411-.248.596-.39a8.91 8.91 0 00.564-.483c.316-.3.527-.585.638-.852.108-.268.163-.448.163-.545a.61.61 0 00-.092-.317c-.061-.103-.19-.155-.38-.155m.411-.636a1.257 1.257 0 01.955.411 1.208 1.208 0 01.34.82c0 .398-.121.757-.36 1.079-.24.322-.583.622-1.027.902a8.998 8.998 0 01-1.582.772 22.98 22.98 0 01-2.022.657 4.587 4.587 0 00-.195.738 5.755 5.755 0 00-.092 1.089c0 .356.095.64.287.852.19.213.424.318.699.318.369 0 .707-.1 1.015-.298a10.02 10.02 0 001.14-.893.265.265 0 01.268.35 6.906 6.906 0 01-.925.944 4.73 4.73 0 01-.863.575 3.03 3.03 0 01-.79.277 3.834 3.834 0 01-.708.071c-.315 0-.576-.064-.78-.195a1.673 1.673 0 01-.514-.503 1.949 1.949 0 01-.287-.697 3.673 3.673 0 01-.084-.761c0-.328.055-.718.166-1.169.108-.453.284-.928.522-1.428a8.57 8.57 0 01.946-1.509 8.04 8.04 0 011.427-1.418c.533-.41 1.002-.677 1.405-.8.404-.123.757-.184 1.06-.184" id="Fill-28" fill="#231F20"/><path d="M3.294 69.985c.678.124 1.664.155 2.712.155 5.73 0 8.843-3.205 8.843-8.813.031-4.9-2.743-8.012-8.413-8.012-1.385 0-2.433.124-3.142.278v16.392zM.614 51.62a38.488 38.488 0 015.7-.432c3.851 0 6.595.895 8.411 2.59 1.85 1.695 2.928 4.098 2.928 7.457 0 3.39-1.048 6.162-2.989 8.073-1.94 1.942-5.145 2.989-9.182 2.989-1.91 0-3.513-.093-4.869-.248V51.62z" id="Fill-30" fill="#231F20"/><path d="M27.973 72.112V63.3L21.41 51.343h3.05l2.928 5.732a87.703 87.703 0 012.064 4.283h.063c.585-1.355 1.292-2.712 2.094-4.283l2.988-5.732h3.052l-6.964 11.926v8.843h-2.712z" id="Fill-32" fill="#231F20"/><path d="M42.885 72.112v-20.77h2.927l6.657 10.509c1.54 2.435 2.741 4.621 3.727 6.748l.061-.03c-.246-2.775-.308-5.3-.308-8.536v-8.69h2.527v20.769h-2.712l-6.593-10.538c-1.449-2.311-2.835-4.684-3.882-6.934l-.092.031c.153 2.62.214 5.116.214 8.566v8.875h-2.526z" id="Fill-34" fill="#231F20"/><path d="M76.407 63.484l-2.034-5.978c-.462-1.355-.77-2.588-1.079-3.79h-.06a62.697 62.697 0 01-1.048 3.759l-2.034 6.009h6.255zm-6.81 2.095l-2.157 6.532h-2.773l7.056-20.767h3.236l7.088 20.767H79.18l-2.218-6.532h-7.365z" id="Fill-36" fill="#231F20"/><path d="M87.806 68.845c1.202.74 2.958 1.357 4.807 1.357 2.742 0 4.344-1.45 4.344-3.544 0-1.94-1.11-3.052-3.912-4.13-3.39-1.2-5.486-2.958-5.486-5.884 0-3.236 2.682-5.64 6.718-5.64 2.126 0 3.666.493 4.59 1.017l-.738 2.188a8.286 8.286 0 00-3.945-.986c-2.835 0-3.913 1.695-3.913 3.113 0 1.94 1.262 2.895 4.13 4.006 3.512 1.355 5.3 3.05 5.3 6.1 0 3.204-2.373 5.977-7.273 5.977-2.003 0-4.19-.585-5.3-1.324l.678-2.25z" id="Fill-38" fill="#231F20"/><path id="Fill-40" fill="#231F20" d="M110.391 53.623h-6.317v-2.28h15.376v2.28h-6.349v18.49h-2.71z"/><g id="Group-44" transform="translate(123.762 51.343)"><mask id="mask-4" fill="#fff"><use xlink:href="#path-3"/></mask><path d="M6.563 20.769v-8.812L0 0h3.05l2.928 5.732a87.703 87.703 0 012.064 4.283h.062c.586-1.355 1.293-2.712 2.094-4.283L13.188 0h3.05L9.276 11.926v8.843H6.563z" id="Fill-42" fill="#231F20" mask="url(#mask-4)"/></g></g></g></g></svg>