<svg width="309" height="43" xmlns="http://www.w3.org/2000/svg" xmlns:xlink="http://www.w3.org/1999/xlink"><defs><path id="path-1" d="M0 0h186v43H0z"/><path id="path-3" d="M0 0h108v13H0z"/></defs><g id="Symbols" stroke="none" stroke-width="1" fill="none" fill-rule="evenodd"><g id="Header" transform="translate(-59 -35)"><g id="Group-2" transform="translate(0 35)"><g id="Group-13-Copy-2" transform="translate(59.5)"><g id="Group-3"><mask id="mask-2" fill="#fff"><use xlink:href="#path-1"/></mask><path d="M68.192 17.468c-1.19.224-2.15.827-2.836 1.852l2.836-1.852m48.636 16.61c-.07-.237-.077-.334-.123-.406-1.036-1.632-1.33-3.376-.876-5.266.112-.466.068-.97.095-1.456-.533.058-1.132-.023-1.588.198-2.653 1.284-5.275 2.633-7.899 3.977-.432.221-.822.526-1.231.793l.05.184a61.733 61.733 0 0011.572 1.977M57.372 10.178c.039.342.07.52.077.699.042 1.138-.502 2.015-1.319 2.022-.469.004-.947-.12-1.407-.242-.873-.231-1.72-.63-2.604-.728-1.604-.179-3.269-.453-4.83-.203-2.147.346-4.236 1.1-6.323 1.761-1.288.408-2.502 1.006-3.462 2.02a1.879 1.879 0 00.325 2.856c1.518 1.002 3.235 1.237 4.98 1.271 2.306.045 4.617.096 6.915-.034 1.795-.102 3.631-.275 5.348-.77 3.16-.912 6.244-2.09 9.365-3.141.955-.322 1.225-1.106 1.371-1.964.13-.759-.239-1.327-.822-1.77-1.362-1.033-2.964-1.403-4.604-1.612-.963-.123-1.943-.111-3.01-.165m.212 11.123l-.084-.15c-1.676.53-3.36 1.034-5.022 1.605-.872.3-1.695.51-2.582.06-.244-.124-.583-.09-.878-.081-2.943.084-5.895.326-8.82-.163-1.66-.278-3.208-.84-4.349-2.236-1.06-1.295-1.209-2.843-1.354-4.387-.13-1.395.089-2.715 1.394-3.574.151-.1.314-.182.471-.272l-.134-.232c-.536 0-1.075-.04-1.607.008-1.705.15-3.41.306-5.11.506-2.788.327-5.597.552-8.35 1.07-3.87.727-7.616 1.906-11.158 3.69-2.296 1.156-4.331 2.61-5.95 4.637C2.703 23.47 2.3 25.41 2.566 27.48c.241 1.877 1.634 3.009 3.093 3.917 2.946 1.833 6.305 2.174 9.652 2.109 3.075-.06 6.14-.52 9.213-.726 3.62-.242 7.12-1.086 10.601-2.012 2.118-.564 4.205-1.25 6.29-1.93 4.334-1.416 8.54-3.141 12.523-5.38 1.23-.693 2.431-1.437 3.646-2.157M98.94 31.985c-.123-.237-.148-.332-.208-.392-1.233-1.226-2.434-2.488-3.723-3.652-.549-.496-1.253-.858-1.945-1.14-.319-.129-.834-.024-1.16.156-1.739.967-3.444 1.993-5.164 2.994-3.422 1.99-6.814 4.036-10.28 5.944-1.998 1.098-4.117 1.975-6.187 2.938-.288.134-.618.173-.915.29-.678.267-1.263.607-1.768 1.206-.744.884-1.653 1.635-2.535 2.393-.384.33-.889.38-1.349.076-.558-.368-1.02-.859-.98-1.555.017-.279.346-.642.626-.786a50.158 50.158 0 013.35-1.575c.535-.229 1.13-.313 1.682-.507a6.418 6.418 0 001.171-.543c3.233-1.944 6.475-3.874 9.681-5.862 2.489-1.542 4.926-3.17 7.395-4.744 1.099-.7 2.223-1.362 3.33-2.05.18-.112.333-.268.563-.456-.834-.495-1.528-1.096-2.327-1.319-.585-.163-1.314.143-1.965.297-.303.072-.573.279-.859.425-.654.337-1.398.16-1.796-.47-.501-.792-.825-1.637-.526-2.706-.218.089-.374.111-.472.2-.697.623-1.407 1.237-2.062 1.904-.333.338-.682.65-1.126.44-.813-.38-1.466-.012-2.14.318-1.395.684-2.241.293-2.717-1.214-.38-1.202-.024-2.134.898-2.922.57-.488 1.113-1.009 1.806-1.64-.91-.318-1.337-.959-1.476-1.906-.509.284-.924.505-1.329.745-1.103.651-2.198 1.317-3.304 1.964-.488.285-.633.628-.444 1.2.301.913.532 1.828.007 2.793-.403.741-.825.967-1.505.48a3.27 3.27 0 01-.832-.888c-.257-.405-.537-.542-.968-.338-1.672.792-3.349 1.547-4.597 3.025-1.31 1.553-2.305.539-2.838-.75-.128-.312-.176-.658-.288-1.094-.29.143-.528.247-.754.373-2.118 1.178-4.2 2.431-6.362 3.522-2.344 1.182-4.708 2.364-7.162 3.28-5.47 2.04-11.087 3.626-16.84 4.631-2.175.38-4.405.467-6.615.607-2.827.18-5.663.442-8.488.365-2.696-.075-5.388-.599-7.774-1.975C3.083 32.575.94 30.591.284 27.521c-.63-2.946-.29-5.752 1.82-8.123 2.731-3.071 6.117-5.135 9.945-6.513 3.886-1.4 7.876-2.384 11.976-2.895 2.697-.337 5.391-.754 8.1-.939 3.145-.215 6.304-.29 9.457-.285a29.52 29.52 0 006.922-.804c3.277-.777 6.628-1.185 10.003-.982 2.45.147 4.866.572 6.993 1.948 1.625 1.053 2.468 2.6 2.679 4.492.096.856.07.898.879.598 3.965-1.474 7.957-2.883 11.88-4.465 2.305-.93 4.493-2.152 6.743-3.223 2.458-1.17 4.929-2.314 7.39-3.478 1.774-.84 3.55-1.677 5.308-2.55.55-.274 1.107-.483 1.602-.067.594.499.94 1.196.882 2-.079 1.083-.629 1.781-1.68 2.194-4.105 1.614-8.238 3.174-12.266 4.968-3.547 1.58-6.966 3.444-10.442 5.185-.06.03-.114.075-.102.067l.718 2.203c.466-.441.961-.838 1.37-1.31 1.16-1.344 2.521-1.182 3.293.423.04.081.089.158.179.316.3-.164.591-.317.877-.482.178-.103.336-.244.52-.334 1.72-.843 2.553-.359 3.057 1.466.042.15.08.303.152.573 1.77-.89 3.488-1.757 5.21-2.615.327-.163.659-.354 1.01-.424.568-.114 1.193-.342 1.685.178.674.713.846 1.577.525 2.49-.144.408-.162.69.108 1.062.404.554-.168 1.711-1.026 1.995-.709.234-1.46.374-2.204.455-.702.076-1.418.01-2.127.03-.257.008-.512.086-.76.13.011.133-.001.201.022.218.603.43 1.174.924 1.826 1.26.898.465 1.851.11 2.61-.309 4.065-2.25 8.077-4.595 12.116-6.892 1.43-.813 2.88-1.595 4.33-2.37.85-.455 1.6-.318 2.199.446.316.405.634.483 1.064.296.525-.227 1.064-.43 1.566-.7 1.146-.619 2.073.006 2.418 1.166.397 1.332.023 2.143-1.212 2.787-1.622.847-3.26 1.662-4.901 2.47-1.56.767-3.118 1.54-4.702 2.253a65.462 65.462 0 01-10.409 3.647c-.684.178-.846.437-.423.93 1.13 1.317 2.319 2.583 3.502 3.852.441.473.898.49 1.513.145 4.488-2.523 9.009-4.99 13.506-7.496 1.64-.914 3.244-1.886 4.863-2.834.134-.079.256-.177.345-.24-.307-.623-.667-1.182-.864-1.794-.347-1.073.023-1.969.801-2.197.858-.252 1.988.48 2.246 1.454.273 1.03.408 1.074 1.34.564 4.553-2.496 9.111-4.983 13.67-7.47.375-.204.768-.378 1.128-.704-.645-.064-1.289-.146-1.935-.19-2.279-.153-4.567-.217-6.836-.46-2.267-.244-4.452-.814-6.288-2.317-.718-.588-1.136-1.3-1.222-2.217-.087-.929.749-1.547 1.58-1.14.343.168.739.386.92.694.596 1.013 1.584 1.357 2.595 1.641 2.658.748 5.393.954 8.134 1.103 2.465.134 4.931.243 7.394.41 1.02.068 1.79-.505 2.635-.877 2.618-1.148 5.218-2.338 7.826-3.51 1.521-.684 3.053-1.346 4.564-2.053 1.35-.632 2.513.064 2.565 1.572.05 1.418-.153 1.712-1.507 2.128-1.848.566-3.705 1.107-5.545 1.697a6.935 6.935 0 00-1.873.951c1.53-.085 3.068-.103 4.589-.27 3.11-.345 6.215-.742 9.315-1.173 1.946-.27 3.879-.642 5.818-.969 2.14-.36 4.29-.666 6.414-1.1 1.788-.364 3.55-.863 5.314-1.339.388-.104.722-.4 1.106-.538.232-.084.597-.14.747-.016.156.129.21.508.154.739-.072.296-.26.59-.469.822-.981 1.096-2.23 1.775-3.651 2.047-3.836.734-7.681 1.419-11.526 2.106-2.25.402-4.5.793-6.758 1.151-2.052.326-4.132.508-6.163.93-1.5.312-2.963.344-4.482.288-2.305-.087-4.62.016-6.926.138-.605.032-1.215.38-1.782.665a1083.461 1083.461 0 00-9.166 4.66c-1.993 1.026-3.97 2.08-5.954 3.123a.647.647 0 00-.321.326c.525-.026 1.054-.022 1.576-.082 1.815-.21 3.628-.436 5.438-.678.26-.034.523-.16.753-.297.55-.33 1.085-.684 1.617-1.042.466-.313.82-.677.896-1.303.088-.72.937-1.28 1.648-1.281.385 0 .813-.07 1.147-.248 1.118-.596 1.732-.372 2.128.854l.464 1.446c.77-.58 1.415-1.08 2.076-1.559.61-.442 1.222-.888 1.864-1.283.67-.412 1.487-.341 1.795.183.586.995.927 1.844.203 2.507-.382.35-.875.574-1.303.877a130.055 130.055 0 00-3 2.165c-.12.09-.188.354-.162.518.191 1.25-.356 2.142-1.586 2.379-.702.134-1.267.384-1.764.928-.6.656-1.556.544-2.032-.284-.298-.52-.317-1.198-.486-1.797-.088-.314-.165-.675-.374-.89-.094-.096-.538.059-.76.2a130.269 130.269 0 00-3.612 2.381 12.28 12.28 0 00-1.386 1.116c-.97.894-1.938.706-2.55-.481-.29-.562-.636-1.081-.112-1.788-1.031.095-1.945.186-2.86.261-1.41.117-2.821.28-4.229-.06-.204-.05-.479-.038-.656.062-1.712.968-3.411 1.96-5.112 2.95-.072.042-.118.129-.201.224 1.44 1.467.901 3.135.535 4.796-.131.6-.25 1.212-.27 1.822-.041 1.311.711 2.226 1.973 2.623 1.64.516 3.27.318 4.883-.044 1.783-.4 3.556-.85 5.31-1.36.46-.134.813-.601 1.248-.861.22-.131.569-.27.759-.183.63.286 1.055.76 1.08 1.533.024.75-.315 1.2-.958 1.511-2.92 1.411-6.015 2.156-9.232 2.38-.923.064-1.86-.073-2.79-.108-.248-.01-.517-.04-.743.038-1.67.571-3.352.724-5.103.412-1.3-.232-2.638-.259-3.94-.487-1.773-.31-3.543-.665-5.284-1.117-1.18-.307-2.302-.836-3.467-1.214-.232-.075-.582.018-.808.152-.882.525-1.74 1.091-2.6 1.652-1.208.788-2.866-.483-2.773-1.956.05-.772.372-1.083 1.179-1.292.564-.146 1.106-.377 1.742-.6" id="Fill-1" fill="#000" mask="url(#mask-2)"/></g><g id="Group-6" transform="translate(200 7)"><mask id="mask-4" fill="#fff"><use xlink:href="#path-3"/></mask><path d="M9.881 2.51c.77-.561 1.599-1.162 2.424-1.768.148-.109.273-.249.421-.357 1.085-.795 2.259-.314 2.515 1.027.227 1.193-.098 1.605-1.131 2.217-1.793 1.063-3.51 2.259-5.25 3.411-.36.239-.355.547.027.756.29.159.62.324.938.336 2.563.105 5.13.275 7.69.227 3.113-.057 6.223-.284 9.331-.482 2.582-.164 5.16-.396 7.74-.59 2.946-.223 5.892-.442 8.838-.651 1.052-.075 2.105-.154 3.158-.169 4.243-.059 8.486-.156 12.728-.117 3.344.031 6.686.211 10.027.38 2.95.15 5.9.311 8.84.581 3.42.313 6.838.682 10.24 1.151 3.767.52 7.52 1.142 11.267 1.796 2.143.374 4.273.845 6.38 1.385.692.177 1.293.71 1.936 1.08l-.081.203c-.489.024-.982.105-1.464.061-1.703-.151-3.402-.345-5.103-.522-1.662-.173-3.328-.314-4.986-.523-1.727-.217-3.443-.527-5.17-.746-2.59-.329-5.179-.693-7.78-.899-3.88-.306-7.769-.515-11.657-.712-2.837-.144-5.678-.23-8.52-.292-3.204-.07-6.412-.185-9.615-.1-5.038.132-10.075.375-15.108.648-3.017.163-6.024.504-9.039.705-3.405.227-6.812.442-10.222.562-3.276.114-6.556.097-9.834.148-.73.011-1.462.128-2.186.084-.583-.036-1.175-.187-1.73-.383-.793-.28-1.514-.339-2.168.297-.098.096-.228.159-.326.256-.544.538-1.165.744-1.881.407-.706-.331-.86-1.013-1.038-1.7-.317-1.22.225-2.071 1.019-2.903 1.256-1.318 2.448-2.698 3.669-4.05.828-.917 1.623-1.868 2.5-2.734.555-.547 1.12-.49 1.594.14.39.516.634 1.144 1.006 1.84" id="Fill-4" fill="#000" mask="url(#mask-4)"/></g><path d="M169.016 19l.153.193c.707-.165 1.06-.704 1.358-1.299a45.366 45.366 0 00-.143-.154L169.016 19m4.22-.066c.612-.51 1.17-1.108 1.847-1.509 1.118-.662 1.387-1.712 1.6-2.848.222-1.182.846-1.791 1.782-1.777.206.004.458.075.608.207 1.24 1.097 1.465 2.16.875 3.722.109-.139.22-.275.326-.416 1.378-1.847 2.945-3.506 4.829-4.847.218-.155.455-.297.704-.391.469-.177.823-.046 1.031.446.356.84.107 1.89-.566 2.518a189.526 189.526 0 00-3.895 3.718c-.459.455-.778 1.055-1.252 1.49-.231.212-.699.325-1.011.257-.674-.144-1.308-.469-1.978-.647-.255-.068-.628-.027-.835.12-1.568 1.12-3.207 2.032-5.194 2.141-.32.018-.624.23-.946.307-.905.217-1.816.584-2.721.575-1.587-.016-2.79-2.115-2.348-3.803.332-1.269 1.314-2.014 2.212-2.813.59-.523 1.164-.977 1.445-1.789.23-.663.728-1.291 1.569-1.295.963-.005 1.48.691 1.877 1.43.77 1.429.297 2.895.033 4.346-.045.25-.101.5-.152.75l.16.108" id="Fill-7" fill="#000"/><path d="M154.75 16.672c.572-.43 1.18-.814 1.702-1.308.222-.21.322-.634.372-.979.085-.582.15-1.147.771-1.339.66-.203 1.385-.467 1.898.227.526.713.928 1.534 1.425 2.377.228-.286.488-.682.812-1.001 1.093-1.075 2.126-2.254 3.337-3.146 1.35-.995 2.48-.493 2.894 1.316.19.826-.345 1.303-.89 1.752-1.207.993-2.455 1.941-3.579 3.037-.627.612-1.083 1.452-1.54 2.241-.953 1.639-2.066 1.24-2.961-.05-.257-.37-.52-.753-.844-1.047-.14-.126-.487-.135-.662-.036-.602.343-1.159.777-1.753 1.136-.528.32-1.088.579-1.624.886-.196.113-.443.247-.526.441-.401.942-1.148.884-1.863.738-.453-.093-.9-.351-1.291-.63-.496-.35-.6-1.17-.102-1.528.931-.669.997-1.721 1.23-2.693.199-.827.286-1.693.357-2.548.058-.7.335-1.184.951-1.37.626-.187 1.035.241 1.367.728.552.807.609 1.72.354 2.685l.164.111" id="Fill-9" fill="#000"/><path d="M189.979 14.101c.973-.404 1.656-.937 2.081-1.763.596-1.16 1.567-1.356 2.465-.456.38.382.756.769 1.118 1.168.282.311.574.31.842.027.726-.761 1.437-1.537 2.145-2.316.346-.382.653-.804 1.013-1.172.413-.421 1.016-.817 1.477-.433.424.355.669 1.04.813 1.628.357 1.455-.784 2.077-1.631 2.848-.416.38-.859.74-1.209 1.176a2.73 2.73 0 00-.526 1.123c-.134.67-.501.946-1.12 1.076-.474.1-.955.278-1.372.53-.763.461-1.343.502-1.876-.11-.212-.246-.262-.657-.34-1.004-.042-.19.012-.403.03-.728-.341.108-.59.148-.803.26-1.153.606-2.292 1.243-3.45 1.842-.62.321-1.005.792-1.187 1.488-.189.725-.692.9-1.325.518-1.041-.63-1.359-2.013-.954-3.164.468-1.331.798-2.724 1.067-4.114.194-1.006.85-1.68 1.592-1.381.623.252 1.282 1.403 1.207 2.099-.026.243-.033.489-.057.858" id="Fill-11" fill="#000"/></g></g></g></g></svg>