<?xml version="1.0" standalone="no"?>
<!DOCTYPE svg PUBLIC "-//W3C//DTD SVG 20010904//EN"
 "http://www.w3.org/TR/2001/REC-SVG-20010904/DTD/svg10.dtd">
<svg version="1.0" xmlns="http://www.w3.org/2000/svg"
 width="259.000000pt" height="259.000000pt" viewBox="0 0 259.000000 259.000000"
 preserveAspectRatio="xMidYMid meet">
<metadata>
Created by potrace 1.14, written by Peter Selinger 2001-2017
</metadata>
<g transform="translate(0.000000,259.000000) scale(0.100000,-0.100000)"
fill="#000000" stroke="none">
<path d="M1237 2318 c-30 -40 -65 -93 -77 -118 -12 -25 -24 -46 -25 -48 -2 -2
-32 19 -67 46 -57 45 -166 112 -181 112 -12 0 -46 -130 -57 -212 -5 -44 -11
-83 -13 -85 -2 -2 -22 3 -44 11 -45 16 -123 32 -202 41 l-54 6 6 -73 c4 -40
16 -106 27 -145 11 -40 20 -75 20 -78 0 -3 -17 -5 -39 -5 -45 0 -125 -14 -199
-36 l-53 -15 42 -79 c24 -44 62 -102 86 -129 46 -53 50 -61 30 -61 -17 0 -162
-91 -206 -130 -34 -29 -35 -30 -15 -51 26 -29 129 -101 181 -128 l43 -21 -49
-61 c-60 -74 -117 -177 -104 -190 13 -13 149 -46 225 -53 l67 -7 -14 -40 c-18
-49 -45 -191 -45 -232 l0 -30 73 6 c39 4 103 15 142 26 38 11 71 18 73 16 2
-2 8 -39 13 -82 10 -78 22 -133 40 -180 l9 -24 69 36 c37 20 96 58 129 85 l60
48 34 -65 c34 -67 114 -174 135 -180 16 -6 95 97 135 174 l32 61 61 -48 c62
-49 163 -110 183 -110 17 0 51 122 58 204 8 101 6 98 56 80 55 -20 179 -44
225 -44 l36 0 -7 75 c-4 42 -16 105 -27 141 -11 36 -19 67 -17 69 2 2 39 8 83
14 86 12 193 39 200 51 6 10 -82 156 -129 213 l-37 45 68 36 c74 39 183 120
183 136 0 14 -147 121 -197 144 l-42 18 55 72 c30 39 66 95 82 124 23 45 25
54 12 62 -26 17 -186 50 -239 50 -28 0 -51 2 -51 3 0 2 9 29 19 59 19 56 41
175 41 224 l0 26 -67 -7 c-38 -4 -101 -16 -142 -26 -41 -10 -77 -19 -81 -19
-4 0 -10 35 -13 78 -6 75 -31 179 -47 195 -11 12 -117 -44 -193 -102 l-65 -50
-32 57 c-36 63 -130 192 -141 192 -4 0 -32 -33 -62 -72z m103 -90 c84 -129
125 -286 117 -447 -3 -58 -9 -117 -13 -131 -5 -19 0 -15 21 15 46 69 157 174
230 220 71 45 232 105 279 105 33 0 34 -22 5 -116 -51 -166 -147 -301 -294
-412 l-30 -23 45 7 c85 14 232 6 314 -15 87 -23 204 -77 251 -116 l30 -25 -25
-20 c-47 -38 -205 -108 -281 -125 -86 -19 -184 -23 -274 -12 l-60 8 30 -22
c78 -57 191 -186 232 -264 45 -87 83 -200 83 -246 0 -27 -2 -28 -32 -23 -179
33 -354 139 -469 284 -28 36 -53 66 -54 68 -2 2 1 -14 6 -35 5 -21 9 -86 9
-144 0 -156 -41 -297 -123 -419 l-35 -52 -32 46 c-83 122 -130 276 -130 425 1
53 5 115 9 139 5 24 6 40 2 35 -4 -4 -27 -34 -51 -66 -93 -124 -253 -227 -418
-268 -46 -11 -85 -19 -87 -17 -8 8 24 136 49 198 14 35 44 92 66 125 38 59
155 180 210 218 l25 17 -40 -7 c-73 -13 -237 -7 -310 11 -77 20 -211 80 -264
120 l-33 25 62 40 c73 47 190 94 277 111 65 13 261 9 298 -5 11 -5 -2 9 -30
30 -166 126 -270 292 -310 493 -6 29 -4 32 17 32 48 0 145 -31 237 -76 75 -37
109 -62 175 -127 46 -45 93 -95 105 -112 l22 -30 -7 45 c-23 145 5 328 67 453
36 69 79 137 88 137 3 0 22 -24 41 -52z m-346 -62 c33 -24 71 -55 84 -68 22
-24 22 -26 7 -89 -8 -35 -15 -83 -15 -106 0 -45 -9 -53 -30 -28 -7 8 -44 36
-82 61 l-70 47 7 61 c8 79 25 166 32 166 3 0 33 -20 67 -44z m700 19 c10 -27
26 -182 21 -197 -3 -8 -20 -22 -38 -30 -18 -9 -57 -34 -87 -57 l-55 -41 -7 52
c-4 29 -11 73 -17 98 -10 44 -9 46 27 84 35 36 129 106 143 106 4 0 9 -7 13
-15z m-1042 -548 c26 -39 55 -82 64 -94 16 -23 16 -23 -22 -23 -22 0 -68 -7
-104 -16 l-65 -15 -37 41 c-40 45 -98 128 -98 142 0 9 30 17 103 28 110 16
107 17 159 -63z m1505 42 c35 -6 63 -15 63 -19 0 -12 -83 -121 -112 -148 -26
-23 -26 -23 -101 -8 -42 9 -90 16 -107 16 l-32 0 32 43 c18 23 44 61 59 85 25
41 27 42 80 42 30 0 83 -5 118 -11z m-1572 -604 c39 -8 87 -15 108 -15 40 0
47 -10 20 -31 -9 -8 -36 -45 -61 -83 l-44 -68 -62 6 c-87 9 -166 26 -166 35 0
14 124 171 134 171 1 0 33 -7 71 -15z m1592 -113 c22 -31 33 -56 27 -61 -11
-11 -127 -31 -177 -31 -32 0 -39 4 -56 38 -11 21 -38 62 -60 90 -40 50 -40 52
-19 56 13 2 57 10 98 18 l75 14 38 -36 c21 -19 54 -59 74 -88z m-1089 -405
c10 -36 10 -37 -48 -90 -31 -29 -73 -63 -93 -75 -42 -24 -40 -27 -57 78 -17
112 -15 123 29 148 22 13 64 41 93 63 l53 40 6 -64 c4 -35 12 -80 17 -100z
m525 103 c100 -69 95 -63 90 -117 -6 -70 -24 -173 -31 -173 -14 0 -101 63
-136 98 l-38 40 16 70 c9 39 16 85 16 101 0 17 2 31 5 31 3 0 38 -22 78 -50z"/>
<path d="M1191 1504 c-178 -89 -169 -353 14 -430 58 -24 150 -22 201 4 86 44
142 142 131 231 -20 173 -194 270 -346 195z m175 -63 c130 -59 138 -236 14
-298 -62 -32 -115 -30 -171 6 -97 61 -107 182 -22 263 53 51 111 60 179 29z"/>
</g>
</svg>
